<svg width="20" height="26" viewBox="0 0 20 26" fill="none" xmlns="http://www.w3.org/2000/svg">
<path d="M19.068 18.8501L16.9067 15.3076V10.2863C16.9836 8.95124 16.681 7.62166 16.034 6.45129C15.387 5.28092 14.422 4.31756 13.2505 3.67259C13.2665 3.46707 13.2665 3.26061 13.2505 3.05509C13.2379 2.64103 13.1438 2.23353 12.9736 1.85585C12.8034 1.47818 12.5604 1.13776 12.2586 0.854037C11.9568 0.570315 11.602 0.348862 11.2145 0.202336C10.8271 0.0558106 10.4145 -0.0129148 10.0005 8.88624e-05C9.58643 -0.0129148 9.17388 0.0558106 8.78641 0.202336C8.39895 0.348862 8.04416 0.570315 7.74233 0.854037C7.4405 1.13776 7.19754 1.47818 7.02735 1.85585C6.85716 2.23353 6.76307 2.64103 6.75047 3.05509C6.72654 3.26023 6.72654 3.46745 6.75047 3.67259C5.57897 4.31756 4.61394 5.28092 3.96693 6.45129C3.31992 7.62166 3.01735 8.95124 3.09422 10.2863V15.3076L0.932967 18.8501C0.746017 19.1572 0.643913 19.5084 0.637085 19.8678C0.630257 20.2272 0.718948 20.5821 0.894101 20.896C1.06925 21.21 1.32459 21.4718 1.63404 21.6548C1.94349 21.8378 2.29597 21.9354 2.65547 21.9376H5.53172C5.60689 23.0611 6.11432 24.1118 6.94751 24.8693C7.7807 25.6267 8.87489 26.032 10.0005 26.0001C11.126 26.032 12.2202 25.6267 13.0534 24.8693C13.8866 24.1118 14.394 23.0611 14.4692 21.9376H17.3455C17.705 21.9354 18.0574 21.8378 18.3669 21.6548C18.6763 21.4718 18.9317 21.21 19.1068 20.896C19.282 20.5821 19.3707 20.2272 19.3638 19.8678C19.357 19.5084 19.2549 19.1572 19.068 18.8501ZM8.78172 3.05509C8.81061 2.75895 8.95438 2.48592 9.18221 2.29455C9.41004 2.10317 9.70379 2.00868 10.0005 2.03134C10.2971 2.00868 10.5909 2.10317 10.8187 2.29455C11.0466 2.48592 11.1903 2.75895 11.2192 3.05509C10.8134 3.02967 10.4063 3.02967 10.0005 3.05509C9.59463 3.02924 9.18756 3.02924 8.78172 3.05509ZM10.0005 23.9688C9.41329 23.9984 8.83652 23.8058 8.38487 23.4294C7.93322 23.0531 7.6398 22.5205 7.56297 21.9376H12.438C12.3611 22.5205 12.0677 23.0531 11.6161 23.4294C11.1644 23.8058 10.5876 23.9984 10.0005 23.9688ZM2.65547 19.9063L4.83297 16.3801L5.12547 15.8763V10.2863C5.12156 9.06938 5.45938 7.87576 6.10047 6.84134C6.54282 6.23509 7.13434 5.75343 7.81765 5.4431C8.50096 5.13276 9.25288 5.00427 10.0005 5.07009C10.7481 5.00427 11.5 5.13276 12.1833 5.4431C12.8666 5.75343 13.4581 6.23509 13.9005 6.84134C14.5416 7.87576 14.8794 9.06938 14.8755 10.2863V15.8763L15.168 16.3801L17.3455 19.9063H2.65547Z" fill="#660000"/>
</svg>
