<svg width="24" height="24" viewBox="0 0 24 24" fill="none" xmlns="http://www.w3.org/2000/svg">
<path d="M5.27148 0.917969C5.5167 0.849701 5.79378 0.989024 5.86426 1.2666L6.56152 3.87012L12.082 2.4209L12.083 2.41992C12.3496 2.35332 12.6321 2.48643 12.7041 2.76953L13.874 7.09863L18.1436 5.95605L18.1445 5.95508C18.4112 5.88846 18.6938 6.02143 18.7656 6.30469L20.9639 14.4756L22.8984 13.9717H22.8994C23.1661 13.9051 23.4477 14.038 23.5195 14.3213H23.5205L24.0488 16.2695L24.0508 16.2754H24.0498C24.2528 17.0428 23.8145 17.8793 23.0312 18.0332L23.0322 18.0342L15.9355 19.9062C16.0089 21.313 15.1003 22.6198 13.6904 22.9873L13.6914 22.9883C12.2819 23.3833 10.8199 22.6984 10.1934 21.4502L9.04785 21.7637H9.0459C8.77873 21.8304 8.495 21.6975 8.42383 21.4131V21.4121L3.63965 3.77832L1.39941 4.33984C0.791941 4.49177 0.126234 4.12824 -0.0556641 3.49121C-0.23904 2.84862 0.160152 2.21191 0.791992 2.03125L0.794922 2.03027L5.27148 0.916992V0.917969ZM14.873 19.7109C14.6618 18.6535 13.5232 17.8827 12.3564 18.2012H12.3555C11.3127 18.4746 10.6882 19.4931 10.8984 20.5381L10.9521 20.7471L11.0205 20.9355C11.4048 21.8488 12.4195 22.3453 13.4141 22.0723C14.4259 21.779 15.1114 20.7965 14.874 19.7129L14.873 19.7109ZM1.03809 2.97656C0.925269 3.01419 0.884297 3.12285 0.912109 3.22949C0.926002 3.28259 0.955921 3.32636 0.994141 3.35156C1.03011 3.37523 1.08185 3.38761 1.15332 3.36719L1.15625 3.36621L3.88184 2.69824L3.89355 2.69531H3.98828C4.17894 2.69531 4.35563 2.82986 4.44141 2.99707L4.47266 3.07031L4.47461 3.0752L9.25879 20.6836L9.88281 20.5332C9.78387 19.7682 9.97705 18.9493 10.4648 18.3076L10.0195 18.4238L10.0186 18.4248C9.75173 18.4914 9.46901 18.3579 9.39746 18.0742L5.03027 1.96973L1.03809 2.97656ZM14.084 17.3662C14.8089 17.6694 15.4039 18.2618 15.6973 18.9863L22.7578 17.1172C22.9767 17.0574 23.1102 16.8593 23.0938 16.6396L23.0771 16.5439L22.6855 15.0811C20.0006 15.7994 16.7267 16.6647 14.084 17.3662ZM8.14355 9.65723L10.2314 17.3418L20.0195 14.749L17.9307 7.06543L8.14355 9.65723ZM6.83594 4.8418L7.86816 8.68457L12.9023 7.34473L11.8691 3.50195L6.83594 4.8418Z" fill="white" stroke="white" stroke-width="0.2"/>
</svg>
