<svg width="24" height="24" viewBox="0 0 24 24" fill="none" xmlns="http://www.w3.org/2000/svg">
<path d="M12 6.91103C10.8999 5.51087 9.20406 4.11071 5.00119 4.00796C4.72513 4.00122 4.5 4.22545 4.5 4.50159C4.5 6.55007 4.5 14.3053 4.5 16.5989C4.5 16.875 4.72515 17.0919 5.00114 17.1009C9.20405 17.2383 10.8999 19.1017 12 20.5019M12 6.91103C13.1001 5.51087 14.7959 4.11071 18.9988 4.00796C19.2749 4.00122 19.5 4.22041 19.5 4.49655C19.5 6.78641 19.5 14.3083 19.5 16.5982C19.5 16.8743 19.2749 17.0919 18.9989 17.1009C14.796 17.2383 13.1001 19.1017 12 20.5019M12 6.91103V20.5019" stroke="white" stroke-width="1.5" stroke-linejoin="round"/>
<path d="M19.2353 6H21.5C21.7761 6 22 6.22386 22 6.5V19.539C22 19.9436 21.5233 20.2124 21.1535 20.0481C20.3584 19.6948 19.0315 19.2632 17.2941 19.2632C14.3529 19.2632 12 21 12 21C12 21 9.64706 19.2632 6.70588 19.2632C4.96845 19.2632 3.64156 19.6948 2.84647 20.0481C2.47668 20.2124 2 19.9436 2 19.539V6.5C2 6.22386 2.22386 6 2.5 6H4.76471" stroke="white" stroke-width="1.5" stroke-linejoin="round"/>
</svg>
