<svg width="20" height="20" viewBox="0 0 20 20" fill="none" xmlns="http://www.w3.org/2000/svg">
<path d="M9.99984 3.33464C13.6757 3.33464 16.6665 6.32547 16.6665 10.0013C16.6665 13.6771 13.6757 16.668 9.99984 16.668C6.324 16.668 3.33317 13.6771 3.33317 10.0013C3.33317 6.32547 6.324 3.33464 9.99984 3.33464ZM9.99984 1.66797C5.39734 1.66797 1.6665 5.3988 1.6665 10.0013C1.6665 14.6038 5.39734 18.3346 9.99984 18.3346C14.6023 18.3346 18.3332 14.6038 18.3332 10.0013C18.3332 5.3988 14.6023 1.66797 9.99984 1.66797ZM14.1665 9.16797H10.8332V5.83464H9.1665V9.16797H5.83317V10.8346H9.1665V14.168H10.8332V10.8346H14.1665V9.16797Z" fill="white"/>
</svg>
