<svg width="31" height="28" viewBox="0 0 31 28" fill="none" xmlns="http://www.w3.org/2000/svg">
<rect x="0.5" width="30" height="28" rx="4" fill="#C0C0C0"/>
<path d="M21.4818 8.94496C21.4564 8.70988 21.2781 8.52693 21.0491 8.52693H18.9364C18.9364 6.59365 17.3836 5 15.4999 5C13.6162 5 12.0635 6.56757 12.0635 8.52693H9.95079C9.72174 8.52693 9.54348 8.70989 9.51808 8.94496L8.5 20.5966V20.6489C8.5 21.9551 9.67099 23 11.0964 23H19.9036C21.329 23 22.5 21.9551 22.5 20.6489V20.5966L21.4818 8.94496ZM15.5 5.91445C16.9 5.91445 18.0454 7.09002 18.0454 8.52692H12.9546C12.9546 7.0902 14.1 5.91445 15.5 5.91445ZM19.9036 22.1118H11.0963C10.1546 22.1118 9.3909 21.4586 9.36554 20.6749L10.3329 9.44124H12.0637V11.0088C12.0637 11.2439 12.2673 11.4529 12.4964 11.4529C12.7254 11.4529 12.9291 11.2439 12.9291 11.0088V9.44124H18.0454V11.0088C18.0454 11.2439 18.2491 11.4529 18.4781 11.4529C18.7071 11.4529 18.9108 11.2439 18.9108 11.0088V9.44124H20.6416L21.6089 20.6749C21.6091 21.4586 20.8456 22.1118 19.9037 22.1118H19.9036Z" fill="white"/>
</svg>
