<svg width="46" height="46" viewBox="0 0 46 46" fill="none" xmlns="http://www.w3.org/2000/svg">
<ellipse cx="23.5" cy="23.5" rx="18.5" ry="17.5" fill="white"/>
<path d="M16.0999 32.583L22.9999 25.683L29.8999 32.583L32.5833 29.8997L25.6833 22.9997L32.5833 16.0997L29.8999 13.4163L22.9999 20.3163L16.0999 13.4163L13.4166 16.0997L20.3166 22.9997L13.4166 29.8997L16.0999 32.583ZM22.9999 42.1663C20.3485 42.1663 17.8569 41.6629 15.5249 40.656C13.193 39.6491 11.1645 38.2838 9.4395 36.5601C7.7145 34.8351 6.3492 32.8066 5.34359 30.4747C4.33797 28.1427 3.83453 25.6511 3.83325 22.9997C3.83325 20.3483 4.3367 17.8566 5.34359 15.5247C6.35047 13.1927 7.71578 11.1643 9.4395 9.43926C11.1645 7.71426 13.193 6.34895 15.5249 5.34334C17.8569 4.33773 20.3485 3.83429 22.9999 3.83301C25.6513 3.83301 28.143 4.33645 30.4749 5.34334C32.8069 6.35023 34.8353 7.71554 36.5603 9.43926C38.2853 11.1643 39.6513 13.1927 40.6582 15.5247C41.6651 17.8566 42.1679 20.3483 42.1666 22.9997C42.1666 25.6511 41.6631 28.1427 40.6563 30.4747C39.6494 32.8066 38.2841 34.8351 36.5603 36.5601C34.8353 38.2851 32.8069 39.651 30.4749 40.6579C28.143 41.6648 25.6513 42.1676 22.9999 42.1663Z" fill="#660000"/>
</svg>
