<svg width="40" height="40" viewBox="0 0 40 40" fill="none" xmlns="http://www.w3.org/2000/svg">
<ellipse cx="20.5" cy="20.5" rx="18.5" ry="17.5" fill="white"/>
<path d="M13.0999 29.583L19.9999 22.683L26.8999 29.583L29.5833 26.8997L22.6833 19.9997L29.5833 13.0997L26.8999 10.4163L19.9999 17.3163L13.0999 10.4163L10.4166 13.0997L17.3166 19.9997L10.4166 26.8997L13.0999 29.583ZM19.9999 39.1663C17.3485 39.1663 14.8569 38.6629 12.5249 37.656C10.193 36.6491 8.1645 35.2838 6.4395 33.5601C4.7145 31.8351 3.3492 29.8066 2.34359 27.4747C1.33797 25.1427 0.83453 22.6511 0.833252 19.9997C0.833252 17.3483 1.3367 14.8566 2.34359 12.5247C3.35047 10.1927 4.71578 8.16426 6.4395 6.43926C8.1645 4.71426 10.193 3.34895 12.5249 2.34334C14.8569 1.33773 17.3485 0.834286 19.9999 0.833008C22.6513 0.833008 25.143 1.33645 27.4749 2.34334C29.8069 3.35023 31.8353 4.71554 33.5603 6.43926C35.2853 8.16426 36.6513 10.1927 37.6582 12.5247C38.6651 14.8566 39.1679 17.3483 39.1666 19.9997C39.1666 22.6511 38.6631 25.1427 37.6563 27.4747C36.6494 29.8066 35.2841 31.8351 33.5603 33.5601C31.8353 35.2851 29.8069 36.651 27.4749 37.6579C25.143 38.6648 22.6513 39.1676 19.9999 39.1663Z" fill="#660000"/>
</svg>
