<svg width="12" height="12" viewBox="0 0 12 12" fill="none" xmlns="http://www.w3.org/2000/svg">
<path d="M2.91369 1.81756L6.00169 4.90556L9.07369 1.83356C9.14155 1.76134 9.22329 1.70356 9.31402 1.66369C9.40475 1.62383 9.5026 1.60269 9.60169 1.60156C9.81387 1.60156 10.0173 1.68585 10.1674 1.83588C10.3174 1.98591 10.4017 2.18939 10.4017 2.40156C10.4036 2.49964 10.3854 2.59707 10.3482 2.68787C10.3111 2.77866 10.2558 2.86091 10.1857 2.92956L7.07369 6.00156L10.1857 9.11356C10.3175 9.24256 10.3949 9.41723 10.4017 9.60156C10.4017 9.81374 10.3174 10.0172 10.1674 10.1672C10.0173 10.3173 9.81387 10.4016 9.60169 10.4016C9.49974 10.4058 9.39802 10.3888 9.30299 10.3516C9.20796 10.3144 9.1217 10.2579 9.04969 10.1856L6.00169 7.09756L2.92169 10.1776C2.8541 10.2474 2.77334 10.3031 2.68409 10.3416C2.59484 10.38 2.49886 10.4004 2.40169 10.4016C2.18952 10.4016 1.98604 10.3173 1.83601 10.1672C1.68598 10.0172 1.60169 9.81374 1.60169 9.60156C1.59983 9.50348 1.61802 9.40605 1.65517 9.31526C1.69231 9.22446 1.74762 9.14221 1.81769 9.07356L4.92969 6.00156L1.81769 2.88956C1.68584 2.76057 1.60852 2.58589 1.60169 2.40156C1.60169 2.18939 1.68598 1.98591 1.83601 1.83588C1.98604 1.68585 2.18952 1.60156 2.40169 1.60156C2.59369 1.60396 2.77769 1.68156 2.91369 1.81756Z" fill="white"/>
</svg>
