<svg width="20" height="20" viewBox="0 0 20 20" fill="none" xmlns="http://www.w3.org/2000/svg">
<path d="M9.99998 12.9779C9.88887 12.9779 9.7847 12.9606 9.68748 12.9262C9.59026 12.8918 9.49998 12.8326 9.41665 12.7487L6.41665 9.7487C6.24998 9.58203 6.16998 9.38759 6.17665 9.16537C6.18331 8.94314 6.26331 8.7487 6.41665 8.58203C6.58331 8.41537 6.78137 8.3287 7.01081 8.32203C7.24026 8.31537 7.43804 8.39509 7.60415 8.5612L9.16665 10.1237V4.16537C9.16665 3.92926 9.24665 3.73148 9.40665 3.57203C9.56665 3.41259 9.76442 3.33259 9.99998 3.33203C10.2355 3.33148 10.4336 3.41148 10.5941 3.57203C10.7547 3.73259 10.8344 3.93037 10.8333 4.16537V10.1237L12.3958 8.5612C12.5625 8.39453 12.7605 8.31453 12.99 8.3212C13.2194 8.32787 13.4172 8.41481 13.5833 8.58203C13.7361 8.7487 13.8161 8.94314 13.8233 9.16537C13.8305 9.38759 13.7505 9.58203 13.5833 9.7487L10.5833 12.7487C10.5 12.832 10.4097 12.8912 10.3125 12.9262C10.2153 12.9612 10.1111 12.9784 9.99998 12.9779ZM4.99998 16.6654C4.54165 16.6654 4.14942 16.5023 3.82331 16.1762C3.4972 15.8501 3.33387 15.4576 3.33331 14.9987V13.332C3.33331 13.0959 3.41331 12.8981 3.57331 12.7387C3.73331 12.5793 3.93109 12.4993 4.16665 12.4987C4.4022 12.4981 4.60026 12.5781 4.76081 12.7387C4.92137 12.8993 5.00109 13.097 4.99998 13.332V14.9987H15V13.332C15 13.0959 15.08 12.8981 15.24 12.7387C15.4 12.5793 15.5978 12.4993 15.8333 12.4987C16.0689 12.4981 16.2669 12.5781 16.4275 12.7387C16.588 12.8993 16.6678 13.097 16.6666 13.332V14.9987C16.6666 15.457 16.5036 15.8495 16.1775 16.1762C15.8514 16.5029 15.4589 16.6659 15 16.6654H4.99998Z" fill="#660000"/>
</svg>
