<svg width="16" height="16" viewBox="0 0 16 16" fill="none" xmlns="http://www.w3.org/2000/svg">
<path d="M14.3213 0C15.2483 0.000163264 15.9998 0.751656 16 1.67871V14.3213C15.9998 15.2483 15.2483 15.9998 14.3213 16H1.67871C0.751658 15.9998 0.000163264 15.2483 0 14.3213V1.67871C0.000163023 0.751658 0.751656 0.000162832 1.67871 0H14.3213ZM12.3535 7.06055C12.1583 6.86539 11.8417 6.86538 11.6465 7.06055L8.06055 10.6465C7.47478 11.2322 6.52522 11.2322 5.93945 10.6465L4.85352 9.56055C4.65827 9.36539 4.34173 9.36538 4.14648 9.56055L1.08594 12.6211V14.3213C1.0861 14.6483 1.35167 14.9139 1.67871 14.9141H14.3213C14.6483 14.9139 14.9139 14.6483 14.9141 14.3213V9.62109L12.3535 7.06055ZM1.67871 1.08594C1.35167 1.0861 1.0861 1.35167 1.08594 1.67871V11.207L3.43945 8.85352C4.02522 8.26783 4.97478 8.26783 5.56055 8.85352L6.64648 9.93945C6.84173 10.1346 7.15827 10.1346 7.35352 9.93945L10.9395 6.35352C11.5252 5.76783 12.4748 5.76783 13.0605 6.35352L14.9141 8.20703V1.67871C14.9139 1.35167 14.6483 1.0861 14.3213 1.08594H1.67871ZM5 3C6.10457 3 7 3.89543 7 5C7 6.10457 6.10457 7 5 7C3.89543 7 3 6.10457 3 5C3 3.89543 3.89543 3 5 3ZM5 4C4.44772 4 4 4.44772 4 5C4 5.55228 4.44772 6 5 6C5.55228 6 6 5.55228 6 5C6 4.44772 5.55228 4 5 4Z" fill="#660000"/>
</svg>
