<svg width="10" height="10" viewBox="0 0 10 10" fill="none" xmlns="http://www.w3.org/2000/svg">
<path d="M3.64961 4.99844C4.64372 4.99844 5.44961 4.19255 5.44961 3.19844C5.44961 2.20432 4.64372 1.39844 3.64961 1.39844C2.6555 1.39844 1.84961 2.20432 1.84961 3.19844C1.84961 4.19255 2.6555 4.99844 3.64961 4.99844Z" fill="#000606"/>
<path d="M6.35 3.19805C6.35 3.50742 6.29551 3.80449 6.19883 4.08223C6.2498 4.08574 6.29902 4.09805 6.35 4.09805C7.34492 4.09805 8.15 3.29297 8.15 2.29805C8.15 1.30312 7.34492 0.498047 6.35 0.498047C5.89121 0.498047 5.47637 0.675586 5.1582 0.958594C5.87715 1.44551 6.35 2.26641 6.35 3.19805ZM3.65 5.89805C1.4 5.89805 0.5 6.34805 0.5 7.69805V9.50156H6.8V7.69805C6.8 6.33926 5.9 5.89805 3.65 5.89805Z" fill="#000606"/>
<path d="M6.35059 4.99805C6.0957 4.99805 5.86016 5.00508 5.63867 5.01738C5.59824 5.06133 5.55781 5.10352 5.51562 5.14395C6.63535 5.38125 7.69883 6.01406 7.69883 7.69805V8.60156H9.50059V6.79805C9.50059 5.43926 8.60059 4.99805 6.35059 4.99805Z" fill="#000606"/>
</svg>
