<svg width="26" height="26" viewBox="0 0 26 26" fill="none" xmlns="http://www.w3.org/2000/svg">
<g clip-path="url(#clip0_396_9215)">
<path d="M22.068 18.8516L19.9067 15.3091V10.2878C19.9836 8.95271 19.681 7.62312 19.034 6.45275C18.387 5.28238 17.422 4.31903 16.2505 3.67405C16.2665 3.46853 16.2665 3.26208 16.2505 3.05655C16.2379 2.6425 16.1438 2.23499 15.9736 1.85732C15.8034 1.47965 15.5604 1.13922 15.2586 0.855501C14.9568 0.57178 14.602 0.350327 14.2145 0.203801C13.8271 0.0572755 13.4145 -0.0114499 13.0005 0.00155371C12.5864 -0.0114499 12.1739 0.0572755 11.7864 0.203801C11.3989 0.350327 11.0442 0.57178 10.7423 0.855501C10.4405 1.13922 10.1975 1.47965 10.0274 1.85732C9.85716 2.23499 9.76307 2.6425 9.75047 3.05655C9.72654 3.26169 9.72654 3.46892 9.75047 3.67405C8.57897 4.31903 7.61394 5.28238 6.96693 6.45275C6.31992 7.62312 6.01735 8.95271 6.09422 10.2878V15.3091L3.93297 18.8516C3.74602 19.1586 3.64391 19.5098 3.63709 19.8693C3.63026 20.2287 3.71895 20.5835 3.8941 20.8975C4.06925 21.2114 4.32459 21.4733 4.63404 21.6563C4.94349 21.8393 5.29597 21.9368 5.65547 21.9391H8.53172C8.60689 23.0626 9.11432 24.1133 9.94751 24.8707C10.7807 25.6282 11.8749 26.0335 13.0005 26.0016C14.126 26.0335 15.2202 25.6282 16.0534 24.8707C16.8866 24.1133 17.394 23.0626 17.4692 21.9391H20.3455C20.705 21.9368 21.0574 21.8393 21.3669 21.6563C21.6763 21.4733 21.9317 21.2114 22.1068 20.8975C22.282 20.5835 22.3707 20.2287 22.3638 19.8693C22.357 19.5098 22.2549 19.1586 22.068 18.8516ZM11.7817 3.05655C11.8106 2.76042 11.9544 2.48739 12.1822 2.29601C12.41 2.10463 12.7038 2.01014 13.0005 2.0328C13.2971 2.01014 13.5909 2.10463 13.8187 2.29601C14.0466 2.48739 14.1903 2.76042 14.2192 3.05655C13.8134 3.03114 13.4063 3.03114 13.0005 3.05655C12.5946 3.03071 12.1876 3.03071 11.7817 3.05655ZM13.0005 23.9703C12.4133 23.9998 11.8365 23.8073 11.3849 23.4309C10.9332 23.0545 10.6398 22.5219 10.563 21.9391H15.438C15.3611 22.5219 15.0677 23.0545 14.6161 23.4309C14.1644 23.8073 13.5876 23.9998 13.0005 23.9703ZM5.65547 19.9078L7.83297 16.3816L8.12547 15.8778V10.2878C8.12156 9.07084 8.45938 7.87722 9.10047 6.8428C9.54282 6.23655 10.1343 5.7549 10.8177 5.44456C11.501 5.13422 12.2529 5.00573 13.0005 5.07155C13.7481 5.00573 14.5 5.13422 15.1833 5.44456C15.8666 5.7549 16.4581 6.23655 16.9005 6.8428C17.5416 7.87722 17.8794 9.07084 17.8755 10.2878V15.8778L18.168 16.3816L20.3455 19.9078H5.65547Z" fill="#660000"/>
</g>
<defs>
<clipPath id="clip0_396_9215">
<rect width="26" height="26" fill="white"/>
</clipPath>
</defs>
</svg>
