<svg width="17" height="18" viewBox="0 0 17 18" fill="none" xmlns="http://www.w3.org/2000/svg">
<path d="M8.50033 2.33073C12.1762 2.33073 15.167 5.32156 15.167 8.9974C15.167 12.6732 12.1762 15.6641 8.50033 15.6641C4.82449 15.6641 1.83366 12.6732 1.83366 8.9974C1.83366 5.32156 4.82449 2.33073 8.50033 2.33073ZM8.50033 0.664062C3.89783 0.664062 0.166992 4.3949 0.166992 8.9974C0.166992 13.5999 3.89783 17.3307 8.50033 17.3307C13.1028 17.3307 16.8337 13.5999 16.8337 8.9974C16.8337 4.3949 13.1028 0.664062 8.50033 0.664062ZM12.667 8.16406H9.33366V4.83073H7.66699V8.16406H4.33366V9.83073H7.66699V13.1641H9.33366V9.83073H12.667V8.16406Z" fill="white"/>
</svg>
