<svg width="20" height="16" viewBox="0 0 20 16" fill="none" xmlns="http://www.w3.org/2000/svg">
<path d="M0.75 2.75V6.922C0.750113 7.45239 0.960901 7.96101 1.336 8.336L7.046 14.046C7.49795 14.4979 8.11089 14.7517 8.75 14.7517C9.38911 14.7517 10.002 14.4979 10.454 14.046L14.046 10.454C14.4979 10.002 14.7517 9.38911 14.7517 8.75C14.7517 8.11089 14.4979 7.49795 14.046 7.046L8.336 1.336C7.96101 0.960901 7.45239 0.750113 6.922 0.75H2.75C2.21957 0.75 1.71086 0.960714 1.33579 1.33579C0.960714 1.71086 0.75 2.21957 0.75 2.75Z" stroke="black" stroke-width="1.5" stroke-linecap="round" stroke-linejoin="round"/>
<path d="M15.7502 13.75L17.3422 12.158C18.246 11.2541 18.7537 10.0282 18.7537 8.75C18.7537 7.47178 18.246 6.2459 17.3422 5.342L12.7502 0.75M4.75023 4.75H4.74023" stroke="black" stroke-width="1.5" stroke-linecap="round" stroke-linejoin="round"/>
</svg>
