<svg width="14" height="14" viewBox="0 0 14 14" fill="none" xmlns="http://www.w3.org/2000/svg">
<path fill-rule="evenodd" clip-rule="evenodd" d="M11.9875 3.66561C12.2587 3.90536 12.2841 4.32011 12.0444 4.59311L7.0131 10.2806C6.955 10.3463 6.88432 10.3997 6.80523 10.4376C6.72614 10.4755 6.64026 10.4972 6.55265 10.5014C6.46505 10.5055 6.37749 10.4921 6.29517 10.4618C6.21285 10.4316 6.13742 10.3851 6.07335 10.3252L2.79211 7.26273C2.66588 7.14377 2.59188 6.97968 2.58628 6.80632C2.58068 6.63296 2.64395 6.46443 2.76224 6.33758C2.88054 6.21073 3.04424 6.13586 3.21757 6.12936C3.3909 6.12285 3.55976 6.18523 3.68723 6.30286L6.47848 8.90161L11.0635 3.72161C11.1206 3.65694 11.19 3.60419 11.2676 3.56636C11.3452 3.52854 11.4295 3.50639 11.5156 3.50119C11.6018 3.49599 11.6881 3.50784 11.7697 3.53605C11.8512 3.56426 11.9264 3.60829 11.991 3.66561H11.9875Z" fill="white"/>
</svg>
