<svg width="24" height="24" viewBox="0 0 24 24" fill="none" xmlns="http://www.w3.org/2000/svg">
<path opacity="0.5" d="M17 9C19.175 9.01211 20.3529 9.10856 21.1213 9.87695C22 10.7556 22 12.1699 22 14.9983V15.9983C22 18.8266 22 20.2409 21.1213 21.1195C20.2426 21.9982 18.8284 21.9983 16 21.9983H8C5.17157 21.9983 3.75736 21.9982 2.87868 21.1195C2 20.2409 2 18.8266 2 15.9983V14.9983C2 12.1699 2 10.7556 2.87868 9.87694C3.64706 9.10856 4.82497 9.01211 7 9" stroke="#6A6A6A" stroke-width="2" stroke-linecap="round"/>
<path d="M12 15V2M12 2L15 5.5M12 2L9 5.5" stroke="#6A6A6A" stroke-width="2" stroke-linecap="round" stroke-linejoin="round"/>
</svg>
