<svg width="16" height="16" viewBox="0 0 16 16" fill="none" xmlns="http://www.w3.org/2000/svg">
<path d="M1.33333 3.33464C1.33333 3.15782 1.40357 2.98826 1.52859 2.86323C1.65361 2.73821 1.82318 2.66797 1.99999 2.66797H14C14.1768 2.66797 14.3464 2.73821 14.4714 2.86323C14.5964 2.98826 14.6667 3.15782 14.6667 3.33464V12.668C14.6667 12.8448 14.5964 13.0143 14.4714 13.1394C14.3464 13.2644 14.1768 13.3346 14 13.3346H1.99999C1.82318 13.3346 1.65361 13.2644 1.52859 13.1394C1.40357 13.0143 1.33333 12.8448 1.33333 12.668V3.33464Z" stroke="#660000" stroke-linejoin="round"/>
<path d="M12 2.66797V13.3346M3.99999 2.66797V13.3346M12.6667 6.0013H14.6667M12.6667 10.0013H14.6667M1.33333 6.0013H3.33333M1.33333 5.33464V6.66797M2.99999 2.66797H4.99999M2.99999 13.3346H4.99999M11 2.66797H13M11 13.3346H13M1.33333 10.0013H3.33333M1.33333 9.33464V10.668M14.6667 9.33464V10.668M14.6667 5.33464V6.66797" stroke="#660000" stroke-linecap="round" stroke-linejoin="round"/>
<path d="M7 6.33594L9.66667 8.0026L7 9.66927V6.33594Z" stroke="#660000" stroke-linejoin="round"/>
</svg>
