<svg width="14" height="16" viewBox="0 0 14 16" fill="none" xmlns="http://www.w3.org/2000/svg">
<path d="M2.83399 15.5C2.37565 15.5 1.98343 15.3369 1.65732 15.0108C1.33121 14.6847 1.16788 14.2922 1.16732 13.8333V3C0.931209 3 0.733432 2.92 0.573987 2.76C0.414543 2.6 0.334543 2.40222 0.333987 2.16667C0.333432 1.93111 0.413432 1.73333 0.573987 1.57333C0.734543 1.41333 0.932321 1.33333 1.16732 1.33333H4.50065C4.50065 1.09722 4.58065 0.899445 4.74065 0.74C4.90065 0.580556 5.09843 0.500556 5.33399 0.5H8.66732C8.90343 0.5 9.10149 0.58 9.26149 0.74C9.42149 0.9 9.50121 1.09778 9.50065 1.33333H12.834C13.0701 1.33333 13.2682 1.41333 13.4282 1.57333C13.5882 1.73333 13.6679 1.93111 13.6673 2.16667C13.6668 2.40222 13.5868 2.60028 13.4273 2.76083C13.2679 2.92139 13.0701 3.00111 12.834 3V13.8333C12.834 14.2917 12.6709 14.6842 12.3448 15.0108C12.0187 15.3375 11.6262 15.5006 11.1673 15.5H2.83399ZM11.1673 3H2.83399V13.8333H11.1673V3ZM5.33399 12.1667C5.5701 12.1667 5.76815 12.0867 5.92815 11.9267C6.08815 11.7667 6.16788 11.5689 6.16732 11.3333V5.5C6.16732 5.26389 6.08732 5.06611 5.92732 4.90667C5.76732 4.74722 5.56954 4.66722 5.33399 4.66667C5.09843 4.66611 4.90065 4.74611 4.74065 4.90667C4.58065 5.06722 4.50065 5.265 4.50065 5.5V11.3333C4.50065 11.5694 4.58065 11.7675 4.74065 11.9275C4.90065 12.0875 5.09843 12.1672 5.33399 12.1667ZM8.66732 12.1667C8.90343 12.1667 9.10149 12.0867 9.26149 11.9267C9.42149 11.7667 9.50121 11.5689 9.50065 11.3333V5.5C9.50065 5.26389 9.42065 5.06611 9.26065 4.90667C9.10065 4.74722 8.90288 4.66722 8.66732 4.66667C8.43177 4.66611 8.23399 4.74611 8.07399 4.90667C7.91399 5.06722 7.83399 5.265 7.83399 5.5V11.3333C7.83399 11.5694 7.91399 11.7675 8.07399 11.9275C8.23399 12.0875 8.43177 12.1672 8.66732 12.1667Z" fill="#660000"/>
</svg>
