<svg width="18" height="12" viewBox="0 0 18 12" fill="none" xmlns="http://www.w3.org/2000/svg">
<path d="M1.49935 2.66927C1.49935 3.12951 1.87244 3.5026 2.33268 3.5026C2.79292 3.5026 3.16602 3.12951 3.16602 2.66927C3.16602 2.20903 2.79292 1.83594 2.33268 1.83594C1.87244 1.83594 1.49935 2.20903 1.49935 2.66927Z" stroke="#660000" stroke-width="2"/>
<path d="M8.16536 2.66927C8.16536 3.12951 8.53846 3.5026 8.9987 3.5026C9.45894 3.5026 9.83203 3.12951 9.83203 2.66927C9.83203 2.20903 9.45894 1.83594 8.9987 1.83594C8.53846 1.83594 8.16536 2.20903 8.16536 2.66927Z" stroke="#660000" stroke-width="2"/>
<path d="M14.8333 2.66927C14.8333 3.12951 15.2064 3.5026 15.6667 3.5026C16.1269 3.5026 16.5 3.12951 16.5 2.66927C16.5 2.20903 16.1269 1.83594 15.6667 1.83594C15.2064 1.83594 14.8333 2.20903 14.8333 2.66927Z" stroke="#660000" stroke-width="2"/>
<path d="M1.49935 9.33333C1.49935 9.79357 1.87244 10.1667 2.33268 10.1667C2.79292 10.1667 3.16602 9.79357 3.16602 9.33333C3.16602 8.8731 2.79292 8.5 2.33268 8.5C1.87244 8.5 1.49935 8.8731 1.49935 9.33333Z" stroke="#660000" stroke-width="2"/>
<path d="M8.16536 9.33333C8.16536 9.79357 8.53846 10.1667 8.9987 10.1667C9.45894 10.1667 9.83203 9.79357 9.83203 9.33333C9.83203 8.8731 9.45894 8.5 8.9987 8.5C8.53846 8.5 8.16536 8.8731 8.16536 9.33333Z" stroke="#660000" stroke-width="2"/>
<path d="M14.8333 9.33333C14.8333 9.79357 15.2064 10.1667 15.6667 10.1667C16.1269 10.1667 16.5 9.79357 16.5 9.33333C16.5 8.8731 16.1269 8.5 15.6667 8.5C15.2064 8.5 14.8333 8.8731 14.8333 9.33333Z" stroke="#660000" stroke-width="2"/>
</svg>
