<svg width="10" height="10" viewBox="0 0 10 10" fill="none" xmlns="http://www.w3.org/2000/svg">
<path fill-rule="evenodd" clip-rule="evenodd" d="M0.218022 9.76503C0.0773703 9.62437 -0.00164759 9.43361 -0.00164725 9.2347C-0.00164692 9.03578 0.07737 8.84502 0.218022 8.70437L7.42344 1.49895L3.57678 1.49895C3.38257 1.49209 3.1986 1.41012 3.06363 1.27031C2.92867 1.13049 2.85324 0.943747 2.85324 0.749415C2.85324 0.555084 2.92867 0.368339 3.06363 0.228523C3.1986 0.0887077 3.38257 0.00673754 3.57678 -0.000117991L9.23363 -0.000118001C9.43238 5.75248e-06 9.62296 0.0790141 9.7635 0.219552C9.90404 0.36009 9.98304 0.550664 9.98317 0.749415L9.98317 6.40627C9.97631 6.60048 9.89434 6.78445 9.75453 6.91942C9.61471 7.05438 9.42796 7.12981 9.23363 7.12981C9.0393 7.12981 8.85256 7.05438 8.71274 6.91941C8.57293 6.78445 8.49096 6.60048 8.4841 6.40627V2.55961L1.27868 9.76503C1.13803 9.90568 0.947265 9.9847 0.748353 9.9847C0.54944 9.9847 0.358675 9.90568 0.218022 9.76503Z" fill="white"/>
</svg>
