<svg width="19" height="15" viewBox="0 0 19 15" fill="none" xmlns="http://www.w3.org/2000/svg">
<path d="M3.21106 12.055H15.6556C16.3922 12.055 16.9917 11.4559 16.9917 10.719V2.27352C16.9917 1.5366 16.3922 0.9375 15.6556 0.9375H3.21106C2.47444 0.9375 1.875 1.5366 1.875 2.27352V10.719C1.87504 11.4559 2.47448 12.055 3.21106 12.055ZM3.11314 2.27352C3.11314 2.21973 3.15696 2.1756 3.21106 2.1756H15.6556C15.7097 2.1756 15.7535 2.21973 15.7535 2.27352V10.719C15.7535 10.7728 15.7097 10.8169 15.6556 10.8169H3.21106C3.15696 10.8169 3.11314 10.7728 3.11314 10.719V2.27352Z" fill="#020202"/>
<path d="M17.9478 12.5625H0.91937C0.650957 12.5625 0.433594 12.7801 0.433594 13.0485C0.433594 13.751 1.00306 14.3205 1.70586 14.3205H17.1613C17.8641 14.3205 18.4336 13.751 18.4336 13.0485C18.4336 12.7801 18.2162 12.5625 17.9478 12.5625Z" fill="#020202"/>
<path d="M8.51148 7.83352C8.53358 7.89754 8.59072 7.94288 8.65813 7.95011C8.72523 7.95681 8.79051 7.92474 8.82558 7.86673L9.23756 7.1866L10.5161 8.46526C10.5488 8.49786 10.5932 8.516 10.6395 8.516C10.6857 8.516 10.7302 8.49786 10.7629 8.46526L11.4018 7.82564C11.4699 7.75729 11.4699 7.64727 11.4018 7.57899L10.1235 6.30098L10.8043 5.8887C10.862 5.85359 10.8946 5.78828 10.8873 5.72117C10.8804 5.65354 10.8351 5.59674 10.7713 5.5743L7.6461 4.48615C7.58265 4.46443 7.5125 4.48014 7.46533 4.52788C7.41786 4.57505 7.40188 4.6452 7.4236 4.70865L8.51148 7.83352Z" fill="#020202"/>
</svg>
