<svg width="18" height="18" viewBox="0 0 18 18" fill="none" xmlns="http://www.w3.org/2000/svg">
<path d="M9.51827 12.7551C9.38801 12.8846 9.20394 12.9583 9.01089 12.9583C8.81784 12.9583 8.63378 12.8846 8.50352 12.7551L4.83685 9.10925C4.58064 8.8545 4.60011 8.45917 4.88034 8.22625C5.16057 7.99333 5.59542 8.011 5.85163 8.26575L8.3234 10.7235V1.5C8.3234 1.15483 8.63121 0.875 9.01089 0.875C9.39057 0.875 9.69839 1.15483 9.69839 1.5V10.7235L12.1702 8.26575C12.4264 8.011 12.8612 7.99333 13.1415 8.22625C13.4217 8.45917 13.4411 8.8545 13.1849 9.10925L9.51827 12.7551Z" fill="white"/>
<path d="M1.44824 11.5C1.44824 11.1548 1.14044 10.875 0.76074 10.875C0.381049 10.875 0.0732427 11.1548 0.0732427 11.5V11.5458C0.0732243 12.6854 0.0732059 13.604 0.180052 14.3265C0.290987 15.0766 0.528302 15.7081 1.08006 16.2097C1.63182 16.7113 2.32653 16.9271 3.15163 17.0279C3.94635 17.125 4.9568 17.125 6.21042 17.125H11.811C13.0647 17.125 14.0751 17.125 14.8698 17.0279C15.6949 16.9271 16.3896 16.7113 16.9414 16.2097C17.4931 15.7081 17.7305 15.0766 17.8414 14.3265C17.9482 13.604 17.9482 12.6854 17.9482 11.5458V11.5C17.9482 11.1548 17.6404 10.875 17.2607 10.875C16.881 10.875 16.5732 11.1548 16.5732 11.5C16.5732 12.6962 16.5717 13.5304 16.4787 14.1599C16.3882 14.7714 16.2228 15.0952 15.9691 15.3258C15.7154 15.5565 15.3592 15.7068 14.6866 15.7891C13.9941 15.8737 13.0765 15.875 11.7607 15.875H6.26072C4.94493 15.875 4.02724 15.8737 3.33484 15.7891C2.66222 15.7068 2.30602 15.5565 2.05233 15.3258C1.79863 15.0952 1.63322 14.7714 1.54279 14.1599C1.44969 13.5304 1.44824 12.6962 1.44824 11.5Z" fill="white"/>
</svg>
