<svg width="18" height="16" viewBox="0 0 18 16" fill="none" xmlns="http://www.w3.org/2000/svg">
<path d="M11.33 3.16673C10.5585 3.05336 9.77977 2.99654 9 2.99673C4.03 2.99673 0 5.23573 0 7.99673C0 9.43673 1.096 10.7347 2.85 11.6467L5.212 9.28473C4.97108 8.57736 4.93314 7.81664 5.10246 7.08881C5.27178 6.36097 5.64159 5.69512 6.16999 5.16672C6.69839 4.63832 7.36425 4.2685 8.09208 4.09918C8.81992 3.92986 9.58063 3.96781 10.288 4.20873L11.33 3.16673ZM8.23 11.9227C8.48 11.9721 8.73667 11.9967 9 11.9967C9.59063 11.9968 10.174 11.8662 10.7081 11.6141C11.2422 11.362 11.7139 10.9947 12.0892 10.5387C12.4646 10.0827 12.7343 9.54917 12.879 8.97653C13.0236 8.40389 13.0397 7.80631 12.926 7.22673L15.573 4.58073C17.078 5.47473 18 6.67673 18 7.99673C18 10.7577 13.97 12.9967 9 12.9967C8.40067 12.9967 7.81767 12.9654 7.251 12.9027L8.23 11.9227ZM14.793 1.20373C14.8852 1.10822 14.9956 1.03203 15.1176 0.979624C15.2396 0.927215 15.3708 0.899629 15.5036 0.898475C15.6364 0.897321 15.7681 0.922623 15.891 0.972904C16.0138 1.02318 16.1255 1.09744 16.2194 1.19133C16.3133 1.28522 16.3875 1.39688 16.4378 1.51977C16.4881 1.64267 16.5134 1.77435 16.5123 1.90713C16.5111 2.03991 16.4835 2.17113 16.4311 2.29313C16.3787 2.41513 16.3025 2.52548 16.207 2.61773L3.48 15.3467C3.38775 15.4422 3.27741 15.5184 3.1554 15.5708C3.0334 15.6232 2.90218 15.6508 2.7694 15.652C2.63662 15.6531 2.50494 15.6278 2.38205 15.5775C2.25915 15.5273 2.1475 15.453 2.05361 15.3591C1.95971 15.2652 1.88546 15.1536 1.83518 15.0307C1.7849 14.9078 1.7596 14.7761 1.76075 14.6433C1.7619 14.5105 1.78949 14.3793 1.8419 14.2573C1.89431 14.1353 1.97049 14.025 2.066 13.9327L14.793 1.20373Z" fill="black"/>
</svg>
