<svg width="12" height="16" viewBox="0 0 12 16" fill="none" xmlns="http://www.w3.org/2000/svg">
<path fill-rule="evenodd" clip-rule="evenodd" d="M2.964 11.9793C2.90198 12.1672 2.76819 12.323 2.59179 12.4127C2.4154 12.5025 2.21068 12.5188 2.02227 12.4583C1.83386 12.3977 1.67702 12.2651 1.58593 12.0894C1.49485 11.9137 1.4769 11.7091 1.536 11.5203L4.79625 1.37727C4.87822 1.12246 5.03893 0.900236 5.25525 0.742587C5.47157 0.584939 5.73233 0.5 6 0.5C6.26767 0.5 6.52843 0.584939 6.74475 0.742587C6.96107 0.900236 7.12178 1.12246 7.20375 1.37727L10.464 11.5203C10.495 11.6143 10.5071 11.7135 10.4996 11.8122C10.4921 11.9109 10.4651 12.0071 10.4203 12.0953C10.3754 12.1835 10.3135 12.262 10.2382 12.3262C10.1628 12.3904 10.0755 12.439 9.98129 12.4693C9.88705 12.4996 9.78776 12.5109 9.68912 12.5027C9.59049 12.4944 9.49447 12.4667 9.40659 12.4211C9.31872 12.3756 9.24073 12.3131 9.17713 12.2373C9.11352 12.1614 9.06556 12.0737 9.036 11.9793L7.998 8.74977H4.002L2.964 11.9793ZM4.48425 7.24977H7.51575L6 2.53377L4.48425 7.24977ZM0 14.7498C0 14.5509 0.0790178 14.3601 0.21967 14.2194C0.360322 14.0788 0.551088 13.9998 0.75 13.9998H11.25C11.4489 13.9998 11.6397 14.0788 11.7803 14.2194C11.921 14.3601 12 14.5509 12 14.7498C12 14.9487 11.921 15.1394 11.7803 15.2801C11.6397 15.4208 11.4489 15.4998 11.25 15.4998H0.75C0.551088 15.4998 0.360322 15.4208 0.21967 15.2801C0.0790178 15.1394 0 14.9487 0 14.7498Z" fill="#000606"/>
</svg>
