<svg width="20" height="9" viewBox="0 0 20 9" fill="none" xmlns="http://www.w3.org/2000/svg">
<path d="M4.29961 6.07446C4.29961 6.25599 4.29726 6.44135 4.29255 6.63055C4.28784 6.82046 4.28549 7.01071 4.28549 7.20131C4.28549 7.62021 3.95756 7.96161 3.55296 7.96161H3.06259C2.86848 7.96134 2.68242 7.88111 2.54526 7.73855C2.4081 7.596 2.33107 7.40277 2.33107 7.20131C2.33107 7.01071 2.32871 6.82046 2.324 6.63055C2.31983 6.44522 2.31781 6.25984 2.31795 6.07446V4.49939C2.31795 4.31926 2.32636 4.0934 2.34317 3.82182C2.36537 3.54534 2.38521 3.26468 2.4027 2.97982C2.42423 2.69497 2.43297 2.44607 2.42894 2.23313L2.37647 0.210883C2.54276 0.177248 2.71092 0.154511 2.87996 0.142811C3.18242 0.125125 3.48559 0.125125 3.78805 0.142811C4.08672 0.159567 4.2986 0.434996 4.2986 0.744983L4.29961 6.07446ZM1.01635 7.10601C1.1122 7.10601 1.91435 7.10182 2.10606 7.10601C2.01021 7.10601 2.29777 7.1102 2.10606 7.10601H4.28549C4.38639 7.10601 4.62552 7.1102 4.83034 7.10601C4.73449 7.10601 5.03921 7.10182 4.83034 7.10601H5.11791C5.5881 7.10601 5.97959 7.44636 5.97959 7.93334C5.97959 8.4444 5.63048 8.80256 5.1391 8.80256H0.846835C0.728345 8.80504 0.612937 8.76327 0.521635 8.68484C0.430332 8.60641 0.36921 8.49656 0.349401 8.37528C0.323963 8.15359 0.317548 7.93 0.33023 7.70713C0.353437 7.34792 0.669252 7.10601 1.01635 7.10601ZM0.120359 3.69929C-0.158123 3.30133 0.0840354 2.79551 0.465435 2.50332C0.828673 2.22406 1.14079 1.94165 1.40178 1.65609C1.81143 1.20787 2.10606 0.491548 2.37647 0.210883C2.47031 0.247537 2.5813 0.44861 2.68623 0.696809C2.98792 1.40894 2.96976 2.26141 2.47434 2.84368C2.13904 3.23352 1.74721 3.56671 1.31299 3.83124C0.917465 4.07839 0.399851 4.08049 0.120359 3.69929ZM7.73524 2.74943C7.26707 2.57035 7.15608 1.98493 7.40126 1.53461C7.47472 1.39707 7.55803 1.26544 7.65048 1.14084C7.91493 0.7799 8.25749 0.488596 8.65047 0.290477C9.04345 0.0923584 9.47582 -0.00701637 9.91265 0.000385127C10.471 0.000385127 10.9573 0.113489 11.3717 0.339696C11.7853 0.561714 12.1055 0.87589 12.3322 1.28222C12.5643 1.68577 12.68 2.16122 12.6793 2.70859C12.6793 3.08839 12.6073 3.43224 12.4634 3.74013C12.3194 4.04802 12.1297 4.33288 11.8943 4.59469C11.6589 4.8565 11.3996 5.11238 11.1164 5.36233L10.181 6.12159L9.69067 6.54991C9.51578 6.70421 9.36544 6.85327 9.23965 6.99709C9.11353 7.14266 9.19424 7.00233 9.1892 7.10601L9.08124 7.948C9.05091 8.18454 8.93883 8.4016 8.76585 8.55879C8.59287 8.71599 8.37077 8.80261 8.14085 8.80256C8.00377 8.80489 7.86802 8.77424 7.74426 8.71301C7.6205 8.65178 7.51208 8.56163 7.4275 8.44964C7.35547 8.35198 7.28583 8.25246 7.21863 8.15117C7.08249 7.9429 7.00972 7.697 7.00977 7.44532C7.00977 7.19677 7.07737 6.94543 7.21258 6.69129C7.35182 6.43856 7.53479 6.18547 7.76147 5.93203C7.99354 5.67441 8.24243 5.42097 8.50813 5.17173L9.92577 3.90245C10.1175 3.73071 10.2789 3.5429 10.4101 3.33903C10.5413 3.13586 10.6065 2.90547 10.6058 2.64784C10.6127 2.40682 10.5283 2.17259 10.3707 1.9954C10.214 1.81388 9.99202 1.72347 9.70479 1.72417C9.5581 1.7199 9.41256 1.75219 9.28036 1.81834C9.14817 1.88448 9.03318 1.98255 8.94502 2.10432L8.91072 2.1504C8.61508 2.55254 8.19635 2.91489 7.73524 2.74943ZM11.6501 7.11229C12.3968 7.10915 13.0647 7.80871 12.6006 8.41612C12.4055 8.67444 12.0763 8.80361 11.6128 8.80361H8.33155C8.18317 8.80374 8.03794 8.75919 7.91347 8.67535C7.789 8.59152 7.69063 8.472 7.6303 8.33129C7.44667 7.9082 7.65048 7.41285 8.08839 7.31755C8.21552 7.29032 8.34871 7.26519 8.48795 7.24215C9.40815 7.07982 10.3495 7.10391 11.2829 7.11124L11.6128 7.11334H11.6511L11.6501 7.11229ZM17.914 6.06085C17.914 5.70338 17.8006 5.4297 17.5739 5.2398C17.3454 5.04135 17.0544 4.93732 16.7567 4.94762C16.6349 4.94762 16.5148 4.96158 16.3964 4.98951C16.1724 5.04082 15.9242 5.04291 15.7628 4.87326C15.6911 4.79488 15.6253 4.71084 15.566 4.62192C15.4228 4.3999 15.2977 4.31821 15.2977 3.97681C15.9757 3.82077 16.0806 3.8082 16.3773 3.74013C16.6739 3.66682 16.8545 3.6176 17.3641 3.6176C17.8652 3.6176 18.3142 3.715 18.7111 3.90979C19.1079 4.09899 19.4221 4.38175 19.6535 4.75806C19.8842 5.12879 19.9996 5.58784 19.9996 6.1352C20.007 6.55762 19.9196 6.97604 19.7443 7.35735C19.582 7.70466 19.3477 8.01043 19.0582 8.25275C18.7662 8.49711 18.4306 8.68282 18.0512 8.80989C17.6718 8.93556 17.2706 8.99874 16.8475 8.99944C16.2933 9.00819 15.7421 8.91384 15.22 8.72087C15.0411 8.64992 14.8662 8.56845 14.6963 8.47686C14.2654 8.23914 14.0889 7.69247 14.3563 7.26938C14.6236 6.85676 15.1675 6.87666 15.6024 7.08611L15.6579 7.11229C15.9458 7.23936 16.2552 7.30289 16.5861 7.30289C16.8572 7.30289 17.0906 7.25297 17.2864 7.15313C17.4862 7.04911 17.6409 6.90458 17.7505 6.71957C17.8595 6.53316 17.914 6.31358 17.914 6.06085ZM18.254 3.3118C18.0677 3.50728 17.859 3.67822 17.6325 3.82077C17.4126 3.96399 17.1833 4.09101 16.9463 4.20092C16.6437 4.33707 16.7799 3.83753 16.4519 3.8679L15.2977 3.97681C15.4894 3.6176 16.5084 2.74838 16.5084 2.74838C16.5912 2.66251 16.687 2.56546 16.796 2.45724C16.9823 2.27881 17.1721 2.10424 17.3651 1.93362C17.3747 1.92646 17.3815 1.91605 17.3845 1.90419C17.3874 1.89232 17.3863 1.87976 17.3812 1.86869C17.3756 1.85665 17.3663 1.8468 17.3549 1.84058C17.3435 1.83436 17.3304 1.8321 17.3177 1.83413C17.1672 1.85536 17.0154 1.86481 16.8636 1.8624C16.8333 1.8631 16.8031 1.86485 16.7728 1.86764C16.6578 1.87707 16.5569 1.84669 16.4176 1.8624C16.2663 1.87602 16.1412 1.8624 15.9797 1.8624H15.0686C14.8103 1.8624 14.3946 1.79538 14.3694 1.52728C14.3582 1.41451 14.3515 1.30131 14.3492 1.18797C14.3492 1.05672 14.3603 0.903119 14.3825 0.72718C14.4229 0.400437 14.7296 0.210883 15.0454 0.210883H18.4649C18.9472 0.210883 19.4285 0.470602 19.5677 0.950244C19.6242 1.14015 19.6528 1.30771 19.6535 1.45293C19.6535 1.75174 19.5223 2.04358 19.26 2.32843L18.254 3.3118Z" fill="#000606"/>
</svg>
