<svg width="14" height="14" viewBox="0 0 14 14" fill="none" xmlns="http://www.w3.org/2000/svg">
<path d="M1.75 0.25H0.25V1.75H1.75V0.25ZM4.75 0.25H3.25V1.75H4.75V0.25ZM3.25 12.25H4.75V13.75H3.25V12.25ZM1.75 3.25H0.25V4.75H1.75V3.25ZM12.25 3.25H13.75V4.75H12.25V3.25ZM1.75 6.25H0.25V7.75H1.75V6.25ZM12.25 6.25H13.75V7.75H12.25V6.25ZM1.75 9.25H0.25V10.75H1.75V9.25ZM12.25 9.25H13.75V10.75H12.25V9.25ZM1.75 12.25H0.25V13.75H1.75V12.25ZM6.25 0.25H7.75V1.75H6.25V0.25ZM7.75 12.25H6.25V13.75H7.75V12.25ZM9.25 0.25H10.75V1.75H9.25V0.25ZM10.75 12.25H9.25V13.75H10.75V12.25ZM12.25 0.25H13.75V1.75H12.25V0.25ZM13.75 12.25H12.25V13.75H13.75V12.25Z" fill="#000606"/>
</svg>
