<svg width="12" height="16" viewBox="0 0 12 16" fill="none" xmlns="http://www.w3.org/2000/svg">
<path d="M11.4507 1.24594H11.4498V0.522337C11.4498 0.481444 11.4417 0.440951 11.4261 0.40317C11.4104 0.365389 11.3875 0.331061 11.3586 0.302144C11.3297 0.273228 11.2953 0.250291 11.2575 0.234641C11.2198 0.218992 11.1793 0.210938 11.1384 0.210938H5.22178L0.550781 4.88194V15.4694C0.550781 15.6414 0.690101 15.7808 0.862181 15.7808H11.1384C11.1793 15.7808 11.2198 15.7727 11.2575 15.7571C11.2953 15.7414 11.3297 15.7185 11.3586 15.6896C11.3875 15.6606 11.4104 15.6263 11.4261 15.5885C11.4417 15.5507 11.4498 15.5103 11.4498 15.4694V15.0287H11.4507V1.24594ZM2.34304 13.9889V5.50474H5.53318C5.61577 5.50474 5.69498 5.47193 5.75337 5.41353C5.81177 5.35513 5.84458 5.27593 5.84458 5.19334V2.0032H9.65842V13.9889H2.34304Z" fill="#000606"/>
</svg>
