<svg width="18" height="18" viewBox="0 0 18 18" fill="none" xmlns="http://www.w3.org/2000/svg">
<path d="M5.62417 3.93863C5.62402 4.38633 5.44603 4.81563 5.12935 5.1321C4.81267 5.44857 4.38325 5.62627 3.93555 5.62613C3.48785 5.62598 3.05854 5.44798 2.74207 5.13131C2.4256 4.81463 2.2479 4.3852 2.24805 3.9375C2.2482 3.4898 2.42619 3.06049 2.74287 2.74402C2.89967 2.58733 3.0858 2.46305 3.29064 2.37828C3.49547 2.29352 3.71499 2.24993 3.93667 2.25C4.15835 2.25007 4.37785 2.29381 4.58262 2.37871C4.7874 2.46361 4.97345 2.58802 5.13015 2.74482C5.28685 2.90162 5.41113 3.08776 5.49589 3.29259C5.58066 3.49742 5.62425 3.71695 5.62417 3.93863Z" fill="#000606"/>
<path d="M3.9375 0C1.8 0 0 1.8 0 3.9375C0 6.075 1.8 7.875 3.9375 7.875C6.075 7.875 7.875 6.075 7.875 3.9375C7.875 1.8 6.075 0 3.9375 0ZM3.9375 6.75C2.3625 6.75 1.125 5.5125 1.125 3.9375C1.125 2.3625 2.3625 1.125 3.9375 1.125C5.5125 1.125 6.75 2.3625 6.75 3.9375C6.75 5.5125 5.5125 6.75 3.9375 6.75ZM3.9375 9C1.8 9 0 10.8 0 12.9375C0 15.075 1.8 16.875 3.9375 16.875C6.075 16.875 7.875 15.075 7.875 12.9375C7.875 10.8 6.075 9 3.9375 9ZM3.9375 15.75C2.3625 15.75 1.125 14.5125 1.125 12.9375C1.125 11.3625 2.3625 10.125 3.9375 10.125C5.5125 10.125 6.75 11.3625 6.75 12.9375C6.75 14.5125 5.5125 15.75 3.9375 15.75ZM9 2.25H18V5.625H9V2.25ZM9 11.25H18V14.625H9V11.25Z" fill="#000606"/>
</svg>
