<svg width="23" height="27" viewBox="0 0 23 27" fill="none" xmlns="http://www.w3.org/2000/svg">
<path d="M1.51123 0.200195H15.4907C15.8349 0.200195 16.165 0.336988 16.4087 0.580078L21.4292 5.58691C21.6737 5.8308 21.811 6.16246 21.811 6.50781V25.5C21.811 26.2179 21.2292 26.7998 20.5112 26.7998H1.51123C0.793261 26.7998 0.211426 26.218 0.211426 25.5V1.5C0.211426 0.78203 0.793261 0.200195 1.51123 0.200195Z" fill="white" stroke="#6A6A6A" stroke-width="0.4"/>
<mask id="path-2-inside-1_7029_25920" fill="white">
<path d="M15.5112 0.000976562C15.901 0.00622649 16.2739 0.161906 16.5503 0.4375L21.5708 5.44531C21.8511 5.72497 22.0093 6.10424 22.0112 6.5H17.0112C16.1828 6.5 15.5113 5.82836 15.5112 5V0.000976562Z"/>
</mask>
<path d="M15.5112 0.000976562C15.901 0.00622649 16.2739 0.161906 16.5503 0.4375L21.5708 5.44531C21.8511 5.72497 22.0093 6.10424 22.0112 6.5H17.0112C16.1828 6.5 15.5113 5.82836 15.5112 5V0.000976562Z" fill="white"/>
<path d="M15.5112 0.000976562L15.5166 -0.398987L15.1112 -0.404448V0.000976562H15.5112ZM16.5503 0.4375L16.8328 0.154299L16.8327 0.154246L16.5503 0.4375ZM21.5708 5.44531L21.8533 5.16213L21.8533 5.16211L21.5708 5.44531ZM22.0112 6.5V6.9H22.4132L22.4112 6.49802L22.0112 6.5ZM17.0112 6.5L17.0112 6.9H17.0112V6.5ZM15.5112 5H15.1112V5.00004L15.5112 5ZM15.5112 0.000976562L15.5058 0.40094C15.7925 0.404801 16.0658 0.519244 16.2679 0.720754L16.5503 0.4375L16.8327 0.154246C16.482 -0.195432 16.0095 -0.392348 15.5166 -0.398987L15.5112 0.000976562ZM16.5503 0.4375L16.2678 0.720701L21.2883 5.72851L21.5708 5.44531L21.8533 5.16211L16.8328 0.154299L16.5503 0.4375ZM21.5708 5.44531L21.2883 5.72849C21.4937 5.93346 21.6098 6.21159 21.6112 6.50198L22.0112 6.5L22.4112 6.49802C22.4087 5.99688 22.2085 5.51648 21.8533 5.16213L21.5708 5.44531ZM22.0112 6.5V6.1H17.0112V6.5V6.9H22.0112V6.5ZM17.0112 6.5L17.0112 6.1C16.4038 6.1 15.9113 5.60748 15.9112 4.99996L15.5112 5L15.1112 5.00004C15.1113 6.04925 15.9619 6.9 17.0112 6.9L17.0112 6.5ZM15.5112 5H15.9112V0.000976562H15.5112H15.1112V5H15.5112Z" fill="#6A6A6A" mask="url(#path-2-inside-1_7029_25920)"/>
<path d="M8.61133 9.1V9.9H15.9113V9.1H8.61133Z" fill="#660000"/>
<path d="M6.11133 18.1V18.9H13.4113V18.1H6.11133Z" fill="#660000"/>
<path d="M6.11133 12.1V12.9H15.9113V12.1H6.11133Z" fill="#660000"/>
<path d="M6.11133 15.1V15.9H15.9113V15.1H6.11133Z" fill="#660000"/>
</svg>
