<svg width="16" height="16" viewBox="0 0 16 16" fill="none" xmlns="http://www.w3.org/2000/svg">
<path d="M13.6836 1.625H12.1836V0.875C12.1836 0.676088 12.1046 0.485322 11.9639 0.34467C11.8233 0.204018 11.6325 0.125 11.4336 0.125C11.2347 0.125 11.0439 0.204018 10.9033 0.34467C10.7626 0.485322 10.6836 0.676088 10.6836 0.875V1.625H6.18359V0.875C6.18359 0.676088 6.10458 0.485322 5.96392 0.34467C5.82327 0.204018 5.63251 0.125 5.43359 0.125C5.23468 0.125 5.04392 0.204018 4.90326 0.34467C4.76261 0.485322 4.68359 0.676088 4.68359 0.875V1.625H3.18359C2.58686 1.625 2.01456 1.86205 1.5926 2.28401C1.17065 2.70597 0.933594 3.27826 0.933594 3.875V12.875C0.933594 13.4717 1.17065 14.044 1.5926 14.466C2.01456 14.8879 2.58686 15.125 3.18359 15.125H13.6836C14.2803 15.125 14.8526 14.8879 15.2746 14.466C15.6965 14.044 15.9336 13.4717 15.9336 12.875V3.875C15.9336 3.27826 15.6965 2.70597 15.2746 2.28401C14.8526 1.86205 14.2803 1.625 13.6836 1.625ZM14.4336 12.875C14.4336 13.0739 14.3546 13.2647 14.2139 13.4053C14.0733 13.546 13.8825 13.625 13.6836 13.625H3.18359C2.98468 13.625 2.79392 13.546 2.65326 13.4053C2.51261 13.2647 2.43359 13.0739 2.43359 12.875V7.625H14.4336V12.875ZM14.4336 6.125H2.43359V3.875C2.43359 3.67609 2.51261 3.48532 2.65326 3.34467C2.79392 3.20402 2.98468 3.125 3.18359 3.125H4.68359V3.875C4.68359 4.07391 4.76261 4.26468 4.90326 4.40533C5.04392 4.54598 5.23468 4.625 5.43359 4.625C5.63251 4.625 5.82327 4.54598 5.96392 4.40533C6.10458 4.26468 6.18359 4.07391 6.18359 3.875V3.125H10.6836V3.875C10.6836 4.07391 10.7626 4.26468 10.9033 4.40533C11.0439 4.54598 11.2347 4.625 11.4336 4.625C11.6325 4.625 11.8233 4.54598 11.9639 4.40533C12.1046 4.26468 12.1836 4.07391 12.1836 3.875V3.125H13.6836C13.8825 3.125 14.0733 3.20402 14.2139 3.34467C14.3546 3.48532 14.4336 3.67609 14.4336 3.875V6.125Z" fill="black"/>
</svg>
