<svg width="16" height="16" viewBox="0 0 16 16" fill="none" xmlns="http://www.w3.org/2000/svg">
<path d="M14.8555 13.625H14.1055V2.375C14.1055 2.17609 14.0265 1.98532 13.8858 1.84467C13.7451 1.70402 13.5544 1.625 13.3555 1.625C13.1566 1.625 12.9658 1.70402 12.8251 1.84467C12.6845 1.98532 12.6055 2.17609 12.6055 2.375V13.625H11.1055V5.375C11.1055 5.17609 11.0265 4.98532 10.8858 4.84467C10.7451 4.70402 10.5544 4.625 10.3555 4.625C10.1566 4.625 9.96579 4.70402 9.82514 4.84467C9.68449 4.98532 9.60547 5.17609 9.60547 5.375V13.625H8.10547V8.375C8.10547 8.17609 8.02645 7.98532 7.8858 7.84467C7.74515 7.70402 7.55438 7.625 7.35547 7.625C7.15656 7.625 6.96579 7.70402 6.82514 7.84467C6.68449 7.98532 6.60547 8.17609 6.60547 8.375V13.625H5.10547V11.375C5.10547 11.1761 5.02645 10.9853 4.8858 10.8447C4.74515 10.704 4.55438 10.625 4.35547 10.625C4.15656 10.625 3.96579 10.704 3.82514 10.8447C3.68449 10.9853 3.60547 11.1761 3.60547 11.375V13.625H2.10547V0.875C2.10547 0.676088 2.02645 0.485322 1.8858 0.34467C1.74515 0.204018 1.55438 0.125 1.35547 0.125C1.15656 0.125 0.965791 0.204018 0.825139 0.34467C0.684486 0.485322 0.605469 0.676088 0.605469 0.875V14.375C0.605469 14.5739 0.684486 14.7647 0.825139 14.9053C0.965791 15.046 1.15656 15.125 1.35547 15.125H14.8555C15.0544 15.125 15.2451 15.046 15.3858 14.9053C15.5265 14.7647 15.6055 14.5739 15.6055 14.375C15.6055 14.1761 15.5265 13.9853 15.3858 13.8447C15.2451 13.704 15.0544 13.625 14.8555 13.625Z" fill="black"/>
</svg>
