<svg width="18" height="17" viewBox="0 0 18 17" fill="none" xmlns="http://www.w3.org/2000/svg">
<path d="M11.7637 15.3727V13.8727C11.7637 13.0771 11.4476 12.314 10.885 11.7514C10.3224 11.1888 9.55932 10.8727 8.76367 10.8727H4.26367C3.46802 10.8727 2.70496 11.1888 2.14235 11.7514C1.57974 12.314 1.26367 13.0771 1.26367 13.8727V15.3727M11.7637 1.96875C12.407 2.13553 12.9767 2.5112 13.3834 3.0368C13.7901 3.5624 14.0108 4.20817 14.0108 4.87275C14.0108 5.53733 13.7901 6.1831 13.3834 6.7087C12.9767 7.2343 12.407 7.60997 11.7637 7.77675M16.2637 15.3727V13.8727C16.2632 13.208 16.0419 12.5623 15.6347 12.037C15.2275 11.5116 14.6573 11.1364 14.0137 10.9702" stroke="black" stroke-width="2" stroke-linecap="round" stroke-linejoin="round"/>
<path d="M6.51367 7.875C8.17053 7.875 9.51367 6.53185 9.51367 4.875C9.51367 3.21815 8.17053 1.875 6.51367 1.875C4.85682 1.875 3.51367 3.21815 3.51367 4.875C3.51367 6.53185 4.85682 7.875 6.51367 7.875Z" stroke="black" stroke-width="2" stroke-linecap="round" stroke-linejoin="round"/>
</svg>
