<svg width="14" height="17" viewBox="0 0 14 17" fill="none" xmlns="http://www.w3.org/2000/svg">
<path d="M6.27617 2.502C6.22667 2.66 6.20167 2.826 6.20117 3C6.20117 3.3105 6.45317 3.5625 6.76367 3.5625H10.1387C10.2879 3.5625 10.4309 3.50324 10.5364 3.39775C10.6419 3.29226 10.7012 3.14918 10.7012 3C10.7007 2.83122 10.6754 2.66344 10.6262 2.502M6.27617 2.502C6.38259 2.15746 6.59657 1.85607 6.88676 1.64201C7.17695 1.42795 7.52807 1.31247 7.88867 1.3125H9.01367C9.37427 1.31247 9.7254 1.42795 10.0156 1.64201C10.3058 1.85607 10.5198 2.15746 10.6262 2.502M6.27617 2.502C5.99467 2.5195 5.71367 2.5395 5.43317 2.562C4.58492 2.6325 3.95117 3.35475 3.95117 4.206V5.8125M10.6262 2.502C10.9082 2.5195 11.1892 2.5395 11.4692 2.562C12.3174 2.6325 12.9512 3.35475 12.9512 4.206V12C12.9512 12.4476 12.7734 12.8768 12.4569 13.1932C12.1404 13.5097 11.7112 13.6875 11.2637 13.6875H9.57617M3.95117 5.8125H1.41992C0.954172 5.8125 0.576172 6.1905 0.576172 6.65625V15.0938C0.576172 15.5595 0.954172 15.9375 1.41992 15.9375H8.73242C9.19817 15.9375 9.57617 15.5595 9.57617 15.0938V13.6875M3.95117 5.8125H8.73242C9.19817 5.8125 9.57617 6.1905 9.57617 6.65625V13.6875M3.38867 11.4375L4.51367 12.5625L6.76367 9.75" stroke="black" stroke-width="1.125" stroke-linecap="round" stroke-linejoin="round"/>
</svg>
