<svg width="19" height="19" viewBox="0 0 19 19" fill="none" xmlns="http://www.w3.org/2000/svg">
<path d="M15.5405 8.14062C15.87 9.53386 15.7385 10.9964 15.1659 12.3085C14.5933 13.6207 13.6104 14.7116 12.365 15.4176C11.1195 16.1235 9.67856 16.4064 8.25863 16.2236C6.8387 16.0409 5.51637 15.4024 4.49023 14.4041" stroke="black" stroke-width="1.5" stroke-linecap="round"/>
<path d="M2.6354 11.0786C2.5361 10.6165 2.48613 10.1451 2.48634 9.67238C2.48373 8.37369 2.86361 7.10298 3.57859 6.01882C4.29357 4.93465 5.31198 4.08504 6.50676 3.57599C7.70153 3.06694 9.01975 2.92101 10.2969 3.15639C11.5741 3.39177 12.7537 3.99805 13.6885 4.89957" stroke="black" stroke-width="1.5" stroke-linecap="round"/>
<path d="M10.7148 5.19531L13.7777 4.97031L13.5386 2.10156" stroke="black" stroke-width="1.5" stroke-linecap="round"/>
<path d="M7.39008 14.0547L4.33008 14.2797L4.56914 17.1484" stroke="black" stroke-width="1.5" stroke-linecap="round"/>
</svg>
