<svg width="16" height="17" viewBox="0 0 16 17" fill="none" xmlns="http://www.w3.org/2000/svg">
<path d="M15.0977 14.199L12.5047 1.87092C12.4712 1.7097 12.4061 1.5567 12.3132 1.4207C12.2204 1.2847 12.1016 1.16839 11.9637 1.07844C11.8257 0.988496 11.6714 0.926689 11.5095 0.896572C11.3476 0.866456 11.1814 0.868623 11.0203 0.902949L7.36328 1.68889C7.0398 1.75971 6.75738 1.9554 6.57742 2.23337C6.39747 2.51135 6.33455 2.84914 6.40234 3.17326L8.99531 15.5014C9.0531 15.7827 9.20596 16.0354 9.42819 16.2173C9.65043 16.3991 9.92849 16.4989 10.2156 16.4998C10.3044 16.4997 10.3929 16.4903 10.4797 16.4717L14.1367 15.6858C14.4606 15.6148 14.7433 15.4187 14.9233 15.1402C15.1033 14.8618 15.1659 14.5235 15.0977 14.199ZM7.625 2.91779V2.91076L11.2813 2.12951L11.5414 3.36936L7.88516 4.15607L7.625 2.91779ZM8.40625 6.61935L8.14453 5.37717L11.8023 4.59123L12.0633 5.83342L8.40625 6.61935ZM13.875 14.4639L10.2188 15.2451L9.95859 14.0053L13.6148 13.2186L13.875 14.4569V14.4639ZM5.125 1.49982H1.375C1.04348 1.49982 0.725537 1.63152 0.491117 1.86594C0.256696 2.10036 0.125 2.4183 0.125 2.74982V15.2498C0.125 15.5813 0.256696 15.8993 0.491117 16.1337C0.725537 16.3681 1.04348 16.4998 1.375 16.4998H5.125C5.45652 16.4998 5.77446 16.3681 6.00888 16.1337C6.2433 15.8993 6.375 15.5813 6.375 15.2498V2.74982C6.375 2.4183 6.2433 2.10036 6.00888 1.86594C5.77446 1.63152 5.45652 1.49982 5.125 1.49982ZM1.375 2.74982H5.125V3.99982H1.375V2.74982ZM5.125 15.2498H1.375V13.9998H5.125V15.2498Z" fill="white"/>
</svg>
