<svg width="18" height="22" viewBox="0 0 18 22" fill="none" xmlns="http://www.w3.org/2000/svg">
<path d="M7.64284 0.166504H10.3571C11.6472 0.166504 12.7032 1.16876 12.789 2.43712L12.7946 2.604L12.7946 2.87484H14.1405C16.085 2.87484 17.6613 4.45117 17.6613 6.39567V19.4006C17.6613 20.7468 16.57 21.8381 15.2238 21.8381H2.77051C1.42431 21.8381 0.333008 20.7468 0.333008 19.4006V6.39567C0.333008 4.45117 1.90934 2.87484 3.85384 2.87484H5.20476L5.20534 2.604C5.20534 1.3139 6.2076 0.257889 7.47596 0.172127L7.64284 0.166504ZM14.1405 4.49984H3.85384C2.8068 4.49984 1.95801 5.34863 1.95801 6.39567V19.4006C1.95801 19.8494 2.32178 20.2131 2.77051 20.2131H15.2238C15.6726 20.2131 16.0363 19.8494 16.0363 19.4006V6.39567C16.0363 5.34863 15.1875 4.49984 14.1405 4.49984ZM12.5211 12.6248C13.5682 12.6248 14.417 13.4736 14.417 14.5207V16.6842C14.417 17.7312 13.5682 18.58 12.5211 18.58H5.48131C4.43427 18.58 3.58548 17.7312 3.58548 16.6842V14.5207C3.58548 13.4736 4.43427 12.6248 5.48131 12.6248H12.5211ZM12.5211 14.2498H5.48131C5.33173 14.2498 5.21048 14.3711 5.21048 14.5207V16.6842C5.21048 16.8338 5.33173 16.955 5.48131 16.955H12.5211C12.6707 16.955 12.792 16.8338 12.792 16.6842V14.5207C12.792 14.3711 12.6707 14.2498 12.5211 14.2498ZM7.64551 8.2915H10.3538C10.8026 8.2915 11.1663 8.65527 11.1663 9.104C11.1663 9.51534 10.8607 9.85529 10.4641 9.90909L10.3538 9.9165H7.64551C7.19678 9.9165 6.83301 9.55274 6.83301 9.104C6.83301 8.69267 7.13868 8.35272 7.53526 8.29892L7.64551 8.2915ZM10.3571 1.7915H7.64284C7.23151 1.7915 6.89156 2.09717 6.83776 2.49375L6.83034 2.604L6.82976 2.87484H11.1696V2.604C11.1696 2.19267 10.864 1.85272 10.4674 1.79892L10.3571 1.7915Z" fill="white"/>
</svg>
