<svg width="35" height="36" viewBox="0 0 35 36" fill="none" xmlns="http://www.w3.org/2000/svg">
<path d="M18.421 36V30.465L28.5987 20.565C28.875 20.295 29.182 20.1 29.5197 19.98C29.8574 19.86 30.1952 19.8 30.5329 19.8C30.9013 19.8 31.2544 19.8678 31.5921 20.0034C31.9298 20.139 32.2368 20.3412 32.5131 20.61L34.2171 22.275C34.4627 22.545 34.6549 22.845 34.7937 23.175C34.9324 23.505 35.0012 23.835 35 24.165C34.9988 24.495 34.9374 24.8328 34.8158 25.1784C34.6942 25.524 34.4946 25.8312 34.2171 26.1L24.0855 36H18.421ZM21.1842 33.3H22.9342L28.5066 27.81L27.6776 26.955L26.8026 26.145L21.1842 31.59V33.3ZM3.68421 36C2.67105 36 1.80403 35.6478 1.08316 34.9434C0.36228 34.239 0.00122807 33.3912 0 32.4V3.6C0 2.61 0.361052 1.7628 1.08316 1.0584C1.80526 0.354 2.67228 0.0012 3.68421 0H18.421L29.4737 10.8V16.2H25.7895V12.6H16.5789V3.6H3.68421V32.4H14.7368V36H3.68421ZM27.6776 26.955L26.8026 26.145L28.5066 27.81L27.6776 26.955Z" fill="#660000"/>
</svg>
