<svg width="27" height="27" viewBox="0 0 27 27" fill="none" xmlns="http://www.w3.org/2000/svg">
<path d="M8.53333 20L13.3333 15.2L18.1333 20L20 18.1333L15.2 13.3333L20 8.53333L18.1333 6.66667L13.3333 11.4667L8.53333 6.66667L6.66667 8.53333L11.4667 13.3333L6.66667 18.1333L8.53333 20ZM13.3333 26.6667C11.4889 26.6667 9.75556 26.3164 8.13334 25.616C6.51111 24.9156 5.1 23.9658 3.9 22.7667C2.7 21.5667 1.75022 20.1556 1.05067 18.5333C0.351111 16.9111 0.000888889 15.1778 0 13.3333C0 11.4889 0.350222 9.75556 1.05067 8.13334C1.75111 6.51111 2.70089 5.1 3.9 3.9C5.1 2.7 6.51111 1.75022 8.13334 1.05067C9.75556 0.351111 11.4889 0.000888889 13.3333 0C15.1778 0 16.9111 0.350222 18.5333 1.05067C20.1556 1.75111 21.5667 2.70089 22.7667 3.9C23.9667 5.1 24.9169 6.51111 25.6173 8.13334C26.3178 9.75556 26.6676 11.4889 26.6667 13.3333C26.6667 15.1778 26.3164 16.9111 25.616 18.5333C24.9156 20.1556 23.9658 21.5667 22.7667 22.7667C21.5667 23.9667 20.1556 24.9169 18.5333 25.6173C16.9111 26.3178 15.1778 26.6676 13.3333 26.6667Z" fill="#660000"/>
</svg>
