<svg width="16" height="12" viewBox="0 0 16 12" fill="none" xmlns="http://www.w3.org/2000/svg">
<path d="M1.3335 1.33366C1.3335 1.15685 1.40373 0.987279 1.52876 0.862254C1.65378 0.73723 1.82335 0.666992 2.00016 0.666992H14.0002C14.177 0.666992 14.3465 0.73723 14.4716 0.862254C14.5966 0.987279 14.6668 1.15685 14.6668 1.33366V10.667C14.6668 10.8438 14.5966 11.0134 14.4716 11.1384C14.3465 11.2634 14.177 11.3337 14.0002 11.3337H2.00016C1.82335 11.3337 1.65378 11.2634 1.52876 11.1384C1.40373 11.0134 1.3335 10.8438 1.3335 10.667V1.33366Z" stroke="#660000" stroke-linejoin="round"/>
<path d="M12.0002 0.666992V11.3337M4.00016 0.666992V11.3337M12.6668 4.00033H14.6668M12.6668 8.00033H14.6668M1.3335 4.00033H3.3335M1.3335 3.33366V4.66699M3.00016 0.666992H5.00016M3.00016 11.3337H5.00016M11.0002 0.666992H13.0002M11.0002 11.3337H13.0002M1.3335 8.00033H3.3335M1.3335 7.33366V8.66699M14.6668 7.33366V8.66699M14.6668 3.33366V4.66699" stroke="#660000" stroke-linecap="round" stroke-linejoin="round"/>
<path d="M7 4.33398L9.66667 6.00065L7 7.66732V4.33398Z" stroke="#660000" stroke-linejoin="round"/>
</svg>
