<svg width="20" height="20" viewBox="0 0 20 20" fill="none" xmlns="http://www.w3.org/2000/svg">
<path d="M9.16667 8.33594H7.5V10.8359H5V12.5026H7.5V15.0026H9.16667V12.5026H11.6667V10.8359H9.16667V8.33594Z" fill="#660000"/>
<path d="M3.33268 18.3333H13.3327C14.2518 18.3333 14.9993 17.5858 14.9993 16.6667V6.66667C14.9993 5.7475 14.2518 5 13.3327 5H3.33268C2.41352 5 1.66602 5.7475 1.66602 6.66667V16.6667C1.66602 17.5858 2.41352 18.3333 3.33268 18.3333ZM3.33268 6.66667H13.3327L13.3343 16.6667H3.33268V6.66667Z" fill="#660000"/>
<path d="M16.666 1.66406H6.66602V3.33073H16.666V13.3307H18.3327V3.33073C18.3327 2.41156 17.5852 1.66406 16.666 1.66406Z" fill="#660000"/>
</svg>
