<svg width="17" height="17" viewBox="0 0 17 17" fill="none" xmlns="http://www.w3.org/2000/svg">
<path d="M3.83398 4.83594H3.00065C2.55862 4.83594 2.1347 5.01153 1.82214 5.32409C1.50958 5.63665 1.33398 6.06058 1.33398 6.5026V14.0026C1.33398 14.4446 1.50958 14.8686 1.82214 15.1811C2.1347 15.4937 2.55862 15.6693 3.00065 15.6693H10.5007C10.9427 15.6693 11.3666 15.4937 11.6792 15.1811C11.9917 14.8686 12.1673 14.4446 12.1673 14.0026V13.1693" stroke="#660000" stroke-width="1.66667" stroke-linecap="round" stroke-linejoin="round"/>
<path d="M11.3333 3.16676L13.8333 5.66676M14.9875 4.48759C15.3157 4.15938 15.5001 3.71424 15.5001 3.25009C15.5001 2.78594 15.3157 2.34079 14.9875 2.01259C14.6593 1.68438 14.2142 1.5 13.75 1.5C13.2858 1.5 12.8407 1.68438 12.5125 2.01259L5.5 9.00009V11.5001H8L14.9875 4.48759Z" stroke="#660000" stroke-width="1.66667" stroke-linecap="round" stroke-linejoin="round"/>
</svg>
