<svg width="16" height="19" viewBox="0 0 16 19" fill="none" xmlns="http://www.w3.org/2000/svg">
<path d="M12.438 13.9171C12.438 14.1985 12.2099 14.4268 11.9284 14.4268H4.34681C4.06537 14.4268 3.83694 14.1985 3.83694 13.9171C3.83694 13.6356 4.06521 13.4074 4.34681 13.4074H11.9284C12.2099 13.4075 12.438 13.6358 12.438 13.9171ZM15.9068 2.61197V17.3931C15.9068 18.0723 15.3545 18.625 14.6754 18.625H1.53642C0.857156 18.625 0.304688 18.0723 0.304688 17.3931V2.61197C0.304688 1.93258 0.857195 1.38012 1.53642 1.38012H2.86028C2.95594 1.08042 3.11126 0.831626 3.35977 0.707052C3.98117 0.395697 4.72356 1.04724 5.06534 1.38012H5.87133C5.96687 1.08042 6.12223 0.831626 6.37074 0.707052C6.99214 0.395697 7.73469 1.04724 8.07639 1.38012H9.07413C9.16943 1.08042 9.32483 0.831626 9.57358 0.707052C10.1947 0.395697 10.9374 1.04724 11.2789 1.38012H12.2097C12.305 1.08042 12.4607 0.831626 12.7093 0.707052C13.3309 0.395697 14.073 1.04724 14.4147 1.38012H14.6755C15.3545 1.38008 15.9068 1.93258 15.9068 2.61197ZM12.9158 1.38008H13.3556C13.1194 1.25013 13.0198 1.28649 13.0035 1.29452C12.971 1.31055 12.9422 1.34046 12.9158 1.38008ZM12.0918 2.89425C11.9896 2.99373 11.9261 3.13214 11.9261 3.28548C11.9261 3.58724 12.1716 3.83277 12.4738 3.83277C12.7754 3.83277 13.0209 3.58724 13.0209 3.28548C13.0209 3.0835 12.9099 2.90909 12.7472 2.81403C12.7574 2.9884 12.7745 3.16349 12.7989 3.33106C12.8248 3.51072 12.7003 3.67721 12.5208 3.70331C12.5046 3.70573 12.4887 3.70681 12.4733 3.70681C12.3127 3.70681 12.1721 3.58895 12.1487 3.4254C12.1308 3.30341 12.1076 3.11496 12.0918 2.89425ZM9.78021 1.38008H10.2198C9.98342 1.25013 9.88422 1.28649 9.86768 1.29452C9.83518 1.31055 9.80599 1.34046 9.78021 1.38008ZM8.95608 2.89425C8.8539 2.99373 8.79034 3.13214 8.79034 3.28548C8.79034 3.58724 9.03575 3.83277 9.33788 3.83277C9.63949 3.83277 9.88502 3.58724 9.88502 3.28548C9.88502 3.0835 9.77409 2.90909 9.61121 2.81403C9.62147 2.9884 9.63869 3.16349 9.66304 3.33106C9.68921 3.51072 9.56444 3.67721 9.38489 3.70331C9.3691 3.70573 9.35311 3.70681 9.33752 3.70681C9.17683 3.70681 9.03627 3.58895 9.01272 3.4254C8.99486 3.30341 8.9716 3.11496 8.95608 2.89425ZM6.57733 1.38008H7.01735C6.78105 1.25013 6.68142 1.28649 6.66519 1.29452C6.63266 1.31055 6.60362 1.34046 6.57733 1.38008ZM5.75332 2.89425C5.65126 2.99373 5.58758 3.13214 5.58758 3.28548C5.58758 3.58724 5.83319 3.83277 6.13496 3.83277C6.43673 3.83277 6.68221 3.58724 6.68221 3.28548C6.68221 3.0835 6.57136 2.90909 6.40829 2.81403C6.41839 2.9884 6.43577 3.16349 6.46011 3.33106C6.48613 3.51072 6.36151 3.67721 6.18201 3.70331C6.16606 3.70573 6.15007 3.70681 6.1344 3.70681C5.97399 3.70681 5.83362 3.58895 5.8098 3.4254C5.79222 3.30341 5.76927 3.11496 5.75332 2.89425ZM3.56636 1.38008H4.0063C3.77004 1.25013 3.67049 1.28649 3.65414 1.29452C3.6216 1.31055 3.59265 1.34046 3.56636 1.38008ZM2.74267 2.89425C2.64061 2.99373 2.57681 3.13214 2.57681 3.28548C2.57681 3.58724 2.82241 3.83277 3.12418 3.83277C3.42599 3.83277 3.67156 3.58724 3.67156 3.28548C3.67156 3.0835 3.56059 2.90909 3.39763 2.81403C3.40766 2.9884 3.42508 3.16349 3.44934 3.33106C3.47543 3.51072 3.35086 3.67721 3.17116 3.70331C3.15517 3.70573 3.1393 3.70681 3.12371 3.70681C2.96326 3.70681 2.82285 3.58895 2.79899 3.4254C2.78117 3.30341 2.75826 3.11496 2.74267 2.89425ZM15.0859 2.61197C15.0859 2.3855 14.9019 2.20138 14.6755 2.20138H12.9944C13.3981 2.39616 13.6778 2.80826 13.6778 3.28571C13.6778 3.94963 13.1375 4.49005 12.4738 4.49005C11.8095 4.49005 11.2693 3.94983 11.2693 3.28571C11.2693 2.8083 11.5489 2.3962 11.9527 2.20138H9.85877C10.2622 2.39616 10.5419 2.80826 10.5419 3.28571C10.5419 3.94963 10.0018 4.49005 9.33788 4.49005C8.6736 4.49005 8.13351 3.94983 8.13351 3.28571C8.13351 2.8083 8.4134 2.3962 8.81683 2.20138H6.65608C7.05963 2.39616 7.33933 2.80826 7.33933 3.28571C7.33933 3.94963 6.79915 4.49005 6.135 4.49005C5.47084 4.49005 4.93054 3.94983 4.93054 3.28571C4.93054 2.8083 5.21044 2.3962 5.61407 2.20138H3.64503C4.04866 2.39616 4.32836 2.80826 4.32836 3.28571C4.32836 3.94963 3.7881 4.49005 3.12403 4.49005C2.46011 4.49005 1.91969 3.94983 1.91969 3.28571C1.91969 2.8083 2.19955 2.3962 2.60322 2.20138H1.53623C1.30975 2.20138 1.12571 2.3855 1.12571 2.61197V17.3931C1.12571 17.6197 1.30975 17.8038 1.53623 17.8038H14.675C14.9016 17.8038 15.0854 17.6197 15.0854 17.3931V2.61197H15.0859ZM11.9284 9.90344H4.34681C4.06537 9.90344 3.83694 10.1315 3.83694 10.4131C3.83694 10.6946 4.06521 10.9228 4.34681 10.9228H11.9284C12.2099 10.9228 12.438 10.6946 12.438 10.4131C12.438 10.1315 12.2099 9.90344 11.9284 9.90344ZM13.139 6.3991H3.07272C2.79115 6.3991 2.56297 6.62733 2.56297 6.90885C2.56297 7.19038 2.79119 7.41876 3.07272 7.41876H13.139C13.4205 7.41876 13.6488 7.19058 13.6488 6.90885C13.6488 6.62733 13.4205 6.3991 13.139 6.3991Z" fill="black"/>
</svg>
