<svg width="16" height="13" viewBox="0 0 16 13" fill="none" xmlns="http://www.w3.org/2000/svg">
<path d="M1.33361 5.33396L0.74444 5.92312L0.155273 5.33396L0.74444 4.74479L1.33361 5.33396ZM15.5003 12.0006C15.5003 12.2216 15.4125 12.4336 15.2562 12.5899C15.0999 12.7462 14.888 12.834 14.6669 12.834C14.4459 12.834 14.234 12.7462 14.0777 12.5899C13.9214 12.4336 13.8336 12.2216 13.8336 12.0006H15.5003ZM4.91111 10.0898L0.74444 5.92312L1.92277 4.74479L6.08944 8.91146L4.91111 10.0898ZM0.74444 4.74479L4.91111 0.578125L6.08944 1.75646L1.92277 5.92312L0.74444 4.74479ZM1.33361 4.50062H9.66694V6.16729H1.33361V4.50062ZM15.5003 10.334V12.0006H13.8336V10.334H15.5003ZM9.66694 4.50062C11.214 4.50062 12.6978 5.11521 13.7917 6.20917C14.8857 7.30313 15.5003 8.78686 15.5003 10.334H13.8336C13.8336 9.22889 13.3946 8.16908 12.6132 7.38768C11.8318 6.60628 10.772 6.16729 9.66694 6.16729V4.50062Z" fill="white"/>
</svg>
