<svg width="73" height="73" viewBox="0 0 73 73" fill="none" xmlns="http://www.w3.org/2000/svg">
<path d="M68.4375 11.406H47.6781C47.1545 8.82749 45.7556 6.50932 43.7185 4.84423C41.6813 3.17914 39.1311 2.26953 36.5 2.26953C33.8689 2.26953 31.3187 3.17914 29.2815 4.84423C27.2444 6.50932 25.8455 8.82749 25.3219 11.406H4.5625C3.95747 11.406 3.37723 11.6463 2.94941 12.0741C2.5216 12.5019 2.28125 13.0822 2.28125 13.6872C2.28125 14.2922 2.5216 14.8725 2.94941 15.3003C3.37723 15.7281 3.95747 15.9685 4.5625 15.9685H68.4375C69.0425 15.9685 69.6228 15.7281 70.0506 15.3003C70.4784 14.8725 70.7188 14.2922 70.7188 13.6872C70.7188 13.0822 70.4784 12.5019 70.0506 12.0741C69.6228 11.6463 69.0425 11.406 68.4375 11.406ZM36.5 6.84347C37.912 6.84743 39.2881 7.28803 40.4399 8.10486C41.5916 8.92168 42.4625 10.0747 42.9331 11.406H30.0669C30.5375 10.0747 31.4084 8.92168 32.5601 8.10486C33.7119 7.28803 35.088 6.84743 36.5 6.84347ZM60.1794 20.7135C59.7639 20.5388 59.3061 20.491 58.8635 20.5763C58.421 20.6616 58.0136 20.876 57.6928 21.1925C57.4814 21.4057 57.3141 21.6585 57.2006 21.9364C57.0871 22.2144 57.0295 22.512 57.0312 22.8122C57.0312 23.4172 57.2716 23.9975 57.6994 24.4253C58.1272 24.8531 58.7075 25.0935 59.3125 25.0935C59.9175 25.0935 60.4978 24.8531 60.9256 24.4253C61.3534 23.9975 61.5938 23.4172 61.5938 22.8122C61.5853 22.2082 61.349 21.6297 60.9322 21.1925C60.7152 20.9848 60.4594 20.822 60.1794 20.7135ZM59.3125 29.656C58.7075 29.656 58.1272 29.8963 57.6994 30.3241C57.2716 30.7519 57.0312 31.3322 57.0312 31.9372V38.781C57.0312 39.386 57.2716 39.9662 57.6994 40.3941C58.1272 40.8219 58.7075 41.0622 59.3125 41.0622C59.9175 41.0622 60.4978 40.8219 60.9256 40.3941C61.3534 39.9662 61.5938 39.386 61.5938 38.781V31.9372C61.5938 31.3322 61.3534 30.7519 60.9256 30.3241C60.4978 29.8963 59.9175 29.656 59.3125 29.656ZM59.3125 45.6247C58.7075 45.6247 58.1272 45.8651 57.6994 46.2929C57.2716 46.7207 57.0312 47.3009 57.0312 47.906V63.8747C57.0312 64.4797 56.7909 65.06 56.3631 65.4878C55.9353 65.9156 55.355 66.156 54.75 66.156H18.25C17.645 66.156 17.0647 65.9156 16.6369 65.4878C16.2091 65.06 15.9688 64.4797 15.9688 63.8747V22.8122C15.9688 22.2072 15.7284 21.6269 15.3006 21.1991C14.8728 20.7713 14.2925 20.531 13.6875 20.531C13.0825 20.531 12.5022 20.7713 12.0744 21.1991C11.6466 21.6269 11.4062 22.2072 11.4062 22.8122V63.8747C11.4062 65.6898 12.1273 67.4305 13.4107 68.714C14.6942 69.9974 16.4349 70.7185 18.25 70.7185H54.75C56.5651 70.7185 58.3058 69.9974 59.5893 68.714C60.8727 67.4305 61.5938 65.6898 61.5938 63.8747V47.906C61.5938 47.3009 61.3534 46.7207 60.9256 46.2929C60.4978 45.8651 59.9175 45.6247 59.3125 45.6247Z" fill="#660000"/>
<path d="M27.375 54.75V25.0938C27.375 24.4887 27.1347 23.9085 26.7068 23.4807C26.279 23.0528 25.6988 22.8125 25.0938 22.8125C24.4887 22.8125 23.9085 23.0528 23.4807 23.4807C23.0528 23.9085 22.8125 24.4887 22.8125 25.0938V54.75C22.8125 55.355 23.0528 55.9353 23.4807 56.3631C23.9085 56.7909 24.4887 57.0312 25.0938 57.0312C25.6988 57.0312 26.279 56.7909 26.7068 56.3631C27.1347 55.9353 27.375 55.355 27.375 54.75ZM38.7812 54.75V25.0938C38.7812 24.4887 38.5409 23.9085 38.1131 23.4807C37.6853 23.0528 37.105 22.8125 36.5 22.8125C35.895 22.8125 35.3147 23.0528 34.8869 23.4807C34.4591 23.9085 34.2188 24.4887 34.2188 25.0938V54.75C34.2188 55.355 34.4591 55.9353 34.8869 56.3631C35.3147 56.7909 35.895 57.0312 36.5 57.0312C37.105 57.0312 37.6853 56.7909 38.1131 56.3631C38.5409 55.9353 38.7812 55.355 38.7812 54.75ZM50.1875 54.75V25.0938C50.1875 24.4887 49.9472 23.9085 49.5193 23.4807C49.0915 23.0528 48.5113 22.8125 47.9062 22.8125C47.3012 22.8125 46.721 23.0528 46.2932 23.4807C45.8653 23.9085 45.625 24.4887 45.625 25.0938V54.75C45.625 55.355 45.8653 55.9353 46.2932 56.3631C46.721 56.7909 47.3012 57.0312 47.9062 57.0312C48.5113 57.0312 49.0915 56.7909 49.5193 56.3631C49.9472 55.9353 50.1875 55.355 50.1875 54.75Z" fill="#660000"/>
</svg>
