<svg width="17" height="17" viewBox="0 0 17 17" fill="none" xmlns="http://www.w3.org/2000/svg">
<path d="M14.0413 2.16634H12.458V1.37467C12.458 1.16471 12.3746 0.963348 12.2261 0.814882C12.0777 0.666415 11.8763 0.583008 11.6663 0.583008C11.4564 0.583008 11.255 0.666415 11.1065 0.814882C10.9581 0.963348 10.8747 1.16471 10.8747 1.37467V2.16634H6.12467V1.37467C6.12467 1.16471 6.04127 0.963348 5.8928 0.814882C5.74433 0.666415 5.54297 0.583008 5.33301 0.583008C5.12304 0.583008 4.92168 0.666415 4.77321 0.814882C4.62475 0.963348 4.54134 1.16471 4.54134 1.37467V2.16634H2.95801C2.32812 2.16634 1.72403 2.41656 1.27863 2.86196C0.83323 3.30736 0.583008 3.91145 0.583008 4.54134V14.0413C0.583008 14.6712 0.83323 15.2753 1.27863 15.7207C1.72403 16.1661 2.32812 16.4163 2.95801 16.4163H14.0413C14.6712 16.4163 15.2753 16.1661 15.7207 15.7207C16.1661 15.2753 16.4163 14.6712 16.4163 14.0413V4.54134C16.4163 3.91145 16.1661 3.30736 15.7207 2.86196C15.2753 2.41656 14.6712 2.16634 14.0413 2.16634ZM14.833 14.0413C14.833 14.2513 14.7496 14.4527 14.6011 14.6011C14.4527 14.7496 14.2513 14.833 14.0413 14.833H2.95801C2.74804 14.833 2.54668 14.7496 2.39822 14.6011C2.24975 14.4527 2.16634 14.2513 2.16634 14.0413V8.49967H14.833V14.0413ZM14.833 6.91634H2.16634V4.54134C2.16634 4.33138 2.24975 4.13001 2.39822 3.98155C2.54668 3.83308 2.74804 3.74967 2.95801 3.74967H4.54134V4.54134C4.54134 4.7513 4.62475 4.95267 4.77321 5.10113C4.92168 5.2496 5.12304 5.33301 5.33301 5.33301C5.54297 5.33301 5.74433 5.2496 5.8928 5.10113C6.04127 4.95267 6.12467 4.7513 6.12467 4.54134V3.74967H10.8747V4.54134C10.8747 4.7513 10.9581 4.95267 11.1065 5.10113C11.255 5.2496 11.4564 5.33301 11.6663 5.33301C11.8763 5.33301 12.0777 5.2496 12.2261 5.10113C12.3746 4.95267 12.458 4.7513 12.458 4.54134V3.74967H14.0413C14.2513 3.74967 14.4527 3.83308 14.6011 3.98155C14.7496 4.13001 14.833 4.33138 14.833 4.54134V6.91634Z" fill="#6A6A6A"/>
</svg>
