<svg width="19" height="19" viewBox="0 0 19 19" fill="none" xmlns="http://www.w3.org/2000/svg">
<path d="M3.97902 3.19191H14.2647V9.62041H15.5504V1.90625H2.69336V17.3347H9.76469V16.0491H3.97902V3.19191Z" fill="black"/>
<path d="M5.26367 4.48438H12.978V5.77004H5.26367V4.48438ZM5.26367 7.05588H11.6922V8.34154H5.26367V7.05588ZM5.26367 9.62721H9.12084V10.9129H5.26367V9.62721ZM13.6208 10.2222L10.4067 11.9901V15.5257L13.621 17.2936L16.8352 15.5257V11.9901L13.6208 10.2222ZM15.5495 14.7655L13.621 15.8261L11.6925 14.7655V12.7503L13.621 11.6896L15.5495 12.7503V14.7655Z" fill="black"/>
<path d="M12.9785 13.7522C12.9785 13.9227 13.0462 14.0862 13.1668 14.2068C13.2874 14.3273 13.4509 14.395 13.6213 14.395C13.7918 14.395 13.9553 14.3273 14.0759 14.2068C14.1965 14.0862 14.2642 13.9227 14.2642 13.7522C14.2642 13.5817 14.1965 13.4182 14.0759 13.2977C13.9553 13.1771 13.7918 13.1094 13.6213 13.1094C13.4509 13.1094 13.2874 13.1771 13.1668 13.2977C13.0462 13.4182 12.9785 13.5817 12.9785 13.7522Z" fill="black"/>
</svg>
