<svg width="17" height="16" viewBox="0 0 17 16" fill="none" xmlns="http://www.w3.org/2000/svg">
<path d="M9.32617 12.125V14.375H12.7012C12.8504 14.375 12.9934 14.4343 13.0989 14.5398C13.2044 14.6452 13.2637 14.7883 13.2637 14.9375C13.2637 15.0867 13.2044 15.2298 13.0989 15.3352C12.9934 15.4407 12.8504 15.5 12.7012 15.5H4.82617C4.67699 15.5 4.53391 15.4407 4.42842 15.3352C4.32294 15.2298 4.26367 15.0867 4.26367 14.9375C4.26367 14.7883 4.32294 14.6452 4.42842 14.5398C4.53391 14.4343 4.67699 14.375 4.82617 14.375H8.20117V12.125H3.13867C2.54193 12.125 1.96964 11.8879 1.54768 11.466C1.12572 11.044 0.888672 10.4717 0.888672 9.875V3.125C0.888672 2.52826 1.12572 1.95597 1.54768 1.53401C1.96964 1.11205 2.54193 0.875 3.13867 0.875H14.3887C14.9854 0.875 15.5577 1.11205 15.9797 1.53401C16.4016 1.95597 16.6387 2.52826 16.6387 3.125V9.875C16.6387 10.4717 16.4016 11.044 15.9797 11.466C15.5577 11.8879 14.9854 12.125 14.3887 12.125H9.32617ZM3.13867 2C2.8403 2 2.55416 2.11853 2.34318 2.3295C2.1322 2.54048 2.01367 2.82663 2.01367 3.125V9.875C2.01367 10.1734 2.1322 10.4595 2.34318 10.6705C2.55416 10.8815 2.8403 11 3.13867 11H14.3887C14.687 11 14.9732 10.8815 15.1842 10.6705C15.3951 10.4595 15.5137 10.1734 15.5137 9.875V3.125C15.5137 2.82663 15.3951 2.54048 15.1842 2.3295C14.9732 2.11853 14.687 2 14.3887 2H3.13867Z" fill="black"/>
</svg>
