<svg width="10" height="10" viewBox="0 0 10 10" fill="none" xmlns="http://www.w3.org/2000/svg">
<path fill-rule="evenodd" clip-rule="evenodd" d="M0.720802 7.60885L0.0251798 9.46382C-0.00153168 9.53521 -0.00713081 9.61277 0.00905133 9.68726C0.0252335 9.76174 0.0625128 9.82999 0.116437 9.88386C0.170362 9.93772 0.238652 9.97493 0.313152 9.99104C0.387652 10.0071 0.465214 10.0015 0.536573 9.97468L2.39104 9.27907C2.60329 9.19957 2.79607 9.07556 2.95643 8.91538L8.32818 3.54371C8.32818 3.54371 8.14077 2.98203 7.57961 2.42035C7.01846 1.8592 6.45624 1.6718 6.45624 1.6718L1.08449 7.04347C0.924308 7.20382 0.800299 7.3966 0.720802 7.60885ZM7.20533 0.922721L7.93748 0.190581C8.06877 0.0592938 8.244 -0.0243491 8.42717 0.00635524C8.68499 0.048706 9.07938 0.176817 9.45102 0.548975C9.82318 0.921133 9.95129 1.315 9.99365 1.57281C10.0244 1.75597 9.94071 1.9312 9.80942 2.06249L9.07674 2.79463C9.07674 2.79463 8.88986 2.23348 8.32818 1.67233C7.76702 1.11012 7.20533 0.922721 7.20533 0.922721Z" fill="white"/>
</svg>
