<svg width="12" height="14" viewBox="0 0 12 14" fill="none" xmlns="http://www.w3.org/2000/svg">
<path fill-rule="evenodd" clip-rule="evenodd" d="M10.5009 0.25C10.692 0.250212 10.8759 0.323409 11.0149 0.454636C11.1539 0.585863 11.2376 0.765215 11.2488 0.956046C11.26 1.14688 11.1979 1.33478 11.0752 1.48137C10.9525 1.62796 10.7785 1.72217 10.5886 1.74475L10.5009 1.75H9.75089V12.25H10.5009C10.692 12.2502 10.8759 12.3234 11.0149 12.4546C11.1539 12.5859 11.2376 12.7652 11.2488 12.956C11.26 13.1469 11.1979 13.3348 11.0752 13.4814C10.9525 13.628 10.7785 13.7222 10.5886 13.7448L10.5009 13.75H4.50089C4.30973 13.7498 4.12586 13.6766 3.98686 13.5454C3.84786 13.4141 3.76421 13.2348 3.75301 13.044C3.7418 12.8531 3.80389 12.6652 3.92658 12.5186C4.04928 12.372 4.22331 12.2778 4.41314 12.2552L4.50089 12.25H5.25089V8.5H4.12589C3.04472 8.50228 2.00588 8.07999 1.23293 7.32403C0.459993 6.56806 0.0147465 5.53885 -0.00697864 4.4579C-0.0287038 3.37695 0.374829 2.33068 1.11677 1.54426C1.85871 0.757849 2.87975 0.294164 3.96014 0.253L4.12589 0.25H10.5009ZM8.25089 1.75H6.75089V12.25H8.25089V1.75ZM5.25089 1.75H4.12589C3.44151 1.74901 2.78381 2.01534 2.29294 2.49223C1.80208 2.96912 1.51686 3.61885 1.49809 4.30297C1.47931 4.98709 1.72845 5.6515 2.19242 6.15459C2.65638 6.65769 3.29849 6.95969 3.98189 6.99625L4.12589 7H5.25089V1.75Z" fill="#000606"/>
</svg>
