<svg width="16" height="16" viewBox="0 0 16 16" fill="none" xmlns="http://www.w3.org/2000/svg">
<path d="M13 0.5H3C2.33696 0.5 1.70107 0.763392 1.23223 1.23223C0.763392 1.70107 0.5 2.33696 0.5 3V13C0.5 13.663 0.763392 14.2989 1.23223 14.7678C1.70107 15.2366 2.33696 15.5 3 15.5H13C13.663 15.5 14.2989 15.2366 14.7678 14.7678C15.2366 14.2989 15.5 13.663 15.5 13V3C15.5 2.33696 15.2366 1.70107 14.7678 1.23223C14.2989 0.763392 13.663 0.5 13 0.5ZM4.66667 3.83333C4.91389 3.83333 5.15557 3.90664 5.36113 4.044C5.56669 4.18135 5.72691 4.37657 5.82152 4.60498C5.91613 4.83339 5.94088 5.08472 5.89265 5.3272C5.84442 5.56967 5.72537 5.7924 5.55055 5.96722C5.37573 6.14203 5.15301 6.26108 4.91053 6.30931C4.66805 6.35755 4.41672 6.33279 4.18831 6.23818C3.9599 6.14357 3.76468 5.98336 3.62733 5.7778C3.48998 5.57223 3.41667 5.33056 3.41667 5.08333C3.41667 4.75181 3.54836 4.43387 3.78278 4.19945C4.0172 3.96503 4.33515 3.83333 4.66667 3.83333ZM13.8333 12.8583C13.8517 13.098 13.7744 13.3353 13.6182 13.518C13.462 13.7008 13.2397 13.8142 13 13.8333H3L9.30833 8.15C9.41426 8.05338 9.55246 7.99982 9.69583 7.99982C9.83921 7.99982 9.97741 8.05338 10.0833 8.15L13.8333 11.8833V12.8583Z" fill="#000606"/>
</svg>
