<svg width="18" height="20" viewBox="0 0 18 20" fill="none" xmlns="http://www.w3.org/2000/svg">
<path fill-rule="evenodd" clip-rule="evenodd" d="M8.80772 2.15771C8.46673 2.15771 8.16375 2.21734 7.97034 2.30394L7.96841 2.3048L2.55856 4.70714C1.84846 5.02042 1.7998 5.30385 1.7998 5.33396C1.7998 5.36407 1.84846 5.64751 2.55856 5.96079L2.56008 5.96146L7.97035 8.36399C8.16375 8.45059 8.46673 8.51021 8.80772 8.51021C9.14871 8.51021 9.45169 8.45059 9.6451 8.36399L9.64703 8.36313L15.0554 5.96146L15.0569 5.96079C15.767 5.64751 15.8156 5.36407 15.8156 5.33396C15.8156 5.30385 15.767 5.02042 15.0569 4.70714L9.64703 2.3048L9.6451 2.30394C9.45169 2.21734 9.14871 2.15771 8.80772 2.15771ZM10.206 1.04853C9.78543 0.860468 9.2776 0.782715 8.80772 0.782715C8.33784 0.782715 7.83002 0.860468 7.40946 1.04853C7.40911 1.04869 7.40877 1.04884 7.40843 1.04899L2.00355 3.44913C2.00331 3.44923 2.00379 3.44902 2.00355 3.44913C1.15563 3.82338 0.424805 4.45224 0.424805 5.33396C0.424805 6.21565 1.15485 6.84418 2.00273 7.21844C2.00246 7.21832 2.00301 7.21856 2.00273 7.21844L7.40843 9.61893C7.40882 9.61911 7.40921 9.61928 7.4096 9.61946C7.83013 9.80748 8.3379 9.88521 8.80772 9.88521C9.27757 9.88521 9.78536 9.80747 10.2059 9.61943C10.2063 9.61926 10.2066 9.6191 10.207 9.61893L15.6119 7.2188C15.6117 7.21891 15.6121 7.2187 15.6119 7.2188C16.4598 6.84455 17.1906 6.21569 17.1906 5.33396C17.1906 4.45221 16.4605 3.82366 15.6125 3.44941C15.6123 3.44931 15.6127 3.4495 15.6125 3.44941L10.207 1.04899C10.2067 1.04884 10.2063 1.04869 10.206 1.04853Z" fill="white"/>
<path fill-rule="evenodd" clip-rule="evenodd" d="M0.75 8.39551C1.1297 8.39551 1.4375 8.70331 1.4375 9.08301C1.4375 9.30612 1.52576 9.59258 1.70324 9.86536C1.88071 10.1381 2.10673 10.3347 2.31104 10.4249L2.31273 10.4257L8.5356 13.1934C8.53537 13.1933 8.53582 13.1935 8.5356 13.1934C8.83672 13.3264 9.174 13.3244 9.45986 13.1955L9.46311 13.194L15.6873 10.4257L15.689 10.4249C15.8933 10.3347 16.1193 10.1381 16.2968 9.86536C16.4742 9.59258 16.5625 9.30612 16.5625 9.08301C16.5625 8.70331 16.8703 8.39551 17.25 8.39551C17.6297 8.39551 17.9375 8.70331 17.9375 9.08301C17.9375 9.6299 17.737 10.173 17.4493 10.6152C17.1617 11.0572 16.7463 11.4609 16.2451 11.6824C16.2449 11.6825 16.2454 11.6823 16.2451 11.6824L10.0251 14.4489C10.0245 14.4492 10.0239 14.4494 10.0233 14.4497C9.37481 14.7415 8.63083 14.739 7.9794 14.4509L1.75563 11.6828C1.75532 11.6826 1.755 11.6825 1.75469 11.6823C1.25359 11.4608 0.838273 11.0572 0.550718 10.6152C0.26299 10.173 0.0625 9.6299 0.0625 9.08301C0.0625 8.70331 0.370304 8.39551 0.75 8.39551Z" fill="white"/>
<path fill-rule="evenodd" clip-rule="evenodd" d="M0.75 12.979C1.1297 12.979 1.4375 13.2868 1.4375 13.6665C1.4375 14.2447 1.77937 14.7705 2.31341 15.0095C2.31324 15.0094 2.31358 15.0095 2.31341 15.0095L8.5356 17.7769C8.53537 17.7768 8.53582 17.777 8.5356 17.7769C8.83672 17.9099 9.174 17.9079 9.45986 17.779L9.46311 17.7775L15.6861 15.0097C15.6859 15.0098 15.6863 15.0096 15.6861 15.0097C16.2201 14.7707 16.5625 14.2447 16.5625 13.6665C16.5625 13.2868 16.8703 12.979 17.25 12.979C17.6297 12.979 17.9375 13.2868 17.9375 13.6665C17.9375 14.7931 17.2713 15.8072 16.2473 16.265L16.2461 16.2655L10.0251 19.0324C10.0245 19.0327 10.0239 19.0329 10.0233 19.0332C9.37481 19.325 8.63083 19.3225 7.9794 19.0344L1.75274 16.265C0.728744 15.8072 0.0625 14.7931 0.0625 13.6665C0.0625 13.2868 0.370304 12.979 0.75 12.979Z" fill="white"/>
</svg>
