<svg width="80" height="79" viewBox="0 0 80 79" fill="none" xmlns="http://www.w3.org/2000/svg">
<path d="M39.9997 78.7474C18.3679 78.7474 0.833008 61.2125 0.833008 39.5807C0.833008 17.949 18.3679 0.414062 39.9997 0.414062C61.6314 0.414062 79.1663 17.9529 79.1663 39.5807C79.1663 61.2086 61.6314 78.7474 39.9997 78.7474ZM39.9997 19.9974C38.9609 19.9974 37.9647 20.41 37.2302 21.1446C36.4957 21.8791 36.083 22.8753 36.083 23.9141V43.4974C36.083 44.5362 36.4957 45.5324 37.2302 46.2669C37.9647 47.0014 38.9609 47.4141 39.9997 47.4141C41.0384 47.4141 42.0347 47.0014 42.7692 46.2669C43.5037 45.5324 43.9163 44.5362 43.9163 43.4974V23.9141C43.9163 22.8753 43.5037 21.8791 42.7692 21.1446C42.0347 20.41 41.0384 19.9974 39.9997 19.9974ZM39.9997 59.1641C41.0384 59.1641 42.0347 58.7514 42.7692 58.0169C43.5037 57.2824 43.9163 56.2862 43.9163 55.2474C43.9163 54.2086 43.5037 53.2124 42.7692 52.4779C42.0347 51.7434 41.0384 51.3307 39.9997 51.3307C38.9609 51.3307 37.9647 51.7434 37.2302 52.4779C36.4957 53.2124 36.083 54.2086 36.083 55.2474C36.083 56.2862 36.4957 57.2824 37.2302 58.0169C37.9647 58.7514 38.9609 59.1641 39.9997 59.1641Z" fill="#660000"/>
</svg>
