<svg width="18" height="20" viewBox="0 0 18 20" fill="none" xmlns="http://www.w3.org/2000/svg">
<path d="M9.12741 0.933594C9.89598 0.933544 10.6354 1.22214 11.1941 1.74017C11.7527 2.2582 12.0882 2.9664 12.1317 3.71949L12.1364 3.88668H16.997C17.1729 3.88673 17.3423 3.95232 17.4708 4.0702C17.5994 4.18808 17.6775 4.34945 17.6895 4.52171C17.7015 4.69397 17.6464 4.86428 17.5354 4.99822C17.4244 5.13216 17.2657 5.21975 17.0914 5.24328L16.997 5.24964H16.26L15.0749 17.0802C15.0156 17.67 14.7445 18.2199 14.3102 18.6316C13.8759 19.0434 13.3066 19.2903 12.7039 19.3281L12.541 19.3336H5.71387C5.10973 19.3336 4.52528 19.1227 4.06497 18.7387C3.60466 18.3547 3.29849 17.8225 3.20117 17.2374L3.17987 17.0793L1.99389 5.24964H1.25785C1.09005 5.24964 0.927937 5.19 0.801479 5.08176C0.675021 4.97351 0.592778 4.82399 0.569957 4.66084L0.563477 4.56816C0.563484 4.40348 0.624251 4.24437 0.73454 4.12026C0.844829 3.99615 0.997179 3.91544 1.16341 3.89304L1.25785 3.88668H6.11846C6.11846 3.10347 6.43548 2.35234 6.99976 1.79853C7.56405 1.24472 8.32939 0.933594 9.12741 0.933594ZM14.8648 5.24964H3.38911L4.56214 16.9457C4.58811 17.2067 4.70529 17.4508 4.89379 17.6366C5.08229 17.8224 5.3305 17.9385 5.59629 17.9652L5.71387 17.9706H12.541C13.0964 17.9706 13.5677 17.5845 13.6751 17.0602L13.6936 16.9457L14.8639 5.24964H14.8648ZM10.7476 7.74841C10.9154 7.74841 11.0775 7.80805 11.204 7.9163C11.3304 8.02454 11.4127 8.17406 11.4355 8.33721L11.442 8.42989V14.7904C11.4419 14.963 11.3751 15.1293 11.255 15.2554C11.1349 15.3816 10.9705 15.4583 10.7949 15.4701C10.6194 15.4818 10.4459 15.4278 10.3094 15.3188C10.1729 15.2099 10.0837 15.0541 10.0597 14.8831L10.0532 14.7904V8.42989C10.0532 8.24915 10.1264 8.07581 10.2566 7.94801C10.3868 7.82021 10.5635 7.74841 10.7476 7.74841ZM7.50721 7.74841C7.675 7.74841 7.83712 7.80805 7.96358 7.9163C8.09004 8.02454 8.17228 8.17406 8.1951 8.33721L8.20158 8.42989V14.7904C8.20153 14.963 8.13469 15.1293 8.01459 15.2554C7.89448 15.3816 7.73006 15.4583 7.55454 15.4701C7.37902 15.4818 7.20549 15.4278 7.06901 15.3188C6.93254 15.2099 6.8433 15.0541 6.81932 14.8831L6.81283 14.7904V8.42989C6.81283 8.24915 6.88599 8.07581 7.01621 7.94801C7.14643 7.82021 7.32305 7.74841 7.50721 7.74841ZM9.12741 2.29656C8.7208 2.29657 8.32905 2.44664 8.02994 2.71697C7.73083 2.9873 7.54622 3.35812 7.51276 3.75584L7.50721 3.88668H10.7476C10.7476 3.46495 10.5769 3.0605 10.2731 2.76229C9.96922 2.46409 9.55712 2.29656 9.12741 2.29656Z" fill="#DE2A0E"/>
</svg>
