<svg width="16" height="16" viewBox="0 0 16 16" fill="none" xmlns="http://www.w3.org/2000/svg">
<path d="M8.80497 8.00031L11.235 5.57031C11.3169 5.47466 11.3597 5.35162 11.3548 5.22578C11.35 5.09994 11.2978 4.98057 11.2087 4.89152C11.1197 4.80248 11.0003 4.75031 10.8745 4.74545C10.7487 4.74059 10.6256 4.78339 10.53 4.86531L8.09997 7.27031L5.65497 4.82531C5.55932 4.74339 5.43628 4.70059 5.31044 4.70545C5.1846 4.71031 5.06523 4.76248 4.97619 4.85152C4.88714 4.94057 4.83497 5.05994 4.83011 5.18578C4.82525 5.31162 4.86805 5.43466 4.94997 5.53031L7.38997 8.00031L4.99997 10.3603C4.94763 10.4051 4.90512 10.4603 4.8751 10.5223C4.84509 10.5844 4.82823 10.6519 4.82557 10.7208C4.82291 10.7896 4.83451 10.8583 4.85965 10.9225C4.88479 10.9866 4.92291 11.0449 4.97164 11.0936C5.02037 11.1424 5.07864 11.1805 5.14281 11.2056C5.20697 11.2308 5.27563 11.2424 5.34449 11.2397C5.41335 11.237 5.48092 11.2202 5.54295 11.1902C5.60498 11.1602 5.66014 11.1176 5.70497 11.0653L8.08997 8.68031L10.46 11.0503C10.5556 11.1322 10.6787 11.175 10.8045 11.1702C10.9303 11.1653 11.0497 11.1131 11.1387 11.0241C11.2278 10.935 11.28 10.8157 11.2848 10.6898C11.2897 10.564 11.2469 10.441 11.165 10.3453L8.80497 8.00031Z" fill="#000606"/>
<path d="M8 16C6.41775 16 4.87103 15.5308 3.55544 14.6518C2.23985 13.7727 1.21447 12.5233 0.608967 11.0615C0.00346625 9.59966 -0.15496 7.99113 0.153721 6.43928C0.462403 4.88743 1.22433 3.46197 2.34315 2.34315C3.46197 1.22433 4.88743 0.462403 6.43928 0.153721C7.99113 -0.15496 9.59966 0.00346625 11.0615 0.608967C12.5233 1.21447 13.7727 2.23985 14.6518 3.55544C15.5308 4.87103 16 6.41775 16 8C16 10.1217 15.1571 12.1566 13.6569 13.6569C12.1566 15.1571 10.1217 16 8 16ZM8 1C6.61553 1 5.26216 1.41055 4.11101 2.17972C2.95987 2.94889 2.06266 4.04214 1.53285 5.32122C1.00303 6.6003 0.86441 8.00777 1.13451 9.36564C1.4046 10.7235 2.07129 11.9708 3.05026 12.9498C4.02922 13.9287 5.2765 14.5954 6.63437 14.8655C7.99224 15.1356 9.39971 14.997 10.6788 14.4672C11.9579 13.9373 13.0511 13.0401 13.8203 11.889C14.5895 10.7379 15 9.38447 15 8C15 6.14349 14.2625 4.36301 12.9498 3.05026C11.637 1.7375 9.85652 1 8 1Z" fill="#000606"/>
</svg>
