<svg width="12" height="12" viewBox="0 0 12 12" fill="none" xmlns="http://www.w3.org/2000/svg">
<path d="M8.33317 3.66667V1.91667H3.6665V3.66667H2.49984V0.75H9.49984V3.66667H8.33317ZM9.49984 6.29167C9.66511 6.29167 9.80375 6.23567 9.91575 6.12367C10.0278 6.01167 10.0836 5.87322 10.0832 5.70833C10.0828 5.54344 10.0268 5.405 9.91517 5.293C9.80356 5.181 9.66511 5.125 9.49984 5.125C9.33456 5.125 9.19611 5.181 9.0845 5.293C8.97289 5.405 8.91689 5.54344 8.9165 5.70833C8.91611 5.87322 8.97211 6.01186 9.0845 6.12425C9.19689 6.23664 9.33534 6.29244 9.49984 6.29167ZM8.33317 10.0833V7.75H3.6665V10.0833H8.33317ZM9.49984 11.25H2.49984V8.91667H0.166504V5.41667C0.166504 4.92083 0.336643 4.50531 0.676921 4.17008C1.0172 3.83486 1.43039 3.66706 1.9165 3.66667H10.0832C10.579 3.66667 10.9947 3.83447 11.3303 4.17008C11.6659 4.50569 11.8336 4.92122 11.8332 5.41667V8.91667H9.49984V11.25ZM10.6665 7.75V5.41667C10.6665 5.25139 10.6105 5.11294 10.4985 5.00133C10.3865 4.88972 10.2481 4.83372 10.0832 4.83333H1.9165C1.75123 4.83333 1.61278 4.88933 1.50117 5.00133C1.38956 5.11333 1.33356 5.25178 1.33317 5.41667V7.75H2.49984V6.58333H9.49984V7.75H10.6665Z" fill="white"/>
</svg>
