<svg width="11" height="12" viewBox="0 0 11 12" fill="none" xmlns="http://www.w3.org/2000/svg">
<path d="M1.41915 3.98088V2.3809L3.00765 3.40866V4.71919C3.00765 4.71919 3.01587 4.71551 3.02973 4.70944C3.05415 5.38936 3.33995 6.00459 3.78924 6.45349C4.25933 6.924 4.91091 7.21561 5.62848 7.2154C6.34604 7.21563 6.99786 6.92402 7.46771 6.45349C7.91722 6.00459 8.20302 5.38936 8.22725 4.70944C8.24129 4.71551 8.24952 4.71919 8.24952 4.71919V3.40866L10.2748 2.09836L5.62845 0L0.982367 2.09838V3.98088C0.83525 4.01571 0.725586 4.14703 0.725586 4.30472V4.40011H1.67612V4.30472C1.67612 4.14703 1.56622 4.01571 1.41915 3.98088ZM3.50539 4.5559C4.02763 4.43063 4.87541 4.35752 5.62845 4.88449C6.3815 4.35752 7.22952 4.43063 7.75173 4.5559C7.75215 4.57538 7.75302 4.59481 7.75302 4.61428C7.75302 5.20186 7.51571 5.73141 7.13084 6.11672C6.74558 6.50156 6.21601 6.73889 5.62845 6.73908C5.04113 6.73889 4.51154 6.50156 4.12627 6.11672C3.74143 5.73143 3.5041 5.20186 3.50389 4.61428C3.50389 4.59481 3.50497 4.57538 3.50539 4.5559Z" fill="#000606"/>
<path d="M0.725586 5.14953C0.725586 5.33384 0.874836 5.48309 1.05917 5.48309H1.34255C1.52663 5.48309 1.67612 5.33382 1.67612 5.14953V4.60156H0.725586V5.14953Z" fill="#000606"/>
<path d="M7.16373 7.35938C7.16373 7.35938 7.08908 7.41907 6.95452 7.49674L5.62822 9.74114L4.30191 7.49674C4.16736 7.41907 4.09273 7.35938 4.09273 7.35938C2.89252 7.88873 2.39844 9.15966 2.39844 10.1656C2.39844 11.1717 2.39844 11.9994 2.39844 11.9994H8.85826C8.85826 11.9994 8.85826 11.1717 8.85826 10.1656C8.85823 9.15966 8.36391 7.88873 7.16373 7.35938Z" fill="#000606"/>
</svg>
