<svg width="24" height="24" viewBox="0 0 24 24" fill="none" xmlns="http://www.w3.org/2000/svg">
<path d="M20.75 4.20312H3.25C2.69772 4.20312 2.25 4.65084 2.25 5.20313V18.8031C2.25 19.3554 2.69772 19.8031 3.25 19.8031H20.75C21.3023 19.8031 21.75 19.3554 21.75 18.8031V5.20313C21.75 4.65084 21.3023 4.20312 20.75 4.20312Z" stroke="white" stroke-width="1.25" stroke-linecap="round" stroke-linejoin="round"/>
<path d="M19.25 6.20312H4.75C4.47386 6.20312 4.25 6.42698 4.25 6.70312V17.3031C4.25 17.5793 4.47386 17.8031 4.75 17.8031H19.25C19.5261 17.8031 19.75 17.5793 19.75 17.3031V6.70312C19.75 6.42698 19.5261 6.20312 19.25 6.20312Z" stroke="white" stroke-width="1.25" stroke-linecap="round" stroke-linejoin="round"/>
<path d="M18.1498 16.7031H14.8398V17.7981H18.1498V16.7031Z" stroke="white" stroke-linecap="round" stroke-linejoin="round"/>
<path d="M12.9202 9.49871C12.7994 9.37777 12.656 9.28182 12.4981 9.21635C12.3403 9.15088 12.1711 9.11719 12.0002 9.11719C11.8293 9.11719 11.66 9.15088 11.5022 9.21635C11.3443 9.28182 11.2009 9.37777 11.0802 9.49871C10.9292 9.65045 10.8178 9.83701 10.7559 10.0419C10.694 10.2469 10.6835 10.4639 10.7253 10.6738C10.767 10.8838 10.8598 11.0803 10.9954 11.2459C11.131 11.4115 11.3053 11.5413 11.5029 11.6237C11.7005 11.7061 11.9153 11.7386 12.1284 11.7184C12.3415 11.6982 12.5464 11.6259 12.725 11.5078C12.9035 11.3897 13.0503 11.2295 13.1524 11.0414C13.2544 10.8532 13.3086 10.6428 13.3102 10.4287C13.3108 10.2546 13.2756 10.0821 13.2068 9.92213C13.138 9.76214 13.037 9.61802 12.9102 9.49871H12.9202Z" stroke="white" stroke-linecap="round" stroke-linejoin="round"/>
<path d="M11 12.7656H13C13.3978 12.7656 13.7794 12.9237 14.0607 13.205C14.342 13.4863 14.5 13.8678 14.5 14.2656V14.8706H9.5V14.2656C9.5 13.8678 9.65804 13.4863 9.93934 13.205C10.2206 12.9237 10.6022 12.7656 11 12.7656Z" stroke="white" stroke-linecap="round" stroke-linejoin="round"/>
<path d="M8.70987 10.7333C8.61691 10.6396 8.50631 10.5652 8.38445 10.5144C8.26259 10.4636 8.13189 10.4375 7.99987 10.4375C7.86786 10.4375 7.73716 10.4636 7.6153 10.5144C7.49344 10.5652 7.38284 10.6396 7.28987 10.7333C7.17469 10.8495 7.08977 10.9921 7.04255 11.1488C6.99534 11.3054 6.98727 11.4712 7.01906 11.6317C7.05086 11.7922 7.12153 11.9424 7.2249 12.0692C7.32827 12.196 7.46117 12.2955 7.61194 12.359C7.76272 12.4225 7.92677 12.448 8.0897 12.4333C8.25264 12.4187 8.40949 12.3642 8.5465 12.2748C8.6835 12.1854 8.79648 12.0638 8.87553 11.9205C8.95457 11.7773 8.99727 11.6169 8.99987 11.4533C8.99999 11.3201 8.97351 11.1883 8.92199 11.0655C8.87048 10.9428 8.79496 10.8315 8.69987 10.7383L8.70987 10.7333Z" stroke="white" stroke-linecap="round" stroke-linejoin="round"/>
<path d="M9.67043 13.5672C9.57706 13.4651 9.46353 13.3835 9.33701 13.3276C9.2105 13.2717 9.07376 13.2426 8.93543 13.2422H7.06543C6.80021 13.2422 6.54586 13.3475 6.35832 13.5351C6.17079 13.7226 6.06543 13.977 6.06543 14.2422V14.8672H9.50043" stroke="white" stroke-linecap="round" stroke-linejoin="round"/>
<path d="M16.7099 10.7333C16.6169 10.6396 16.5063 10.5652 16.3844 10.5144C16.2626 10.4636 16.1319 10.4375 15.9999 10.4375C15.8679 10.4375 15.7372 10.4636 15.6153 10.5144C15.4934 10.5652 15.3828 10.6396 15.2899 10.7333C15.1747 10.8495 15.0898 10.9921 15.0426 11.1488C14.9953 11.3054 14.9873 11.4712 15.0191 11.6317C15.0509 11.7922 15.1215 11.9424 15.2249 12.0692C15.3283 12.196 15.4612 12.2955 15.6119 12.359C15.7627 12.4225 15.9268 12.448 16.0897 12.4333C16.2526 12.4187 16.4095 12.3642 16.5465 12.2748C16.6835 12.1854 16.7965 12.0638 16.8755 11.9205C16.9546 11.7773 16.9973 11.6169 16.9999 11.4533C17 11.3201 16.9735 11.1883 16.922 11.0655C16.8705 10.9428 16.795 10.8315 16.6999 10.7383L16.7099 10.7333Z" stroke="white" stroke-linecap="round" stroke-linejoin="round"/>
<path d="M14.5001 14.8672H17.9301V14.2422C17.9301 13.977 17.8247 13.7226 17.6372 13.5351C17.4496 13.3475 17.1953 13.2422 16.9301 13.2422H15.0651C14.9267 13.2426 14.79 13.2717 14.6635 13.3276C14.537 13.3835 14.4234 13.4651 14.3301 13.5672" stroke="white" stroke-linecap="round" stroke-linejoin="round"/>
</svg>
