<svg width="24" height="24" viewBox="0 0 24 24" fill="none" xmlns="http://www.w3.org/2000/svg">
<path d="M12 0L11.4773 0.0234375L10.9594 0.0914063L10.4461 0.203906L9.94687 0.363281L9.46406 0.5625L9 0.803906L8.55937 1.0875L8.14453 1.40625L7.75547 1.75781L7.40391 2.14453L7.08516 2.55938L6.80391 3L6.5625 3.46641L6.36328 3.94922L6.20391 4.44844L6.09141 4.95938L6.02344 5.47969L6 6.00234L6.02109 6.81797L6.08906 7.63125L6.19922 8.44219L6.35391 9.24375L6.55078 10.0336L6.79219 10.8164L7.07812 11.5828L7.39922 12.3305L7.76484 13.0617L7.98281 13.432L8.23594 13.7813L8.31562 13.9148L8.35781 14.0648L8.3625 14.2172L8.325 14.3695L8.25 14.5055L8.14453 14.618L8.01328 14.7L7.86328 14.7445L6.83437 14.9391L5.8125 15.1758L4.80234 15.4547L3.80391 15.7758L2.82187 16.1344L2.44219 16.3102L2.08594 16.5258L1.75781 16.7836L1.46016 17.0766L1.19766 17.4L0.977344 17.7539L0.796875 18.1313L0.557812 18.7828L0.35625 19.4508L0.201562 20.1305L0.0890625 20.8148L0.0234375 21.5086L0 22.2047L0.0234375 22.3734L0.0960937 22.5305L0.20625 22.6594L0.351562 22.7508L0.513281 22.8H0.686719L0.848437 22.7508L0.99375 22.6594L1.10391 22.5305L1.17656 22.3734L1.2 22.2047L1.22109 21.5859L1.27969 20.9719L1.37812 20.3578L1.51641 19.7578L1.69453 19.1625L1.90781 18.5836L2.05078 18.2906L2.23125 18.0211L2.44687 17.7797L2.69297 17.5688L2.96484 17.3906L3.25781 17.2547L4.19531 16.9078L5.14453 16.6031L6.10547 16.3383L7.08047 16.1133L8.06016 15.9281L8.33672 15.8602L8.60391 15.7477L8.84531 15.5953L9.06094 15.4031L9.24141 15.1828L9.38672 14.932L9.49219 14.6648L9.54844 14.3836L9.56484 14.0977L9.53203 13.8117L9.45469 13.5352L9.33516 13.275L9.17812 13.0383L8.98828 12.7734L8.82422 12.4992L8.48906 11.8266L8.19141 11.1352L7.93125 10.432L7.70859 9.7125L7.52812 8.98359L7.38516 8.24531L7.28203 7.50234L7.21875 6.75469L7.2 6.00234L7.22344 5.53125L7.29375 5.06484L7.40625 4.60781L7.56562 4.16484L7.76719 3.73828L8.00859 3.33516L8.28984 2.95547L8.60391 2.60625L8.95547 2.28984L9.33281 2.00859L9.73828 1.76953L10.1648 1.56563L10.6078 1.40859L11.0625 1.29375L11.5289 1.22344L12 1.2L12.4711 1.22344L12.9375 1.29375L13.3922 1.40859L13.8352 1.56563L14.2641 1.76953L14.6672 2.00859L15.0445 2.28984L15.3961 2.60625L15.7102 2.95547L15.9914 3.33516L16.2328 3.73828L16.4344 4.16484L16.5937 4.60781L16.7086 5.06484L16.7789 5.53125L16.8 6.00234L16.7812 6.75469L16.718 7.50234L16.6148 8.24531L16.4742 8.98359L16.2914 9.7125L16.0687 10.432L15.8086 11.1352L15.5109 11.8266L15.1758 12.4992L15.0117 12.7734L14.8219 13.0383L14.6648 13.275L14.5453 13.5352L14.468 13.8117L14.4352 14.0977L14.4516 14.3836L14.5102 14.6648L14.6133 14.932L14.7586 15.1828L14.9414 15.4031L15.1547 15.5953L15.3961 15.7477L15.6633 15.8602L15.9398 15.9281L16.9195 16.1133L17.8945 16.3383L18.7711 16.5797L19.725 15.6258L19.1977 15.4547L18.1875 15.1758L17.168 14.9391L16.1367 14.7445L15.9867 14.7L15.8555 14.618L15.75 14.5055L15.675 14.3695L15.6398 14.2172L15.6422 14.0648L15.6844 13.9148L15.7641 13.7813L16.0172 13.432L16.2352 13.0617L16.6008 12.3305L16.9242 11.5828L17.2078 10.8164L17.4492 10.0336L17.6461 9.24375L17.8008 8.44219L17.9109 7.63125L17.9789 6.81797L18 6.00234L17.9789 5.47969L17.9086 4.95938L17.7961 4.44844L17.6367 3.94922L17.4375 3.46641L17.1961 3L16.9172 2.55938L16.5961 2.14453L16.2445 1.75781L15.8555 1.40625L15.443 1.0875L15 0.803906L14.5359 0.5625L14.0531 0.363281L13.5539 0.203906L13.0406 0.0914063L12.5227 0.0234375L12 0ZM23.3812 15.5953C23.2255 15.5996 23.0776 15.6644 22.9687 15.7758L16.193 22.5516L13.0172 19.3758C12.9619 19.3182 12.8957 19.2722 12.8224 19.2406C12.7491 19.2089 12.6703 19.1922 12.5904 19.1914C12.5106 19.1905 12.4314 19.2057 12.3575 19.2358C12.2836 19.266 12.2165 19.3106 12.16 19.3671C12.1036 19.4235 12.059 19.4907 12.0288 19.5646C11.9986 19.6385 11.9835 19.7177 11.9843 19.7975C11.9851 19.8773 12.0019 19.9562 12.0335 20.0294C12.0652 20.1027 12.1112 20.1689 12.1687 20.2242L15.7687 23.8242C15.8813 23.9367 16.0339 23.9999 16.193 23.9999C16.3521 23.9999 16.5047 23.9367 16.6172 23.8242L23.8172 16.6242C23.9035 16.5399 23.9623 16.4315 23.986 16.3132C24.0098 16.1949 23.9973 16.0722 23.9502 15.9611C23.9031 15.85 23.8237 15.7556 23.7222 15.6904C23.6207 15.6251 23.5019 15.592 23.3812 15.5953Z" fill="white"/>
</svg>
