<svg width="22" height="22" viewBox="0 0 22 22" fill="none" xmlns="http://www.w3.org/2000/svg">
<path fill-rule="evenodd" clip-rule="evenodd" d="M16.8233 0V6.4705H15.5292V1.2941H1.2941V20.7056H15.5292V18.1174H16.8233V21.9997H0V0H16.8233ZM18.3063 6.66086C18.56 6.40721 18.9689 6.40721 19.2225 6.66086L21.8107 9.24905C22.0631 9.5014 22.0631 9.91034 21.8107 10.164L14.0461 17.9286C13.9245 18.0489 13.7601 18.1175 13.588 18.1175H10.9998C10.6427 18.1175 10.3528 17.8276 10.3528 17.4705V14.8823C10.3528 14.7102 10.4214 14.5458 10.5417 14.4254L18.3063 6.66086ZM16.5269 10.2701L11.6469 15.1501V16.8234H13.3202L18.2002 11.9434L16.5269 10.2701ZM7.76459 14.2352V15.5293H3.88231V14.2352H7.76459ZM10.3528 11.647V12.9411H3.88229V11.647H10.3528H10.3528ZM18.7644 8.03259L17.4419 9.35517L19.1151 11.0284L20.4377 9.70587L18.7644 8.03259ZM12.941 3.88243V9.05882H3.88231V3.88243H12.941ZM11.6469 5.17653H5.17641V7.76472H11.6469V5.17653H11.6469Z" fill="white"/>
</svg>
