<svg width="20" height="22" viewBox="0 0 20 22" fill="none" xmlns="http://www.w3.org/2000/svg">
<path d="M10.04 2.5L7.53 5H12.53L10.04 2.5ZM2 7V20H18V7H2ZM10 0L15 5H18C18.5304 5 19.0391 5.21071 19.4142 5.58579C19.7893 5.96086 20 6.46957 20 7V20C20 20.5304 19.7893 21.0391 19.4142 21.4142C19.0391 21.7893 18.5304 22 18 22H2C1.46957 22 0.960859 21.7893 0.585786 21.4142C0.210714 21.0391 0 20.5304 0 20V7C0 6.46957 0.210714 5.96086 0.585786 5.58579C0.960859 5.21071 1.46957 5 2 5H5L10 0ZM5 18V14H10V18H5ZM12 17V10H16V17H12ZM4 12V9H9V12H4Z" fill="white"/>
</svg>
