<svg width="17" height="20" viewBox="0 0 17 20" fill="none" xmlns="http://www.w3.org/2000/svg">
<path d="M1 19V17C1 15.9391 1.42143 14.9217 2.17157 14.1716C2.92172 13.4214 3.93913 13 5 13H9M10 17L12 19L16 15M3 5C3 6.06087 3.42143 7.07828 4.17157 7.82843C4.92172 8.57857 5.93913 9 7 9C8.06087 9 9.07828 8.57857 9.82843 7.82843C10.5786 7.07828 11 6.06087 11 5C11 3.93913 10.5786 2.92172 9.82843 2.17157C9.07828 1.42143 8.06087 1 7 1C5.93913 1 4.92172 1.42143 4.17157 2.17157C3.42143 2.92172 3 3.93913 3 5Z" stroke="white" stroke-width="2" stroke-linecap="round" stroke-linejoin="round"/>
</svg>
