<svg width="18" height="18" viewBox="0 0 18 18" fill="none" xmlns="http://www.w3.org/2000/svg">
<path fill-rule="evenodd" clip-rule="evenodd" d="M7.39551 15.875C7.39551 15.4953 7.70331 15.1875 8.08301 15.1875H17.2497C17.6294 15.1875 17.9372 15.4953 17.9372 15.875C17.9372 16.2547 17.6294 16.5625 17.2497 16.5625H8.08301C7.70331 16.5625 7.39551 16.2547 7.39551 15.875Z" fill="white"/>
<path fill-rule="evenodd" clip-rule="evenodd" d="M7.39551 9.46094C7.39551 9.08124 7.70331 8.77344 8.08301 8.77344H17.2497C17.6294 8.77344 17.9372 9.08124 17.9372 9.46094C17.9372 9.84063 17.6294 10.1484 17.2497 10.1484H8.08301C7.70331 10.1484 7.39551 9.84063 7.39551 9.46094Z" fill="white"/>
<path fill-rule="evenodd" clip-rule="evenodd" d="M7.39551 3.04688C7.39551 2.66718 7.70331 2.35938 8.08301 2.35938H17.2497C17.6294 2.35938 17.9372 2.66718 17.9372 3.04688C17.9372 3.42657 17.6294 3.73438 17.2497 3.73438H8.08301C7.70331 3.73438 7.39551 3.42657 7.39551 3.04688Z" fill="white"/>
<path fill-rule="evenodd" clip-rule="evenodd" d="M4.9028 0.724802C5.17129 0.993287 5.17129 1.42859 4.9028 1.69707L2.1528 4.44707C1.88432 4.71556 1.44902 4.71556 1.18053 4.44707L0.263864 3.53041C-0.00462136 3.26192 -0.00462136 2.82662 0.263864 2.55813C0.532349 2.28965 0.96765 2.28965 1.23614 2.55813L1.66667 2.98867L3.93053 0.724802C4.19902 0.456316 4.63432 0.456316 4.9028 0.724802Z" fill="white"/>
<path fill-rule="evenodd" clip-rule="evenodd" d="M4.9028 7.13886C5.17129 7.40735 5.17129 7.84265 4.9028 8.11114L2.1528 10.8611C1.88432 11.1296 1.44902 11.1296 1.18053 10.8611L0.263864 9.94447C-0.00462136 9.67598 -0.00462136 9.24068 0.263864 8.9722C0.532349 8.70371 0.96765 8.70371 1.23614 8.9722L1.66667 9.40273L3.93053 7.13886C4.19902 6.87038 4.63432 6.87038 4.9028 7.13886Z" fill="white"/>
<path fill-rule="evenodd" clip-rule="evenodd" d="M4.9028 13.5607C5.17129 13.8292 5.17129 14.2645 4.9028 14.533L2.1528 17.283C1.88432 17.5515 1.44902 17.5515 1.18053 17.283L0.263864 16.3663C-0.00462136 16.0979 -0.00462136 15.6626 0.263864 15.3941C0.532349 15.1256 0.96765 15.1256 1.23614 15.3941L1.66667 15.8246L3.93053 13.5607C4.19902 13.2923 4.63432 13.2923 4.9028 13.5607Z" fill="white"/>
</svg>
