<svg width="18" height="18" viewBox="0 0 18 18" fill="none" xmlns="http://www.w3.org/2000/svg">
<g clip-path="url(#clip0_52_35638)">
<path fill-rule="evenodd" clip-rule="evenodd" d="M0.75 9C0.75 4.44365 4.44365 0.75 9 0.75C13.5563 0.75 17.25 4.44365 17.25 9C17.25 13.5563 13.5563 17.25 9 17.25C4.44365 17.25 0.75 13.5563 0.75 9ZM7.54395 4.5416C7.5201 4.1117 7.86225 3.75 8.29283 3.75H9.70717C10.1377 3.75 10.4799 4.1117 10.456 4.5416L10.1644 9.79163C10.1423 10.189 9.81353 10.5 9.4155 10.5H8.5845C8.18648 10.5 7.85775 10.189 7.83563 9.79163L7.54395 4.5416ZM10.5 12.75C10.5 13.5785 9.82845 14.25 9 14.25C8.17155 14.25 7.5 13.5785 7.5 12.75C7.5 11.9215 8.17155 11.25 9 11.25C9.82845 11.25 10.5 11.9215 10.5 12.75Z" fill="#DE2A0E"/>
</g>
<defs>
<clipPath id="clip0_52_35638">
<rect width="18" height="18" fill="white"/>
</clipPath>
</defs>
</svg>
