<svg width="14" height="14" viewBox="0 0 14 14" fill="none" xmlns="http://www.w3.org/2000/svg">
<path d="M13.1284 1.31138L9.62536 1.31139V0.439453C9.62536 0.197734 9.42957 0.00195312 9.18786 0.00195312C8.94614 0.00195312 8.75036 0.197734 8.75036 0.439453V1.31117H5.25036V0.439453C5.25036 0.197734 5.05457 0.00195312 4.81286 0.00195312C4.57114 0.00195312 4.37536 0.197734 4.37536 0.439453V1.31117H0.878418C0.395199 1.31117 0.00341797 1.70295 0.00341797 2.18617V13.1237C0.00341797 13.6069 0.395199 13.9987 0.878418 13.9987H13.1284C13.6116 13.9987 14.0034 13.6069 14.0034 13.1237V2.18617C14.0034 1.70316 13.6116 1.31138 13.1284 1.31138ZM13.1284 13.1237H0.878418V2.18617H4.37536V2.62695C4.37536 2.86866 4.57114 3.06445 4.81286 3.06445C5.05457 3.06445 5.25036 2.86866 5.25036 2.62695V2.18639H8.75036V2.62717C8.75036 2.86889 8.94614 3.06467 9.18786 3.06467C9.42957 3.06467 9.62536 2.86889 9.62536 2.62717V2.18639H13.1284V13.1237ZM10.0659 6.99888H10.9409C11.1824 6.99888 11.3784 6.80288 11.3784 6.56138V5.68638C11.3784 5.44488 11.1824 5.24888 10.9409 5.24888H10.0659C9.82442 5.24888 9.62842 5.44488 9.62842 5.68638V6.56138C9.62842 6.80288 9.82442 6.99888 10.0659 6.99888ZM10.0659 10.4987H10.9409C11.1824 10.4987 11.3784 10.3029 11.3784 10.0612V9.18616C11.3784 8.94466 11.1824 8.74866 10.9409 8.74866H10.0659C9.82442 8.74866 9.62842 8.94466 9.62842 9.18616V10.0612C9.62842 10.3031 9.82442 10.4987 10.0659 10.4987ZM7.44092 8.74866H6.56592C6.32442 8.74866 6.12842 8.94466 6.12842 9.18616V10.0612C6.12842 10.3029 6.32442 10.4987 6.56592 10.4987H7.44092C7.68242 10.4987 7.87842 10.3029 7.87842 10.0612V9.18616C7.87842 8.94488 7.68242 8.74866 7.44092 8.74866ZM7.44092 5.24888H6.56592C6.32442 5.24888 6.12842 5.44488 6.12842 5.68638V6.56138C6.12842 6.80288 6.32442 6.99888 6.56592 6.99888H7.44092C7.68242 6.99888 7.87842 6.80288 7.87842 6.56138V5.68638C7.87842 5.44466 7.68242 5.24888 7.44092 5.24888ZM3.94092 5.24888H3.06592C2.82442 5.24888 2.62842 5.44488 2.62842 5.68638V6.56138C2.62842 6.80288 2.82442 6.99888 3.06592 6.99888H3.94092C4.18242 6.99888 4.37842 6.80288 4.37842 6.56138V5.68638C4.37842 5.44466 4.18242 5.24888 3.94092 5.24888ZM3.94092 8.74866H3.06592C2.82442 8.74866 2.62842 8.94466 2.62842 9.18616V10.0612C2.62842 10.3029 2.82442 10.4987 3.06592 10.4987H3.94092C4.18242 10.4987 4.37842 10.3029 4.37842 10.0612V9.18616C4.37842 8.94488 4.18242 8.74866 3.94092 8.74866Z" fill="#660000"/>
</svg>
