<svg width="22" height="22" viewBox="0 0 22 22" fill="none" xmlns="http://www.w3.org/2000/svg">
<path fill-rule="evenodd" clip-rule="evenodd" d="M4.00033 2.5415C3.19533 2.5415 2.54199 3.19484 2.54199 3.99984V7.49984C2.54199 7.7319 2.44981 7.95446 2.28571 8.11856C2.12162 8.28265 1.89906 8.37484 1.66699 8.37484C1.43493 8.37484 1.21237 8.28265 1.04827 8.11856C0.884179 7.95446 0.791992 7.7319 0.791992 7.49984V3.99984C0.791992 3.14893 1.13001 2.33288 1.73169 1.7312C2.33337 1.12952 3.14942 0.791504 4.00033 0.791504H7.50033C7.73239 0.791504 7.95495 0.883691 8.11904 1.04779C8.28314 1.21188 8.37533 1.43444 8.37533 1.6665C8.37533 1.89857 8.28314 2.12113 8.11904 2.28522C7.95495 2.44932 7.73239 2.5415 7.50033 2.5415H4.00033ZM13.6253 1.6665C13.6253 1.43444 13.7175 1.21188 13.8816 1.04779C14.0457 0.883691 14.2683 0.791504 14.5003 0.791504H18.0003C18.8512 0.791504 19.6673 1.12952 20.269 1.7312C20.8706 2.33288 21.2087 3.14893 21.2087 3.99984V7.49984C21.2087 7.7319 21.1165 7.95446 20.9524 8.11856C20.7883 8.28265 20.5657 8.37484 20.3337 8.37484C20.1016 8.37484 19.879 8.28265 19.7149 8.11856C19.5508 7.95446 19.4587 7.7319 19.4587 7.49984V3.99984C19.4587 3.19484 18.8053 2.5415 18.0003 2.5415H14.5003C14.2683 2.5415 14.0457 2.44932 13.8816 2.28522C13.7175 2.12113 13.6253 1.89857 13.6253 1.6665ZM1.66699 13.6248C1.89906 13.6248 2.12162 13.717 2.28571 13.8811C2.44981 14.0452 2.54199 14.2678 2.54199 14.4998V17.9998C2.54199 18.8048 3.19533 19.4582 4.00033 19.4582H7.50033C7.73239 19.4582 7.95495 19.5504 8.11904 19.7145C8.28314 19.8785 8.37533 20.1011 8.37533 20.3332C8.37533 20.5652 8.28314 20.7878 8.11904 20.9519C7.95495 21.116 7.73239 21.2082 7.50033 21.2082H4.00033C3.14942 21.2082 2.33337 20.8701 1.73169 20.2685C1.13001 19.6668 0.791992 18.8507 0.791992 17.9998V14.4998C0.791992 14.2678 0.884179 14.0452 1.04827 13.8811C1.21237 13.717 1.43493 13.6248 1.66699 13.6248ZM20.3337 13.6248C20.5657 13.6248 20.7883 13.717 20.9524 13.8811C21.1165 14.0452 21.2087 14.2678 21.2087 14.4998V17.9998C21.2087 18.8507 20.8706 19.6668 20.269 20.2685C19.6673 20.8701 18.8512 21.2082 18.0003 21.2082H14.5003C14.2683 21.2082 14.0457 21.116 13.8816 20.9519C13.7175 20.7878 13.6253 20.5652 13.6253 20.3332C13.6253 20.1011 13.7175 19.8785 13.8816 19.7145C14.0457 19.5504 14.2683 19.4582 14.5003 19.4582H18.0003C18.8053 19.4582 19.4587 18.8048 19.4587 17.9998V14.4998C19.4587 14.2678 19.5508 14.0452 19.7149 13.8811C19.879 13.717 20.1016 13.6248 20.3337 13.6248Z" fill="#660000"/>
</svg>
