<svg width="39" height="39" viewBox="0 0 39 39" fill="none" xmlns="http://www.w3.org/2000/svg">
<path d="M13.65 27.625L19.5 21.775L25.35 27.625L27.625 25.35L21.775 19.5L27.625 13.65L25.35 11.375L19.5 17.225L13.65 11.375L11.375 13.65L17.225 19.5L11.375 25.35L13.65 27.625ZM19.5 35.75C17.2521 35.75 15.1396 35.3232 13.1625 34.4695C11.1854 33.6158 9.46563 32.4583 8.00313 30.9969C6.54063 29.5344 5.38308 27.8146 4.5305 25.8375C3.67792 23.8604 3.25108 21.7479 3.25 19.5C3.25 17.2521 3.67683 15.1396 4.5305 13.1625C5.38417 11.1854 6.54171 9.46563 8.00313 8.00313C9.46563 6.54063 11.1854 5.38308 13.1625 4.5305C15.1396 3.67792 17.2521 3.25108 19.5 3.25C21.7479 3.25 23.8604 3.67683 25.8375 4.5305C27.8146 5.38417 29.5344 6.54171 30.9969 8.00313C32.4594 9.46563 33.6175 11.1854 34.4711 13.1625C35.3248 15.1396 35.7511 17.2521 35.75 19.5C35.75 21.7479 35.3232 23.8604 34.4695 25.8375C33.6158 27.8146 32.4583 29.5344 30.9969 30.9969C29.5344 32.4594 27.8146 33.6175 25.8375 34.4711C23.8604 35.3248 21.7479 35.7511 19.5 35.75Z" fill="#660000"/>
</svg>
