<svg width="20" height="14" viewBox="0 0 20 14" fill="none" xmlns="http://www.w3.org/2000/svg">
<path d="M19.053 6.78364C18.3045 4.84759 17.0051 3.1733 15.3154 1.96769C13.6257 0.762081 11.6197 0.078001 9.54545 0C7.47118 0.078001 5.46522 0.762081 3.77551 1.96769C2.0858 3.1733 0.786399 4.84759 0.0379122 6.78364C-0.0126374 6.92345 -0.0126374 7.07655 0.0379122 7.21636C0.786399 9.15241 2.0858 10.8267 3.77551 12.0323C5.46522 13.2379 7.47118 13.922 9.54545 14C11.6197 13.922 13.6257 13.2379 15.3154 12.0323C17.0051 10.8267 18.3045 9.15241 19.053 7.21636C19.1035 7.07655 19.1035 6.92345 19.053 6.78364ZM9.54545 11.1364C8.72734 11.1364 7.92759 10.8938 7.24735 10.4393C6.56711 9.98475 6.03693 9.33874 5.72384 8.58292C5.41076 7.8271 5.32885 6.99541 5.48846 6.19304C5.64806 5.39066 6.04202 4.65363 6.62052 4.07515C7.19902 3.49667 7.93607 3.10272 8.73847 2.94312C9.54087 2.78351 10.3726 2.86543 11.1284 3.1785C11.8843 3.49157 12.5303 4.02174 12.9848 4.70196C13.4393 5.38218 13.6819 6.1819 13.6819 7C13.6803 8.09651 13.2439 9.14764 12.4685 9.92299C11.6932 10.6983 10.642 11.1347 9.54545 11.1364Z" fill="white"/>
</svg>
