<svg width="23" height="23" viewBox="0 0 23 23" fill="none" xmlns="http://www.w3.org/2000/svg">
<path d="M11.7437 13.976L9.63169 13.952C9.91969 13.248 10.3317 12.636 10.8677 12.116C11.4037 11.596 12.0237 11.224 12.7277 11C13.6077 10.712 14.4917 10.684 15.3797 10.916C16.2677 11.148 17.0317 11.608 17.6717 12.296C17.7357 12.376 17.8197 12.416 17.9237 12.416C18.0277 12.416 18.1197 12.384 18.1997 12.32L18.8237 11.744C18.9037 11.664 18.9477 11.568 18.9557 11.456C18.9637 11.344 18.9277 11.248 18.8477 11.168C17.9997 10.24 16.9837 9.61995 15.7997 9.30795C14.6157 8.99595 13.4397 9.02395 12.2717 9.39195C11.2317 9.72795 10.3317 10.3 9.57169 11.108C8.81169 11.916 8.27169 12.864 7.95169 13.952H5.71969C5.65569 13.952 5.61569 13.976 5.59969 14.024C5.58369 14.072 5.59169 14.12 5.62369 14.168L8.64769 17.624C8.66369 17.64 8.68769 17.648 8.71969 17.648C8.75169 17.648 8.78369 17.64 8.81569 17.624L11.8397 14.192C11.8717 14.144 11.8797 14.096 11.8637 14.048C11.8477 14 11.8077 13.976 11.7437 13.976ZM22.5677 17.408L19.5677 13.952C19.5357 13.92 19.5037 13.904 19.4717 13.904C19.4397 13.904 19.4157 13.92 19.3997 13.952L16.3757 17.384C16.3277 17.416 16.3157 17.46 16.3397 17.516C16.3637 17.572 16.3997 17.6 16.4477 17.6H18.5597C18.2877 18.32 17.8797 18.94 17.3357 19.46C16.7917 19.98 16.1677 20.352 15.4637 20.576C14.5837 20.864 13.7037 20.888 12.8237 20.648C11.9437 20.408 11.1837 19.952 10.5437 19.28C10.4637 19.2 10.3757 19.156 10.2797 19.148C10.1837 19.14 10.0957 19.176 10.0157 19.256L9.39169 19.808C9.31169 19.888 9.26769 19.984 9.25969 20.096C9.25169 20.208 9.28769 20.312 9.36769 20.408C9.97569 21.064 10.6837 21.572 11.4917 21.932C12.2997 22.292 13.1437 22.472 14.0237 22.472C14.6797 22.472 15.3197 22.368 15.9437 22.16C16.9837 21.824 17.8837 21.256 18.6437 20.456C19.4037 19.656 19.9357 18.712 20.2397 17.624H22.4957C22.5437 17.624 22.5797 17.596 22.6037 17.54C22.6277 17.484 22.6157 17.44 22.5677 17.408ZM0.679688 5.04795V15.776C0.679688 16 0.755687 16.188 0.907688 16.34C1.05969 16.492 1.24769 16.568 1.47169 16.568H4.51969C4.61569 16.568 4.70369 16.532 4.78369 16.46C4.86369 16.388 4.90369 16.296 4.90369 16.184V15.656C4.90369 15.544 4.86369 15.448 4.78369 15.368C4.70369 15.288 4.61569 15.248 4.51969 15.248H1.99969V6.10395H15.6317V7.44795C15.6317 7.55995 15.6677 7.65595 15.7397 7.73595C15.8117 7.81595 15.9037 7.85595 16.0157 7.85595H16.5197C16.6317 7.85595 16.7277 7.81595 16.8077 7.73595C16.8877 7.65595 16.9277 7.55995 16.9277 7.44795V5.04795H0.679688ZM16.9277 4.27995V2.95995C16.9277 2.75195 16.8517 2.56795 16.6997 2.40795C16.5477 2.24795 16.3597 2.16795 16.1357 2.16795H13.7117V1.85595C13.7117 1.66395 13.6637 1.47995 13.5677 1.30395C13.4717 1.12795 13.3397 0.991953 13.1717 0.895953C13.0037 0.799953 12.8237 0.751953 12.6317 0.751953C12.4397 0.751953 12.2597 0.799953 12.0917 0.895953C11.9237 0.991953 11.7917 1.12795 11.6957 1.30395C11.5997 1.47995 11.5517 1.66395 11.5517 1.85595V2.16795H6.03169V1.85595C6.03169 1.55195 5.92769 1.29595 5.71969 1.08795C5.51169 0.879953 5.25969 0.775953 4.96369 0.775953C4.66769 0.775953 4.41569 0.879953 4.20769 1.08795C3.99969 1.29595 3.89569 1.55195 3.89569 1.85595V2.16795H1.47169C1.24769 2.16795 1.05969 2.24795 0.907688 2.40795C0.755687 2.56795 0.679688 2.75195 0.679688 2.95995V4.27995H16.9277Z" fill="#660000"/>
</svg>
