<svg width="42" height="43" viewBox="0 0 42 43" fill="none" xmlns="http://www.w3.org/2000/svg">
<g clip-path="url(#clip0_6873_16149)">
<path d="M33.4417 3.62109H14.1743V11.6111H37.5567V7.73451C37.5567 5.46616 35.7107 3.62109 33.4417 3.62109Z" fill="#C0C0C0"/>
<path d="M22.5352 12.8403H0V5.42636C0 2.70972 2.21068 0.5 4.92828 0.5H12.1336C12.8497 0.5 13.5396 0.650925 14.1664 0.934509C15.0418 1.32896 15.7939 1.97913 16.3213 2.8286L22.5352 12.8403Z" fill="#660000"/>
<path d="M42 14.5004V38.3817C42 40.653 40.1511 42.5003 37.8789 42.5003H4.12111C1.84891 42.5003 0 40.653 0 38.3817V10.3809H37.8789C40.1511 10.3809 42 12.2288 42 14.5004Z" fill="#660000"/>
<path d="M42 14.5004V38.3817C42 40.653 40.1511 42.5003 37.8789 42.5003H21V10.3809H37.8789C40.1511 10.3809 42 12.2288 42 14.5004Z" fill="#660000"/>
<path d="M32.048 26.4395C32.048 32.532 27.0919 37.4884 21.0001 37.4884C14.9083 37.4884 9.95215 32.532 9.95215 26.4395C9.95215 20.3481 14.9083 15.3916 21.0001 15.3916C27.0919 15.3916 32.048 20.3481 32.048 26.4395Z" fill="#C0C0C0"/>
<path d="M32.0479 26.4395C32.0479 32.532 27.0918 37.4884 21 37.4884V15.3916C27.0918 15.3916 32.0479 20.3481 32.0479 26.4395Z" fill="#C0C0C0"/>
<path d="M24.5612 26.5758C24.3308 26.7709 24.0485 26.8661 23.7688 26.8661C23.4185 26.8661 23.0705 26.7177 22.827 26.4287L22.2307 25.7218V30.3499C22.2307 31.0292 21.6795 31.5803 21.0002 31.5803C20.3209 31.5803 19.7698 31.0292 19.7698 30.3499V25.7218L19.1734 26.4287C18.7344 26.9481 17.9587 27.0145 17.4392 26.5758C16.9201 26.1378 16.8535 25.3617 17.2915 24.8422L19.7271 21.9548C20.0447 21.5793 20.508 21.3633 21.0002 21.3633C21.4924 21.3633 21.9558 21.5793 22.2733 21.9548L24.7089 24.8422C25.147 25.3617 25.0803 26.1378 24.5612 26.5758Z" fill="#660000"/>
<path d="M24.561 26.5758C24.3306 26.7709 24.0483 26.8661 23.7686 26.8661C23.4183 26.8661 23.0703 26.7177 22.8268 26.4287L22.2305 25.7218V30.3499C22.2305 31.0292 21.6793 31.5803 21 31.5803V21.3633C21.4922 21.3633 21.9555 21.5793 22.2731 21.9548L24.7087 24.8422C25.1467 25.3617 25.0801 26.1378 24.561 26.5758Z" fill="#660000"/>
</g>
<defs>
<clipPath id="clip0_6873_16149">
<rect width="42" height="42" fill="white" transform="translate(0 0.5)"/>
</clipPath>
</defs>
</svg>
