<svg width="10" height="12" viewBox="0 0 10 12" fill="none" xmlns="http://www.w3.org/2000/svg">
<path d="M0.919148 3.98088V2.3809L2.50765 3.40866V4.71919C2.50765 4.71919 2.51587 4.71551 2.52973 4.70944C2.55415 5.38936 2.83995 6.00459 3.28924 6.45349C3.75933 6.924 4.41091 7.21561 5.12848 7.2154C5.84604 7.21563 6.49786 6.92402 6.96771 6.45349C7.41722 6.00459 7.70302 5.38936 7.72725 4.70944C7.74129 4.71551 7.74952 4.71919 7.74952 4.71919V3.40866L9.7748 2.09836L5.12845 0L0.482367 2.09838V3.98088C0.33525 4.01571 0.225586 4.14703 0.225586 4.30472V4.40011H1.17612V4.30472C1.17612 4.14703 1.06622 4.01571 0.919148 3.98088ZM3.00539 4.5559C3.52763 4.43063 4.37541 4.35752 5.12845 4.88449C5.8815 4.35752 6.72952 4.43063 7.25173 4.5559C7.25215 4.57538 7.25302 4.59481 7.25302 4.61428C7.25302 5.20186 7.01571 5.73141 6.63084 6.11672C6.24558 6.50156 5.71601 6.73889 5.12845 6.73908C4.54113 6.73889 4.01154 6.50156 3.62627 6.11672C3.24143 5.73143 3.0041 5.20186 3.00389 4.61428C3.00389 4.59481 3.00497 4.57538 3.00539 4.5559Z" fill="#000606"/>
<path d="M0.225586 5.1466C0.225586 5.33091 0.374836 5.48016 0.559172 5.48016H0.842555C1.02663 5.48016 1.17612 5.33089 1.17612 5.1466V4.59863H0.225586V5.1466Z" fill="#000606"/>
<path d="M6.66373 7.36035C6.66373 7.36035 6.58908 7.42005 6.45452 7.49772L5.12822 9.74212L3.80191 7.49772C3.66736 7.42005 3.59273 7.36035 3.59273 7.36035C2.39252 7.88971 1.89844 9.16063 1.89844 10.1666C1.89844 11.1727 1.89844 12.0004 1.89844 12.0004H8.35826C8.35826 12.0004 8.35826 11.1727 8.35826 10.1666C8.35823 9.16063 7.86391 7.88971 6.66373 7.36035Z" fill="#000606"/>
</svg>
