<svg width="11" height="21" viewBox="0 0 11 21" fill="none" xmlns="http://www.w3.org/2000/svg">
<path d="M1.23798 10.0233C1.16429 9.95466 1.10519 9.87186 1.06419 9.77986C1.0232 9.68786 1.00116 9.58854 0.999384 9.48784C0.997608 9.38714 1.01613 9.28711 1.05385 9.19372C1.09157 9.10033 1.14772 9.0155 1.21894 8.94428C1.29016 8.87306 1.37499 8.81692 1.46838 8.77919C1.56177 8.74147 1.6618 8.72295 1.7625 8.72473C1.8632 8.7265 1.96251 8.74854 2.05451 8.78954C2.14651 8.83053 2.22931 8.88963 2.29798 8.96332L5.30398 11.9683L8.30898 8.96332C8.37764 8.88963 8.46044 8.83053 8.55244 8.78954C8.64444 8.74854 8.74375 8.7265 8.84445 8.72473C8.94516 8.72295 9.04519 8.74147 9.13857 8.77919C9.23196 8.81692 9.3168 8.87306 9.38801 8.94428C9.45923 9.0155 9.51538 9.10033 9.5531 9.19372C9.59082 9.28711 9.60934 9.38714 9.60757 9.48784C9.60579 9.58854 9.58375 9.68786 9.54276 9.77986C9.50177 9.87186 9.44266 9.95466 9.36898 10.0233L5.81998 13.5733C5.73997 13.6533 5.64293 13.7141 5.5361 13.7512C5.42927 13.7884 5.31543 13.8009 5.20309 13.7878C5.09075 13.7747 4.98282 13.7364 4.88738 13.6757C4.79194 13.615 4.71147 13.5335 4.65198 13.4373L1.23798 10.0233Z" fill="#000606"/>
</svg>
