<svg width="19" height="20" viewBox="0 0 19 20" fill="none" xmlns="http://www.w3.org/2000/svg">
<path d="M15.0418 3.66732H13.4585V2.87565C13.4585 2.66569 13.3751 2.46432 13.2266 2.31586C13.0782 2.16739 12.8768 2.08398 12.6668 2.08398C12.4569 2.08398 12.2555 2.16739 12.107 2.31586C11.9586 2.46432 11.8752 2.66569 11.8752 2.87565V3.66732H7.12516V2.87565C7.12516 2.66569 7.04175 2.46432 6.89329 2.31586C6.74482 2.16739 6.54346 2.08398 6.3335 2.08398C6.12353 2.08398 5.92217 2.16739 5.7737 2.31586C5.62524 2.46432 5.54183 2.66569 5.54183 2.87565V3.66732H3.9585C3.32861 3.66732 2.72452 3.91754 2.27912 4.36294C1.83372 4.80834 1.5835 5.41243 1.5835 6.04232V15.5423C1.5835 16.1722 1.83372 16.7763 2.27912 17.2217C2.72452 17.6671 3.32861 17.9173 3.9585 17.9173H15.0418C15.6717 17.9173 16.2758 17.6671 16.7212 17.2217C17.1666 16.7763 17.4168 16.1722 17.4168 15.5423V6.04232C17.4168 5.41243 17.1666 4.80834 16.7212 4.36294C16.2758 3.91754 15.6717 3.66732 15.0418 3.66732ZM15.8335 15.5423C15.8335 15.7523 15.7501 15.9536 15.6016 16.1021C15.4532 16.2506 15.2518 16.334 15.0418 16.334H3.9585C3.74853 16.334 3.54717 16.2506 3.3987 16.1021C3.25024 15.9536 3.16683 15.7523 3.16683 15.5423V10.0007H15.8335V15.5423ZM15.8335 8.41732H3.16683V6.04232C3.16683 5.83235 3.25024 5.63099 3.3987 5.48252C3.54717 5.33406 3.74853 5.25065 3.9585 5.25065H5.54183V6.04232C5.54183 6.25228 5.62524 6.45364 5.7737 6.60211C5.92217 6.75058 6.12353 6.83398 6.3335 6.83398C6.54346 6.83398 6.74482 6.75058 6.89329 6.60211C7.04175 6.45364 7.12516 6.25228 7.12516 6.04232V5.25065H11.8752V6.04232C11.8752 6.25228 11.9586 6.45364 12.107 6.60211C12.2555 6.75058 12.4569 6.83398 12.6668 6.83398C12.8768 6.83398 13.0782 6.75058 13.2266 6.60211C13.3751 6.45364 13.4585 6.25228 13.4585 6.04232V5.25065H15.0418C15.2518 5.25065 15.4532 5.33406 15.6016 5.48252C15.7501 5.63099 15.8335 5.83235 15.8335 6.04232V8.41732Z" fill="#6A6A6A"/>
</svg>
