<svg width="16" height="16" viewBox="0 0 16 16" fill="none" xmlns="http://www.w3.org/2000/svg">
<path fill-rule="evenodd" clip-rule="evenodd" d="M8 14.8C11.7555 14.8 14.8 11.7555 14.8 8C14.8 4.24446 11.7555 1.2 8 1.2C4.24446 1.2 1.2 4.24446 1.2 8C1.2 11.7555 4.24446 14.8 8 14.8ZM8 16C12.4183 16 16 12.4183 16 8C16 3.58172 12.4183 0 8 0C3.58172 0 0 3.58172 0 8C0 12.4183 3.58172 16 8 16Z" fill="#000606"/>
<path fill-rule="evenodd" clip-rule="evenodd" d="M11.581 5.56587C11.8153 5.80018 11.8153 6.18008 11.581 6.41439L7.00018 10.9952L4.57592 8.57095C4.3416 8.33664 4.3416 7.95674 4.57592 7.72242C4.81023 7.48811 5.19013 7.48811 5.42445 7.72242L7.00018 9.29816L10.7325 5.56587C10.9668 5.33155 11.3467 5.33155 11.581 5.56587Z" fill="#000606"/>
</svg>
