<svg width="73" height="73" viewBox="0 0 73 73" fill="none" xmlns="http://www.w3.org/2000/svg">
<path d="M36.5 0C16.3732 0 0 16.3741 0 36.5C0 56.6259 16.3732 73 36.5 73C56.6268 73 73 56.6259 73 36.5C73 16.3741 56.6268 0 36.5 0ZM53.6435 32.4367L36.6922 49.3878C34.8325 51.2474 31.8197 51.2476 29.9599 49.3878L20.15 39.5778C18.2902 37.7189 18.2902 34.7047 20.15 32.8456C22.0098 30.9858 25.0225 30.9858 26.8823 32.8456L33.3261 39.2887L46.9112 25.7041C48.771 23.8443 51.7837 23.8443 53.6435 25.7041C55.5032 27.5633 55.5032 30.5776 53.6435 32.4367Z" fill="#660000"/>
</svg>
