<svg width="22" height="22" viewBox="0 0 22 22" fill="none" xmlns="http://www.w3.org/2000/svg">
<path d="M11.9999 7C12.5877 6.99997 13.1626 7.17261 13.6531 7.4965C14.1436 7.82039 14.5281 8.28124 14.759 8.82182C14.9898 9.3624 15.0568 9.95888 14.9515 10.5372C14.8463 11.1155 14.5734 11.6501 14.1669 12.0747C13.7604 12.4993 13.2382 12.7951 12.665 12.9254C12.0918 13.0557 11.493 13.0147 10.9429 12.8076C10.3929 12.6004 9.91575 12.2362 9.57086 11.7603C9.22597 11.2843 9.02851 10.7175 9.003 10.1302L9 10L9.003 9.8698C9.03655 9.09745 9.36695 8.36787 9.92531 7.8332C10.4837 7.29852 11.2269 7.00004 11.9999 7Z" fill="#000606"/>
</svg>
