<svg width="65" height="74" viewBox="0 0 65 74" fill="none" xmlns="http://www.w3.org/2000/svg">
<g filter="url(#filter0_d_52_59623)">
<rect x="20" y="18" width="35" height="34" rx="8" fill="white"/>
<path d="M37.1279 25.9336C37.8965 25.9335 38.6359 26.2221 39.1946 26.7402C39.7532 27.2582 40.0887 27.9664 40.1322 28.7195L40.1369 28.8867H44.9975C45.1734 28.8867 45.3427 28.9523 45.4713 29.0702C45.5998 29.1881 45.678 29.3495 45.69 29.5217C45.702 29.694 45.6469 29.8643 45.5359 29.9982C45.4249 30.1322 45.2662 30.2197 45.0919 30.2433L44.9975 30.2496H44.2605L43.0754 42.0802C43.0161 42.67 42.745 43.2199 42.3107 43.6316C41.8764 44.0434 41.307 44.2903 40.7044 44.3281L40.5414 44.3336H33.7144C33.1102 44.3336 32.5258 44.1227 32.0655 43.7387C31.6052 43.3547 31.299 42.8225 31.2017 42.2374L31.1804 42.0793L29.9944 30.2496H29.2583C29.0905 30.2496 28.9284 30.19 28.802 30.0818C28.6755 29.9735 28.5933 29.824 28.5704 29.6608L28.564 29.5682C28.564 29.4035 28.6247 29.2444 28.735 29.1203C28.8453 28.9962 28.9977 28.9154 29.1639 28.893L29.2583 28.8867H34.1189C34.1189 28.1035 34.436 27.3523 35.0003 26.7985C35.5645 26.2447 36.3299 25.9336 37.1279 25.9336ZM42.8653 30.2496H31.3896L32.5626 41.9457C32.5886 42.2067 32.7058 42.4508 32.8943 42.6366C33.0828 42.8224 33.331 42.9385 33.5968 42.9652L33.7144 42.9706H40.5414C41.0969 42.9706 41.5682 42.5845 41.6756 42.0602L41.6941 41.9457L42.8643 30.2496H42.8653ZM38.7481 32.7484C38.9159 32.7484 39.078 32.8081 39.2045 32.9163C39.3309 33.0245 39.4132 33.1741 39.436 33.3372L39.4425 33.4299V39.7904C39.4424 39.963 39.3756 40.1293 39.2555 40.2554C39.1354 40.3816 38.971 40.4583 38.7954 40.4701C38.6199 40.4818 38.4464 40.4278 38.3099 40.3188C38.1734 40.2099 38.0842 40.0541 38.0602 39.8831L38.0537 39.7904V33.4299C38.0537 33.2491 38.1269 33.0758 38.2571 32.948C38.3873 32.8202 38.5639 32.7484 38.7481 32.7484ZM35.5077 32.7484C35.6755 32.7484 35.8376 32.8081 35.9641 32.9163C36.0905 33.0245 36.1728 33.1741 36.1956 33.3372L36.2021 33.4299V39.7904C36.202 39.963 36.1352 40.1293 36.0151 40.2554C35.895 40.3816 35.7305 40.4583 35.555 40.4701C35.3795 40.4818 35.206 40.4278 35.0695 40.3188C34.933 40.2099 34.8438 40.0541 34.8198 39.8831L34.8133 39.7904V33.4299C34.8133 33.2491 34.8865 33.0758 35.0167 32.948C35.1469 32.8202 35.3235 32.7484 35.5077 32.7484ZM37.1279 27.2966C36.7213 27.2966 36.3295 27.4466 36.0304 27.717C35.7313 27.9873 35.5467 28.3581 35.5133 28.7558L35.5077 28.8867H38.7481C38.7481 28.465 38.5774 28.0605 38.2736 27.7623C37.9697 27.4641 37.5576 27.2966 37.1279 27.2966Z" fill="#DE2A0E"/>
</g>
<defs>
<filter id="filter0_d_52_59623" x="0" y="0" width="75" height="74" filterUnits="userSpaceOnUse" color-interpolation-filters="sRGB">
<feFlood flood-opacity="0" result="BackgroundImageFix"/>
<feColorMatrix in="SourceAlpha" type="matrix" values="0 0 0 0 0 0 0 0 0 0 0 0 0 0 0 0 0 0 127 0" result="hardAlpha"/>
<feOffset dy="2"/>
<feGaussianBlur stdDeviation="10"/>
<feComposite in2="hardAlpha" operator="out"/>
<feColorMatrix type="matrix" values="0 0 0 0 0 0 0 0 0 0 0 0 0 0 0 0 0 0 0.05 0"/>
<feBlend mode="normal" in2="BackgroundImageFix" result="effect1_dropShadow_52_59623"/>
<feBlend mode="normal" in="SourceGraphic" in2="effect1_dropShadow_52_59623" result="shape"/>
</filter>
</defs>
</svg>
