<svg width="18" height="20" viewBox="0 0 18 20" fill="none" xmlns="http://www.w3.org/2000/svg">
<path d="M9.1279 0.933594C9.89647 0.933544 10.6359 1.22214 11.1946 1.74017C11.7532 2.2582 12.0887 2.9664 12.1322 3.71949L12.1369 3.88668H16.9975C17.1734 3.88673 17.3427 3.95232 17.4713 4.0702C17.5998 4.18808 17.678 4.34945 17.69 4.52171C17.702 4.69397 17.6469 4.86428 17.5359 4.99822C17.4249 5.13216 17.2662 5.21975 17.0919 5.24328L16.9975 5.24964H16.2605L15.0754 17.0802C15.0161 17.67 14.745 18.2199 14.3107 18.6316C13.8764 19.0434 13.307 19.2903 12.7044 19.3281L12.5414 19.3336H5.71436C5.11022 19.3336 4.52577 19.1227 4.06546 18.7387C3.60515 18.3547 3.29898 17.8225 3.20166 17.2374L3.18036 17.0793L1.99437 5.24964H1.25834C1.09054 5.24964 0.928426 5.19 0.801968 5.08176C0.67551 4.97351 0.593266 4.82399 0.570446 4.66084L0.563965 4.56816C0.563972 4.40348 0.624739 4.24437 0.735028 4.12026C0.845317 3.99615 0.997667 3.91544 1.1639 3.89304L1.25834 3.88668H6.11895C6.11895 3.10347 6.43596 2.35234 7.00025 1.79853C7.56454 1.24472 8.32988 0.933594 9.1279 0.933594ZM14.8653 5.24964H3.3896L4.56263 16.9457C4.5886 17.2067 4.70578 17.4508 4.89428 17.6366C5.08278 17.8224 5.33099 17.9385 5.59678 17.9652L5.71436 17.9706H12.5414C13.0969 17.9706 13.5682 17.5845 13.6756 17.0602L13.6941 16.9457L14.8643 5.24964H14.8653ZM10.7481 7.74841C10.9159 7.74841 11.078 7.80805 11.2045 7.9163C11.3309 8.02454 11.4132 8.17406 11.436 8.33721L11.4425 8.42989V14.7904C11.4424 14.963 11.3756 15.1293 11.2555 15.2554C11.1354 15.3816 10.971 15.4583 10.7954 15.4701C10.6199 15.4818 10.4464 15.4278 10.3099 15.3188C10.1734 15.2099 10.0842 15.0541 10.0602 14.8831L10.0537 14.7904V8.42989C10.0537 8.24915 10.1269 8.07581 10.2571 7.94801C10.3873 7.82021 10.5639 7.74841 10.7481 7.74841ZM7.5077 7.74841C7.67549 7.74841 7.83761 7.80805 7.96407 7.9163C8.09052 8.02454 8.17277 8.17406 8.19559 8.33721L8.20207 8.42989V14.7904C8.20202 14.963 8.13518 15.1293 8.01508 15.2554C7.89497 15.3816 7.73055 15.4583 7.55502 15.4701C7.3795 15.4818 7.20598 15.4278 7.0695 15.3188C6.93303 15.2099 6.84378 15.0541 6.8198 14.8831L6.81332 14.7904V8.42989C6.81332 8.24915 6.88648 8.07581 7.0167 7.94801C7.14692 7.82021 7.32354 7.74841 7.5077 7.74841ZM9.1279 2.29656C8.72128 2.29657 8.32954 2.44664 8.03043 2.71697C7.73132 2.9873 7.54671 3.35812 7.51325 3.75584L7.5077 3.88668H10.7481C10.7481 3.46495 10.5774 3.0605 10.2736 2.76229C9.96971 2.46409 9.5576 2.29656 9.1279 2.29656Z" fill="#DE2A0E"/>
</svg>
