<svg width="15" height="15" viewBox="0 0 15 15" fill="none" xmlns="http://www.w3.org/2000/svg">
<path fill-rule="evenodd" clip-rule="evenodd" d="M1.38982 11.1231L0.377465 13.786C0.338591 13.8885 0.330443 13.9999 0.353993 14.1068C0.377543 14.2137 0.431796 14.3117 0.510274 14.389C0.588751 14.4663 0.688135 14.5198 0.796556 14.5429C0.904978 14.566 1.01785 14.5578 1.12171 14.5194L3.82054 13.5208C4.12944 13.4067 4.41 13.2287 4.64337 12.9987L12.461 5.28738C12.461 5.28738 12.1882 4.48106 11.3716 3.67474C10.5549 2.86918 9.73671 2.60016 9.73671 2.60016L1.91911 10.3115C1.68598 10.5417 1.50551 10.8184 1.38982 11.1231ZM10.8269 1.52481L11.8924 0.473785C12.0835 0.285315 12.3385 0.165241 12.605 0.209319C12.9802 0.270116 13.5542 0.454026 14.0951 0.988279C14.6367 1.52253 14.8231 2.08794 14.8848 2.45805C14.9294 2.72099 14.8077 2.97254 14.6167 3.16101L13.5504 4.21204C13.5504 4.21204 13.2784 3.40648 12.461 2.60092C11.6443 1.79384 10.8269 1.52481 10.8269 1.52481Z" fill="#660000"/>
</svg>
