<svg width="14" height="14" viewBox="0 0 14 14" fill="none" xmlns="http://www.w3.org/2000/svg">
<path d="M2.91667 2.91732H4.08333V4.66732H9.91667V2.91732H11.0833V5.83398H12.25V2.91732C12.25 2.27565 11.725 1.75065 11.0833 1.75065H8.645C8.4 1.07398 7.75833 0.583984 7 0.583984C6.24167 0.583984 5.6 1.07398 5.355 1.75065H2.91667C2.275 1.75065 1.75 2.27565 1.75 2.91732V11.084C1.75 11.7257 2.275 12.2507 2.91667 12.2507H6.41667V11.084H2.91667V2.91732ZM7 1.75065C7.32083 1.75065 7.58333 2.01315 7.58333 2.33398C7.58333 2.65482 7.32083 2.91732 7 2.91732C6.67917 2.91732 6.41667 2.65482 6.41667 2.33398C6.41667 2.01315 6.67917 1.75065 7 1.75065Z" fill="black"/>
<path d="M12.2503 6.70898L9.04783 9.91732L7.29199 8.16732L6.41699 9.04232L9.04783 11.6673L13.1253 7.58398L12.2503 6.70898Z" fill="black"/>
</svg>
