<svg width="20" height="15" viewBox="0 0 20 15" fill="none" xmlns="http://www.w3.org/2000/svg">
<path d="M9.54545 10.4054C10.9513 10.4054 12.0909 9.26572 12.0909 7.85991C12.0909 6.45409 10.9513 5.31445 9.54545 5.31445C8.13964 5.31445 7 6.45409 7 7.85991C7 9.26572 8.13964 10.4054 9.54545 10.4054Z" fill="white"/>
<path d="M19.053 7.64399C18.3045 5.70795 17.0051 4.03365 15.3154 2.82804C13.6257 1.62243 11.6197 0.938353 9.54545 0.860352C7.47118 0.938353 5.46522 1.62243 3.77551 2.82804C2.0858 4.03365 0.786399 5.70795 0.0379122 7.64399C-0.0126374 7.7838 -0.0126374 7.9369 0.0379122 8.07671C0.786399 10.0128 2.0858 11.687 3.77551 12.8927C5.46522 14.0983 7.47118 14.7824 9.54545 14.8604C11.6197 14.7824 13.6257 14.0983 15.3154 12.8927C17.0051 11.687 18.3045 10.0128 19.053 8.07671C19.1035 7.9369 19.1035 7.7838 19.053 7.64399ZM9.54545 11.9967C8.72734 11.9967 7.92759 11.7541 7.24735 11.2996C6.56711 10.8451 6.03693 10.1991 5.72384 9.44327C5.41076 8.68745 5.32885 7.85576 5.48846 7.05339C5.64806 6.25101 6.04202 5.51398 6.62052 4.9355C7.19902 4.35702 7.93607 3.96307 8.73847 3.80347C9.54087 3.64386 10.3726 3.72578 11.1284 4.03885C11.8843 4.35192 12.5303 4.88209 12.9848 5.56231C13.4393 6.24253 13.6819 7.04226 13.6819 7.86035C13.6803 8.95687 13.2439 10.008 12.4685 10.7833C11.6932 11.5587 10.642 11.995 9.54545 11.9967Z" fill="white"/>
</svg>
