<svg width="107" height="30" viewBox="0 0 107 30" fill="none" xmlns="http://www.w3.org/2000/svg">
<path d="M16.0247 25.08C16.5847 25.08 17.0514 25.2667 17.4247 25.64C17.8247 26.0133 18.0247 26.48 18.0247 27.04C18.0247 27.6 17.8247 28.0667 17.4247 28.44C17.0514 28.8133 16.5847 29 16.0247 29H2.58469C1.99802 29 1.50469 28.8133 1.10469 28.44C0.731354 28.04 0.544688 27.5467 0.544688 26.96V3.04C0.544688 2.45333 0.744688 1.97333 1.14469 1.6C1.54469 1.2 2.06469 0.999998 2.70469 0.999998C3.23802 0.999998 3.70469 1.2 4.10469 1.6C4.53135 1.97333 4.74469 2.45333 4.74469 3.04V25.76L3.90469 25.08H16.0247ZM47.7444 15C47.7444 17.0267 47.411 18.92 46.7444 20.68C46.0777 22.4133 45.131 23.9333 43.9044 25.24C42.7044 26.5467 41.2777 27.5733 39.6244 28.32C37.971 29.04 36.1577 29.4 34.1844 29.4C32.2377 29.4 30.4377 29.04 28.7844 28.32C27.131 27.5733 25.691 26.5467 24.4644 25.24C23.2644 23.9333 22.331 22.4133 21.6644 20.68C21.0244 18.92 20.7044 17.0267 20.7044 15C20.7044 12.9733 21.0244 11.0933 21.6644 9.36C22.331 7.6 23.2644 6.06667 24.4644 4.76C25.691 3.45333 27.131 2.44 28.7844 1.72C30.4377 0.973332 32.2377 0.599998 34.1844 0.599998C36.1577 0.599998 37.971 0.973332 39.6244 1.72C41.2777 2.44 42.7044 3.45333 43.9044 4.76C45.131 6.06667 46.0777 7.6 46.7444 9.36C47.411 11.0933 47.7444 12.9733 47.7444 15ZM43.4244 15C43.4244 13.0267 43.0244 11.2533 42.2244 9.68C41.451 8.10667 40.371 6.86666 38.9844 5.96C37.5977 5.05333 35.9977 4.6 34.1844 4.6C32.3977 4.6 30.811 5.05333 29.4244 5.96C28.0377 6.86666 26.9577 8.10667 26.1844 9.68C25.411 11.2267 25.0244 13 25.0244 15C25.0244 16.9733 25.411 18.7467 26.1844 20.32C26.9577 21.8933 28.0377 23.1333 29.4244 24.04C30.811 24.9467 32.3977 25.4 34.1844 25.4C35.9977 25.4 37.5977 24.9467 38.9844 24.04C40.371 23.1333 41.451 21.8933 42.2244 20.32C43.0244 18.7467 43.4244 16.9733 43.4244 15ZM65.6541 29.4C63.6274 29.4 61.7341 29.04 59.9741 28.32C58.2141 27.5733 56.6674 26.5467 55.3341 25.24C54.0274 23.9067 53.0007 22.3733 52.2541 20.64C51.5074 18.9067 51.1341 17.0267 51.1341 15C51.1341 12.9733 51.5074 11.0933 52.2541 9.36C53.0007 7.62666 54.0274 6.10666 55.3341 4.8C56.6674 3.46667 58.2141 2.44 59.9741 1.72C61.7341 0.973332 63.6274 0.599998 65.6541 0.599998C66.9607 0.599998 68.2274 0.746665 69.4541 1.04C70.6807 1.33333 71.7874 1.76 72.7741 2.32C73.1207 2.50667 73.3741 2.76 73.5341 3.08C73.6941 3.37333 73.7741 3.66667 73.7741 3.96C73.7741 4.52 73.5874 5.01333 73.2141 5.44C72.8674 5.84 72.4274 6.04 71.8941 6.04C71.7074 6.04 71.5074 6.01333 71.2941 5.96C71.1074 5.90667 70.9341 5.84 70.7741 5.76C70.0274 5.38667 69.2274 5.10667 68.3741 4.92C67.5207 4.70667 66.6141 4.6 65.6541 4.6C63.7341 4.6 62.0007 5.06667 60.4541 6C58.9074 6.90667 57.6807 8.14667 56.7741 9.72C55.8941 11.2933 55.4541 13.0533 55.4541 15C55.4541 16.92 55.8941 18.68 56.7741 20.28C57.6807 21.8533 58.9074 23.1067 60.4541 24.04C62.0007 24.9467 63.7341 25.4 65.6541 25.4C66.5874 25.4 67.5741 25.2933 68.6141 25.08C69.6541 24.84 70.5341 24.5333 71.2541 24.16L70.9341 25.24V17.64L71.5741 18.2H66.3341C65.7474 18.2 65.2541 18.0133 64.8541 17.64C64.4807 17.2667 64.2941 16.7867 64.2941 16.2C64.2941 15.6133 64.4807 15.1333 64.8541 14.76C65.2541 14.3867 65.7474 14.2 66.3341 14.2H73.2541C73.8141 14.2 74.2807 14.4 74.6541 14.8C75.0541 15.1733 75.2541 15.6533 75.2541 16.24V25.12C75.2541 25.5467 75.1474 25.9067 74.9341 26.2C74.7207 26.4933 74.4807 26.7333 74.2141 26.92C73.0141 27.6667 71.6807 28.2667 70.2141 28.72C68.7741 29.1733 67.2541 29.4 65.6541 29.4ZM106.026 15C106.026 17.0267 105.692 18.92 105.026 20.68C104.359 22.4133 103.412 23.9333 102.186 25.24C100.986 26.5467 99.559 27.5733 97.9056 28.32C96.2523 29.04 94.439 29.4 92.4656 29.4C90.519 29.4 88.719 29.04 87.0656 28.32C85.4123 27.5733 83.9723 26.5467 82.7456 25.24C81.5456 23.9333 80.6123 22.4133 79.9456 20.68C79.3056 18.92 78.9856 17.0267 78.9856 15C78.9856 12.9733 79.3056 11.0933 79.9456 9.36C80.6123 7.6 81.5456 6.06667 82.7456 4.76C83.9723 3.45333 85.4123 2.44 87.0656 1.72C88.719 0.973332 90.519 0.599998 92.4656 0.599998C94.439 0.599998 96.2523 0.973332 97.9056 1.72C99.559 2.44 100.986 3.45333 102.186 4.76C103.412 6.06667 104.359 7.6 105.026 9.36C105.692 11.0933 106.026 12.9733 106.026 15ZM101.706 15C101.706 13.0267 101.306 11.2533 100.506 9.68C99.7323 8.10667 98.6523 6.86666 97.2656 5.96C95.879 5.05333 94.279 4.6 92.4656 4.6C90.679 4.6 89.0923 5.05333 87.7056 5.96C86.319 6.86666 85.239 8.10667 84.4656 9.68C83.6923 11.2267 83.3056 13 83.3056 15C83.3056 16.9733 83.6923 18.7467 84.4656 20.32C85.239 21.8933 86.319 23.1333 87.7056 24.04C89.0923 24.9467 90.679 25.4 92.4656 25.4C94.279 25.4 95.879 24.9467 97.2656 24.04C98.6523 23.1333 99.7323 21.8933 100.506 20.32C101.306 18.7467 101.706 16.9733 101.706 15Z" fill="#353C3E"/>
</svg>
