<svg width="46" height="46" viewBox="0 0 46 46" fill="none" xmlns="http://www.w3.org/2000/svg">
<ellipse cx="23.5" cy="23.5" rx="18.5" ry="17.5" fill="white"/>
<path d="M16.0997 32.584L22.9997 25.684L29.8997 32.584L32.583 29.9007L25.683 23.0007L32.583 16.1007L29.8997 13.4173L22.9997 20.3173L16.0997 13.4173L13.4163 16.1007L20.3163 23.0007L13.4163 29.9007L16.0997 32.584ZM22.9997 42.1673C20.3483 42.1673 17.8566 41.6639 15.5247 40.657C13.1927 39.6501 11.1643 38.2848 9.43926 36.5611C7.71426 34.8361 6.34895 32.8076 5.34334 30.4757C4.33773 28.1437 3.83429 25.652 3.83301 23.0007C3.83301 20.3493 4.33645 17.8576 5.34334 15.5257C6.35023 13.1937 7.71554 11.1652 9.43926 9.44024C11.1643 7.71523 13.1927 6.34993 15.5247 5.34432C17.8566 4.33871 20.3483 3.83526 22.9997 3.83398C25.6511 3.83398 28.1427 4.33743 30.4747 5.34432C32.8066 6.35121 34.8351 7.71651 36.5601 9.44024C38.2851 11.1652 39.651 13.1937 40.6579 15.5257C41.6648 17.8576 42.1676 20.3493 42.1663 23.0007C42.1663 25.652 41.6629 28.1437 40.656 30.4757C39.6491 32.8076 38.2838 34.8361 36.5601 36.5611C34.8351 38.2861 32.8066 39.652 30.4747 40.6589C28.1427 41.6658 25.6511 42.1686 22.9997 42.1673Z" fill="#660000"/>
</svg>
