<svg width="12" height="12" viewBox="0 0 12 12" fill="none" xmlns="http://www.w3.org/2000/svg">
<path fill-rule="evenodd" clip-rule="evenodd" d="M0.864962 9.13063L0.0302158 11.3566C-0.00183801 11.4422 -0.00855697 11.5353 0.0108616 11.6247C0.0302802 11.7141 0.0750154 11.796 0.139725 11.8606C0.204434 11.9253 0.286382 11.9699 0.375782 11.9892C0.465183 12.0086 0.558256 12.0018 0.643888 11.9696L2.86924 11.1349C3.12395 11.0395 3.35529 10.8907 3.54771 10.6985L9.99381 4.25245C9.99381 4.25245 9.76892 3.57843 9.09554 2.90442C8.42215 2.23104 7.74749 2.00616 7.74749 2.00616L1.30139 8.45217C1.10917 8.64459 0.960359 8.87592 0.864962 9.13063ZM8.6464 1.10726L9.52498 0.228698C9.68253 0.0711525 9.8928 -0.0292189 10.1126 0.00762628C10.422 0.0584472 10.8953 0.212181 11.3412 0.65877C11.7878 1.10536 11.9416 1.57799 11.9924 1.88737C12.0292 2.10717 11.9288 2.31744 11.7713 2.47498L10.8921 3.35355C10.8921 3.35355 10.6678 2.68017 9.99381 2.0068C9.32042 1.33215 8.6464 1.10726 8.6464 1.10726Z" fill="#660000"/>
</svg>
