<svg width="14" height="15" viewBox="0 0 14 15" fill="none" xmlns="http://www.w3.org/2000/svg">
<path d="M13.125 1.81138L9.62194 1.81139V0.939453C9.62194 0.697734 9.42616 0.501953 9.18444 0.501953C8.94272 0.501953 8.74694 0.697734 8.74694 0.939453V1.81117H5.24694V0.939453C5.24694 0.697734 5.05116 0.501953 4.80944 0.501953C4.56772 0.501953 4.37194 0.697734 4.37194 0.939453V1.81117H0.875C0.391781 1.81117 0 2.20295 0 2.68617V13.6237C0 14.1069 0.391781 14.4987 0.875 14.4987H13.125C13.6082 14.4987 14 14.1069 14 13.6237V2.68617C14 2.20316 13.6082 1.81138 13.125 1.81138ZM13.125 13.6237H0.875V2.68617H4.37194V3.12695C4.37194 3.36866 4.56772 3.56445 4.80944 3.56445C5.05116 3.56445 5.24694 3.36866 5.24694 3.12695V2.68639H8.74694V3.12717C8.74694 3.36889 8.94272 3.56467 9.18444 3.56467C9.42616 3.56467 9.62194 3.36889 9.62194 3.12717V2.68639H13.125V13.6237ZM10.0625 7.49888H10.9375C11.179 7.49888 11.375 7.30288 11.375 7.06138V6.18638C11.375 5.94488 11.179 5.74888 10.9375 5.74888H10.0625C9.821 5.74888 9.625 5.94488 9.625 6.18638V7.06138C9.625 7.30288 9.821 7.49888 10.0625 7.49888ZM10.0625 10.9987H10.9375C11.179 10.9987 11.375 10.8029 11.375 10.5612V9.68616C11.375 9.44466 11.179 9.24866 10.9375 9.24866H10.0625C9.821 9.24866 9.625 9.44466 9.625 9.68616V10.5612C9.625 10.8031 9.821 10.9987 10.0625 10.9987ZM7.4375 9.24866H6.5625C6.321 9.24866 6.125 9.44466 6.125 9.68616V10.5612C6.125 10.8029 6.321 10.9987 6.5625 10.9987H7.4375C7.679 10.9987 7.875 10.8029 7.875 10.5612V9.68616C7.875 9.44488 7.679 9.24866 7.4375 9.24866ZM7.4375 5.74888H6.5625C6.321 5.74888 6.125 5.94488 6.125 6.18638V7.06138C6.125 7.30288 6.321 7.49888 6.5625 7.49888H7.4375C7.679 7.49888 7.875 7.30288 7.875 7.06138V6.18638C7.875 5.94466 7.679 5.74888 7.4375 5.74888ZM3.9375 5.74888H3.0625C2.821 5.74888 2.625 5.94488 2.625 6.18638V7.06138C2.625 7.30288 2.821 7.49888 3.0625 7.49888H3.9375C4.179 7.49888 4.375 7.30288 4.375 7.06138V6.18638C4.375 5.94466 4.179 5.74888 3.9375 5.74888ZM3.9375 9.24866H3.0625C2.821 9.24866 2.625 9.44466 2.625 9.68616V10.5612C2.625 10.8029 2.821 10.9987 3.0625 10.9987H3.9375C4.179 10.9987 4.375 10.8029 4.375 10.5612V9.68616C4.375 9.44488 4.179 9.24866 3.9375 9.24866Z" fill="#660000"/>
</svg>
