<svg width="26" height="27" viewBox="0 0 26 27" fill="none" xmlns="http://www.w3.org/2000/svg">
<g clip-path="url(#clip0_239_10769)">
<path d="M22.068 19.3496L19.9067 15.8071V10.7859C19.9836 9.45076 19.681 8.12117 19.034 6.9508C18.387 5.78043 17.422 4.81707 16.2505 4.1721C16.2665 3.96658 16.2665 3.76012 16.2505 3.5546C16.2379 3.14055 16.1438 2.73304 15.9736 2.35537C15.8034 1.9777 15.5604 1.63727 15.2586 1.35355C14.9568 1.06983 14.602 0.848374 14.2145 0.701848C13.8271 0.555322 13.4145 0.486597 13.0005 0.499601C12.5864 0.486597 12.1739 0.555322 11.7864 0.701848C11.3989 0.848374 11.0442 1.06983 10.7423 1.35355C10.4405 1.63727 10.1975 1.9777 10.0274 2.35537C9.85716 2.73304 9.76307 3.14055 9.75047 3.5546C9.72654 3.75974 9.72654 3.96696 9.75047 4.1721C8.57897 4.81707 7.61394 5.78043 6.96693 6.9508C6.31992 8.12117 6.01735 9.45076 6.09422 10.7859V15.8071L3.93297 19.3496C3.74602 19.6567 3.64391 20.0079 3.63709 20.3673C3.63026 20.7268 3.71895 21.0816 3.8941 21.3955C4.06925 21.7095 4.32459 21.9713 4.63404 22.1543C4.94349 22.3373 5.29597 22.4349 5.65547 22.4371H8.53172C8.60689 23.5606 9.11432 24.6113 9.94751 25.3688C10.7807 26.1262 11.8749 26.5315 13.0005 26.4996C14.126 26.5315 15.2202 26.1262 16.0534 25.3688C16.8866 24.6113 17.394 23.5606 17.4692 22.4371H20.3455C20.705 22.4349 21.0574 22.3373 21.3669 22.1543C21.6763 21.9713 21.9317 21.7095 22.1068 21.3955C22.282 21.0816 22.3707 20.7268 22.3638 20.3673C22.357 20.0079 22.2549 19.6567 22.068 19.3496ZM11.7817 3.5546C11.8106 3.25846 11.9544 2.98544 12.1822 2.79406C12.41 2.60268 12.7038 2.50819 13.0005 2.53085C13.2971 2.50819 13.5909 2.60268 13.8187 2.79406C14.0466 2.98544 14.1903 3.25846 14.2192 3.5546C13.8134 3.52919 13.4063 3.52919 13.0005 3.5546C12.5946 3.52875 12.1876 3.52875 11.7817 3.5546ZM13.0005 24.4684C12.4133 24.4979 11.8365 24.3053 11.3849 23.9289C10.9332 23.5526 10.6398 23.02 10.563 22.4371H15.438C15.3611 23.02 15.0677 23.5526 14.6161 23.9289C14.1644 24.3053 13.5876 24.4979 13.0005 24.4684ZM5.65547 20.4059L7.83297 16.8796L8.12547 16.3759V10.7859C8.12156 9.56889 8.45938 8.37527 9.10047 7.34085C9.54282 6.7346 10.1343 6.25294 10.8177 5.94261C11.501 5.63227 12.2529 5.50378 13.0005 5.5696C13.7481 5.50378 14.5 5.63227 15.1833 5.94261C15.8666 6.25294 16.4581 6.7346 16.9005 7.34085C17.5416 8.37527 17.8794 9.56889 17.8755 10.7859V16.3759L18.168 16.8796L20.3455 20.4059H5.65547Z" fill="#660000"/>
</g>
<defs>
<clipPath id="clip0_239_10769">
<rect width="26" height="26" fill="white" transform="translate(0 0.5)"/>
</clipPath>
</defs>
</svg>
