<svg width="15" height="15" viewBox="0 0 15 15" fill="none" xmlns="http://www.w3.org/2000/svg">
<path fill-rule="evenodd" clip-rule="evenodd" d="M1.38933 11.1222L0.376977 13.7851C0.338103 13.8875 0.329954 13.9989 0.353505 14.1058C0.377055 14.2127 0.431308 14.3107 0.509785 14.388C0.588262 14.4654 0.687646 14.5188 0.796068 14.5419C0.90449 14.565 1.01737 14.5569 1.12122 14.5184L3.82005 13.5198C4.12895 13.4057 4.40951 13.2277 4.64288 12.9977L12.4605 5.28641C12.4605 5.28641 12.1878 4.48009 11.3711 3.67377C10.5544 2.86821 9.73623 2.59918 9.73623 2.59918L1.91862 10.3105C1.6855 10.5407 1.50502 10.8174 1.38933 11.1222ZM10.8264 1.52384L11.8919 0.472809C12.083 0.284338 12.338 0.164264 12.6046 0.208342C12.9798 0.269139 13.5537 0.45305 14.0946 0.987303C14.6362 1.52156 14.8226 2.08697 14.8843 2.45707C14.929 2.72002 14.8072 2.97156 14.6162 3.16003L13.5499 4.21106C13.5499 4.21106 13.2779 3.4055 12.4605 2.59994C11.6438 1.79286 10.8264 1.52384 10.8264 1.52384Z" fill="#660000"/>
</svg>
