<svg width="76" height="74" viewBox="0 0 76 74" fill="none" xmlns="http://www.w3.org/2000/svg">
<g filter="url(#filter0_d_52_59621)">
<rect x="20" y="18" width="36" height="34" rx="8" fill="white"/>
<path fill-rule="evenodd" clip-rule="evenodd" d="M31.3893 39.1222L30.377 41.7851C30.3381 41.8875 30.33 41.9989 30.3535 42.1058C30.3771 42.2127 30.4313 42.3107 30.5098 42.388C30.5883 42.4654 30.6876 42.5188 30.7961 42.5419C30.9045 42.565 31.0174 42.5569 31.1212 42.5184L33.8201 41.5198C34.129 41.4057 34.4095 41.2277 34.6429 40.9977L42.4605 33.2864C42.4605 33.2864 42.1878 32.4801 41.3711 31.6738C40.5544 30.8682 39.7362 30.5992 39.7362 30.5992L31.9186 38.3105C31.6855 38.5407 31.505 38.8174 31.3893 39.1222ZM40.8264 29.5238L41.8919 28.4728C42.083 28.2843 42.338 28.1643 42.6046 28.2083C42.9798 28.2691 43.5537 28.453 44.0946 28.9873C44.6362 29.5216 44.8226 30.087 44.8843 30.4571C44.929 30.72 44.8072 30.9716 44.6162 31.16L43.5499 32.2111C43.5499 32.2111 43.2779 31.4055 42.4605 30.5999C41.6438 29.7929 40.8264 29.5238 40.8264 29.5238Z" fill="#660000"/>
</g>
<defs>
<filter id="filter0_d_52_59621" x="0" y="0" width="76" height="74" filterUnits="userSpaceOnUse" color-interpolation-filters="sRGB">
<feFlood flood-opacity="0" result="BackgroundImageFix"/>
<feColorMatrix in="SourceAlpha" type="matrix" values="0 0 0 0 0 0 0 0 0 0 0 0 0 0 0 0 0 0 127 0" result="hardAlpha"/>
<feOffset dy="2"/>
<feGaussianBlur stdDeviation="10"/>
<feComposite in2="hardAlpha" operator="out"/>
<feColorMatrix type="matrix" values="0 0 0 0 0 0 0 0 0 0 0 0 0 0 0 0 0 0 0.05 0"/>
<feBlend mode="normal" in2="BackgroundImageFix" result="effect1_dropShadow_52_59621"/>
<feBlend mode="normal" in="SourceGraphic" in2="effect1_dropShadow_52_59621" result="shape"/>
</filter>
</defs>
</svg>
