<svg width="46" height="46" viewBox="0 0 46 46" fill="none" xmlns="http://www.w3.org/2000/svg">
<g clip-path="url(#clip0_216_10361)">
<circle cx="23" cy="23" r="19" fill="white"/>
<path d="M16.1 32.584L23 25.684L29.9 32.584L32.5833 29.9007L25.6833 23.0007L32.5833 16.1007L29.9 13.4173L23 20.3173L16.1 13.4173L13.4166 16.1007L20.3166 23.0007L13.4166 29.9007L16.1 32.584ZM23 42.1673C20.3486 42.1673 17.8569 41.6639 15.525 40.657C13.193 39.6501 11.1646 38.2848 9.43956 36.5611C7.71456 34.8361 6.34926 32.8076 5.34365 30.4757C4.33804 28.1437 3.83459 25.652 3.83331 23.0007C3.83331 20.3493 4.33676 17.8576 5.34365 15.5257C6.35054 13.1937 7.71584 11.1652 9.43956 9.44024C11.1646 7.71523 13.193 6.34993 15.525 5.34432C17.8569 4.33871 20.3486 3.83526 23 3.83398C25.6514 3.83398 28.143 4.33743 30.475 5.34432C32.8069 6.35121 34.8354 7.71651 36.5604 9.44024C38.2854 11.1652 39.6513 13.1937 40.6582 15.5257C41.6651 17.8576 42.1679 20.3493 42.1666 23.0007C42.1666 25.652 41.6632 28.1437 40.6563 30.4757C39.6494 32.8076 38.2841 34.8361 36.5604 36.5611C34.8354 38.2861 32.8069 39.652 30.475 40.6589C28.143 41.6658 25.6514 42.1686 23 42.1673Z" fill="#660000"/>
</g>
<defs>
<clipPath id="clip0_216_10361">
<rect width="46" height="46" fill="white"/>
</clipPath>
</defs>
</svg>
