<svg width="20" height="19" viewBox="0 0 20 19" fill="none" xmlns="http://www.w3.org/2000/svg">
<path d="M15.5416 3.16732H13.9583V2.37565C13.9583 2.16569 13.8749 1.96432 13.7264 1.81586C13.578 1.66739 13.3766 1.58398 13.1666 1.58398C12.9567 1.58398 12.7553 1.66739 12.6069 1.81586C12.4584 1.96432 12.375 2.16569 12.375 2.37565V3.16732H7.62498V2.37565C7.62498 2.16569 7.54157 1.96432 7.39311 1.81586C7.24464 1.66739 7.04328 1.58398 6.83331 1.58398C6.62335 1.58398 6.42199 1.66739 6.27352 1.81586C6.12505 1.96432 6.04165 2.16569 6.04165 2.37565V3.16732H4.45831C3.82842 3.16732 3.22433 3.41754 2.77893 3.86294C2.33354 4.30834 2.08331 4.91243 2.08331 5.54232V15.0423C2.08331 15.6722 2.33354 16.2763 2.77893 16.7217C3.22433 17.1671 3.82842 17.4173 4.45831 17.4173H15.5416C16.1715 17.4173 16.7756 17.1671 17.221 16.7217C17.6664 16.2763 17.9166 15.6722 17.9166 15.0423V5.54232C17.9166 4.91243 17.6664 4.30834 17.221 3.86294C16.7756 3.41754 16.1715 3.16732 15.5416 3.16732ZM16.3333 15.0423C16.3333 15.2523 16.2499 15.4536 16.1014 15.6021C15.953 15.7506 15.7516 15.834 15.5416 15.834H4.45831C4.24835 15.834 4.04699 15.7506 3.89852 15.6021C3.75005 15.4536 3.66665 15.2523 3.66665 15.0423V9.50065H16.3333V15.0423ZM16.3333 7.91732H3.66665V5.54232C3.66665 5.33235 3.75005 5.13099 3.89852 4.98252C4.04699 4.83406 4.24835 4.75065 4.45831 4.75065H6.04165V5.54232C6.04165 5.75228 6.12505 5.95364 6.27352 6.10211C6.42199 6.25058 6.62335 6.33398 6.83331 6.33398C7.04328 6.33398 7.24464 6.25058 7.39311 6.10211C7.54157 5.95364 7.62498 5.75228 7.62498 5.54232V4.75065H12.375V5.54232C12.375 5.75228 12.4584 5.95364 12.6069 6.10211C12.7553 6.25058 12.9567 6.33398 13.1666 6.33398C13.3766 6.33398 13.578 6.25058 13.7264 6.10211C13.8749 5.95364 13.9583 5.75228 13.9583 5.54232V4.75065H15.5416C15.7516 4.75065 15.953 4.83406 16.1014 4.98252C16.2499 5.13099 16.3333 5.33235 16.3333 5.54232V7.91732Z" fill="#6A6A6A"/>
</svg>
