<svg width="14" height="15" viewBox="0 0 14 15" fill="none" xmlns="http://www.w3.org/2000/svg">
<path d="M4.49967 1.66676C4.27866 1.66676 4.0667 1.75455 3.91042 1.91083C3.75414 2.06711 3.66634 2.27908 3.66634 2.50009C3.66634 2.7211 3.75414 2.93306 3.91042 3.08934C4.0667 3.24562 4.27866 3.33342 4.49967 3.33342C4.72069 3.33342 4.93265 3.24562 5.08893 3.08934C5.24521 2.93306 5.33301 2.7211 5.33301 2.50009C5.33301 2.27908 5.24521 2.06711 5.08893 1.91083C4.93265 1.75455 4.72069 1.66676 4.49967 1.66676ZM2.14134 1.66676C2.31351 1.17881 2.63279 0.756284 3.05517 0.457413C3.47756 0.158543 3.98225 -0.00195312 4.49967 -0.00195312C5.0171 -0.00195312 5.52179 0.158543 5.94417 0.457413C6.36656 0.756284 6.68584 1.17881 6.85801 1.66676H12.833C13.054 1.66676 13.266 1.75455 13.4223 1.91083C13.5785 2.06711 13.6663 2.27908 13.6663 2.50009C13.6663 2.7211 13.5785 2.93306 13.4223 3.08934C13.266 3.24562 13.054 3.33342 12.833 3.33342H6.85801C6.68584 3.82137 6.36656 4.24389 5.94417 4.54276C5.52179 4.84163 5.0171 5.00213 4.49967 5.00213C3.98225 5.00213 3.47756 4.84163 3.05517 4.54276C2.63279 4.24389 2.31351 3.82137 2.14134 3.33342H1.16634C0.945327 3.33342 0.733366 3.24562 0.577086 3.08934C0.420805 2.93306 0.333008 2.7211 0.333008 2.50009C0.333008 2.27908 0.420805 2.06711 0.577086 1.91083C0.733366 1.75455 0.945327 1.66676 1.16634 1.66676H2.14134ZM9.49967 6.66676C9.27866 6.66676 9.0667 6.75455 8.91042 6.91083C8.75414 7.06711 8.66634 7.27908 8.66634 7.50009C8.66634 7.7211 8.75414 7.93306 8.91042 8.08934C9.0667 8.24562 9.27866 8.33342 9.49967 8.33342C9.72069 8.33342 9.93265 8.24562 10.0889 8.08934C10.2452 7.93306 10.333 7.7211 10.333 7.50009C10.333 7.27908 10.2452 7.06711 10.0889 6.91083C9.93265 6.75455 9.72069 6.66676 9.49967 6.66676ZM7.14134 6.66676C7.31351 6.17881 7.63279 5.75628 8.05517 5.45741C8.47756 5.15854 8.98225 4.99805 9.49967 4.99805C10.0171 4.99805 10.5218 5.15854 10.9442 5.45741C11.3666 5.75628 11.6858 6.17881 11.858 6.66676H12.833C13.054 6.66676 13.266 6.75455 13.4223 6.91083C13.5785 7.06711 13.6663 7.27908 13.6663 7.50009C13.6663 7.7211 13.5785 7.93306 13.4223 8.08934C13.266 8.24562 13.054 8.33342 12.833 8.33342H11.858C11.6858 8.82137 11.3666 9.24389 10.9442 9.54276C10.5218 9.84163 10.0171 10.0021 9.49967 10.0021C8.98225 10.0021 8.47756 9.84163 8.05517 9.54276C7.63279 9.24389 7.31351 8.82137 7.14134 8.33342H1.16634C0.945327 8.33342 0.733366 8.24562 0.577086 8.08934C0.420805 7.93306 0.333008 7.7211 0.333008 7.50009C0.333008 7.27908 0.420805 7.06711 0.577086 6.91083C0.733366 6.75455 0.945327 6.66676 1.16634 6.66676H7.14134ZM4.49967 11.6668C4.27866 11.6668 4.0667 11.7546 3.91042 11.9108C3.75414 12.0671 3.66634 12.2791 3.66634 12.5001C3.66634 12.7211 3.75414 12.9331 3.91042 13.0893C4.0667 13.2456 4.27866 13.3334 4.49967 13.3334C4.72069 13.3334 4.93265 13.2456 5.08893 13.0893C5.24521 12.9331 5.33301 12.7211 5.33301 12.5001C5.33301 12.2791 5.24521 12.0671 5.08893 11.9108C4.93265 11.7546 4.72069 11.6668 4.49967 11.6668ZM2.14134 11.6668C2.31351 11.1788 2.63279 10.7563 3.05517 10.4574C3.47756 10.1585 3.98225 9.99805 4.49967 9.99805C5.0171 9.99805 5.52179 10.1585 5.94417 10.4574C6.36656 10.7563 6.68584 11.1788 6.85801 11.6668H12.833C13.054 11.6668 13.266 11.7546 13.4223 11.9108C13.5785 12.0671 13.6663 12.2791 13.6663 12.5001C13.6663 12.7211 13.5785 12.9331 13.4223 13.0893C13.266 13.2456 13.054 13.3334 12.833 13.3334H6.85801C6.68584 13.8214 6.36656 14.2439 5.94417 14.5428C5.52179 14.8416 5.0171 15.0021 4.49967 15.0021C3.98225 15.0021 3.47756 14.8416 3.05517 14.5428C2.63279 14.2439 2.31351 13.8214 2.14134 13.3334H1.16634C0.945327 13.3334 0.733366 13.2456 0.577086 13.0893C0.420805 12.9331 0.333008 12.7211 0.333008 12.5001C0.333008 12.2791 0.420805 12.0671 0.577086 11.9108C0.733366 11.7546 0.945327 11.6668 1.16634 11.6668H2.14134Z" fill="white"/>
</svg>
