<svg width="20" height="21" viewBox="0 0 20 21" fill="none" xmlns="http://www.w3.org/2000/svg">
<path d="M10.0363 2.29167L7.73551 4.58333H12.3188L10.0363 2.29167ZM2.66634 6.41667V18.3333H17.333V6.41667H2.66634ZM9.99967 0L14.583 4.58333H17.333C17.8192 4.58333 18.2856 4.77649 18.6294 5.1203C18.9732 5.46412 19.1663 5.93044 19.1663 6.41667V18.3333C19.1663 18.8196 18.9732 19.2859 18.6294 19.6297C18.2856 19.9735 17.8192 20.1667 17.333 20.1667H2.66634C2.18011 20.1667 1.7138 19.9735 1.36998 19.6297C1.02616 19.2859 0.833008 18.8196 0.833008 18.3333V6.41667C0.833008 5.93044 1.02616 5.46412 1.36998 5.1203C1.7138 4.77649 2.18011 4.58333 2.66634 4.58333H5.41634L9.99967 0ZM5.41634 16.5V12.8333H9.99967V16.5H5.41634ZM11.833 15.5833V9.16667H15.4997V15.5833H11.833ZM4.49967 11V8.25H9.08301V11H4.49967Z" fill="white"/>
</svg>
