<svg width="22" height="19" viewBox="0 0 22 19" fill="none" xmlns="http://www.w3.org/2000/svg">
<path d="M19.2503 17.25V2.58333H2.75033V9C2.75033 9.25972 2.66233 9.47758 2.48633 9.65358C2.31033 9.82958 2.09277 9.91728 1.83366 9.91667C1.57455 9.91605 1.35699 9.82806 1.18099 9.65267C1.00499 9.47728 0.916992 9.25972 0.916992 9V2.58333C0.916992 2.07917 1.09666 1.64772 1.45599 1.289C1.81533 0.930278 2.24677 0.750611 2.75033 0.75H19.2503C19.7545 0.75 20.1862 0.929667 20.5456 1.289C20.9049 1.64833 21.0843 2.07978 21.0837 2.58333V15.4167C21.0837 15.9208 20.9043 16.3526 20.5456 16.7119C20.1869 17.0712 19.7551 17.2506 19.2503 17.25ZM8.25033 10.8333C7.24199 10.8333 6.3788 10.4743 5.66074 9.75625C4.94269 9.03819 4.58366 8.175 4.58366 7.16667C4.58366 6.15833 4.94269 5.29514 5.66074 4.57708C6.3788 3.85903 7.24199 3.5 8.25033 3.5C9.25866 3.5 10.1219 3.85903 10.8399 4.57708C11.558 5.29514 11.917 6.15833 11.917 7.16667C11.917 8.175 11.558 9.03819 10.8399 9.75625C10.1219 10.4743 9.25866 10.8333 8.25033 10.8333ZM2.75033 18.1667C2.24616 18.1667 1.81471 17.9873 1.45599 17.6286C1.09727 17.2699 0.917603 16.8381 0.916992 16.3333V15.6C0.916992 15.0806 1.05083 14.6033 1.31849 14.1682C1.58616 13.7331 1.94121 13.4006 2.38366 13.1708C3.33088 12.6972 4.29338 12.3422 5.27116 12.1057C6.24894 11.8692 7.24199 11.7506 8.25033 11.75C9.25866 11.7494 10.2517 11.8679 11.2295 12.1057C12.2073 12.3434 13.1698 12.6984 14.117 13.1708C14.56 13.4 14.9154 13.7324 15.1831 14.1682C15.4507 14.6039 15.5843 15.0812 15.5837 15.6V16.3333C15.5837 16.8375 15.4043 17.2692 15.0456 17.6286C14.6869 17.9879 14.2551 18.1673 13.7503 18.1667H2.75033Z" fill="white"/>
</svg>
