<svg width="18" height="18" viewBox="0 0 18 18" fill="none" xmlns="http://www.w3.org/2000/svg">
<path fill-rule="evenodd" clip-rule="evenodd" d="M7.39551 15.875C7.39551 15.4953 7.70331 15.1875 8.08301 15.1875H17.2497C17.6294 15.1875 17.9372 15.4953 17.9372 15.875C17.9372 16.2547 17.6294 16.5625 17.2497 16.5625H8.08301C7.70331 16.5625 7.39551 16.2547 7.39551 15.875Z" fill="white"/>
<path fill-rule="evenodd" clip-rule="evenodd" d="M7.39551 9.4585C7.39551 9.0788 7.70331 8.771 8.08301 8.771H17.2497C17.6294 8.771 17.9372 9.0788 17.9372 9.4585C17.9372 9.83819 17.6294 10.146 17.2497 10.146H8.08301C7.70331 10.146 7.39551 9.83819 7.39551 9.4585Z" fill="white"/>
<path fill-rule="evenodd" clip-rule="evenodd" d="M7.39551 3.04199C7.39551 2.6623 7.70331 2.35449 8.08301 2.35449H17.2497C17.6294 2.35449 17.9372 2.6623 17.9372 3.04199C17.9372 3.42169 17.6294 3.72949 17.2497 3.72949H8.08301C7.70331 3.72949 7.39551 3.42169 7.39551 3.04199Z" fill="white"/>
<path fill-rule="evenodd" clip-rule="evenodd" d="M4.9028 0.72236C5.17129 0.990846 5.17129 1.42615 4.9028 1.69463L2.1528 4.44463C1.88432 4.71312 1.44902 4.71312 1.18053 4.44463L0.263864 3.52797C-0.00462136 3.25948 -0.00462136 2.82418 0.263864 2.55569C0.532349 2.28721 0.96765 2.28721 1.23614 2.55569L1.66667 2.98622L3.93053 0.72236C4.19902 0.453875 4.63432 0.453875 4.9028 0.72236Z" fill="white"/>
<path fill-rule="evenodd" clip-rule="evenodd" d="M4.9028 7.13886C5.17129 7.40735 5.17129 7.84265 4.9028 8.11114L2.1528 10.8611C1.88432 11.1296 1.44902 11.1296 1.18053 10.8611L0.263864 9.94447C-0.00462136 9.67598 -0.00462136 9.24068 0.263864 8.9722C0.532349 8.70371 0.96765 8.70371 1.23614 8.9722L1.66667 9.40273L3.93053 7.13886C4.19902 6.87038 4.63432 6.87038 4.9028 7.13886Z" fill="white"/>
<path fill-rule="evenodd" clip-rule="evenodd" d="M4.9028 13.5559C5.17129 13.8243 5.17129 14.2596 4.9028 14.5281L2.1528 17.2781C1.88432 17.5466 1.44902 17.5466 1.18053 17.2781L0.263864 16.3615C-0.00462136 16.093 -0.00462136 15.6577 0.263864 15.3892C0.532349 15.1207 0.96765 15.1207 1.23614 15.3892L1.66667 15.8197L3.93053 13.5559C4.19902 13.2874 4.63432 13.2874 4.9028 13.5559Z" fill="white"/>
</svg>
