<svg width="13" height="12" viewBox="0 0 13 12" fill="none" xmlns="http://www.w3.org/2000/svg">
<g clip-path="url(#clip0_52_60047)">
<path d="M2.41915 3.98088V2.3809L4.00765 3.40866V4.71919C4.00765 4.71919 4.01587 4.71551 4.02973 4.70944C4.05415 5.38936 4.33995 6.00459 4.78924 6.45349C5.25933 6.924 5.91091 7.21561 6.62848 7.2154C7.34604 7.21563 7.99786 6.92402 8.46771 6.45349C8.91722 6.00459 9.20302 5.38936 9.22725 4.70944C9.24129 4.71551 9.24952 4.71919 9.24952 4.71919V3.40866L11.2748 2.09836L6.62845 0L1.98237 2.09838V3.98088C1.83525 4.01571 1.72559 4.14703 1.72559 4.30472V4.40011H2.67612V4.30472C2.67612 4.14703 2.56622 4.01571 2.41915 3.98088ZM4.50539 4.5559C5.02763 4.43063 5.87541 4.35752 6.62845 4.88449C7.3815 4.35752 8.22952 4.43063 8.75173 4.5559C8.75215 4.57538 8.75302 4.59481 8.75302 4.61428C8.75302 5.20186 8.51571 5.73141 8.13084 6.11672C7.74558 6.50156 7.21601 6.73889 6.62845 6.73908C6.04113 6.73889 5.51154 6.50156 5.12627 6.11672C4.74143 5.73143 4.5041 5.20186 4.50389 4.61428C4.50389 4.59481 4.50497 4.57538 4.50539 4.5559Z" fill="white"/>
<path d="M1.72559 5.14758C1.72559 5.33189 1.87484 5.48114 2.05917 5.48114H2.34255C2.52663 5.48114 2.67612 5.33187 2.67612 5.14758V4.59961H1.72559V5.14758Z" fill="white"/>
<path d="M8.16373 7.35938C8.16373 7.35938 8.08908 7.41907 7.95452 7.49674L6.62822 9.74114L5.30191 7.49674C5.16736 7.41907 5.09273 7.35938 5.09273 7.35938C3.89252 7.88873 3.39844 9.15966 3.39844 10.1656C3.39844 11.1717 3.39844 11.9994 3.39844 11.9994H9.85826C9.85826 11.9994 9.85826 11.1717 9.85826 10.1656C9.85823 9.15966 9.36391 7.88873 8.16373 7.35938Z" fill="white"/>
</g>
<defs>
<clipPath id="clip0_52_60047">
<rect width="12" height="12" fill="white" transform="translate(0.5)"/>
</clipPath>
</defs>
</svg>
