<svg width="15" height="18" viewBox="0 0 15 18" fill="none" xmlns="http://www.w3.org/2000/svg">
<path fill-rule="evenodd" clip-rule="evenodd" d="M2.05556 0C1.643 0 1.24733 0.163888 0.955612 0.455612C0.663888 0.747335 0.5 1.143 0.5 1.55556V12.4444C0.5 12.857 0.663888 13.2527 0.955612 13.5444C1.24733 13.8361 1.643 14 2.05556 14H12.9444C13.357 14 13.7527 13.8361 14.0444 13.5444C14.3361 13.2527 14.5 12.857 14.5 12.4444V1.55556C14.5 1.143 14.3361 0.747335 14.0444 0.455612C13.7527 0.163888 13.357 0 12.9444 0H2.05556ZM2.05556 1.55556H12.9444V12.4444H2.05556V1.55556ZM11.35 5.285C11.4243 5.21325 11.4835 5.12743 11.5243 5.03254C11.5651 4.93764 11.5865 4.83559 11.5874 4.73231C11.5883 4.62904 11.5686 4.52662 11.5295 4.43104C11.4904 4.33545 11.4327 4.24861 11.3596 4.17558C11.2866 4.10255 11.1998 4.0448 11.1042 4.00569C11.0086 3.96659 10.9062 3.94691 10.8029 3.94781C10.6996 3.9487 10.5976 3.97016 10.5027 4.01092C10.4078 4.05168 10.322 4.11094 10.2502 4.18522L6.40022 8.03522L4.75056 6.38556C4.67834 6.31329 4.5926 6.25596 4.49823 6.21683C4.40387 6.1777 4.30271 6.15755 4.20055 6.15751C3.99423 6.15744 3.79633 6.23933 3.65039 6.38517C3.50445 6.53101 3.42242 6.72885 3.42234 6.93517C3.42227 7.14149 3.50416 7.33939 3.65 7.48533L5.79511 9.63044C5.87456 9.70993 5.9689 9.77299 6.07272 9.81601C6.17655 9.85903 6.28784 9.88117 6.40022 9.88117C6.51261 9.88117 6.6239 9.85903 6.72772 9.81601C6.83155 9.77299 6.92588 9.70993 7.00533 9.63044L11.35 5.285Z" fill="#660000"/>
</svg>
