<svg width="24" height="25" viewBox="0 0 24 25" fill="none" xmlns="http://www.w3.org/2000/svg">
<path opacity="0.5" d="M17 9.50195C19.175 9.51406 20.3529 9.61051 21.1213 10.3789C22 11.2576 22 12.6718 22 15.5002V16.5002C22 19.3286 22 20.7429 21.1213 21.6215C20.2426 22.5002 18.8284 22.5002 16 22.5002H8C5.17157 22.5002 3.75736 22.5002 2.87868 21.6215C2 20.7429 2 19.3286 2 16.5002V15.5002C2 12.6718 2 11.2576 2.87868 10.3789C3.64706 9.61051 4.82497 9.51406 7 9.50195" stroke="#6A6A6A" stroke-width="2" stroke-linecap="round"/>
<path d="M12 15.5V2.5M12 2.5L15 6M12 2.5L9 6" stroke="#6A6A6A" stroke-width="2" stroke-linecap="round" stroke-linejoin="round"/>
</svg>
