<svg width="70" height="70" viewBox="0 0 70 70" fill="none" xmlns="http://www.w3.org/2000/svg">
<rect width="70" height="70" rx="8" fill="white"/>
<path d="M35.0002 61.9798C49.9002 61.9798 61.9793 49.9007 61.9793 35.0006C61.9793 20.1005 49.9002 8.02148 35.0002 8.02148C20.1 8.02148 8.021 20.1005 8.021 35.0006C8.021 49.9007 20.1 61.9798 35.0002 61.9798Z" stroke="#660000" stroke-width="3.75" stroke-linecap="round" stroke-linejoin="round"/>
<path d="M35.38 37.9164C40.3092 37.9164 44.3051 33.9206 44.3051 28.9914C44.3051 24.0623 40.3092 20.0664 35.38 20.0664C30.4509 20.0664 26.4551 24.0623 26.4551 28.9914C26.4551 33.9206 30.4509 37.9164 35.38 37.9164Z" stroke="#660000" stroke-width="3.75" stroke-linecap="round" stroke-linejoin="round"/>
<path d="M18.9585 55.7371C19.8545 52.161 21.9198 48.9868 24.8262 46.7185C27.7326 44.4505 31.3135 43.2188 35.0002 43.2188C38.6868 43.2188 42.2676 44.4505 45.1741 46.7185C48.0805 48.9868 50.1458 52.161 51.0418 55.7371" stroke="#660000" stroke-width="3.75" stroke-linecap="round" stroke-linejoin="round"/>
</svg>
